<?xml version="1.0" encoding="utf-8"?>
<!-- Generator: Adobe Illustrator 27.2.0, SVG Export Plug-In . SVG Version: 6.00 Build 0)  -->
<svg version="1.1" id="_레이어_1" xmlns="http://www.w3.org/2000/svg" xmlns:xlink="http://www.w3.org/1999/xlink" x="0px"
	 y="0px" viewBox="0 0 40 40" style="enable-background:new 0 0 40 40;" xml:space="preserve">
<style type="text/css">
	.st0{fill:#2F318E;}
</style>
<polygon class="st0" points="25.3,38.4 24.8,36.9 25.6,36.6 26.5,34.4 27.6,28 28.1,26.4 28.1,23.1 27.6,19.1 27.6,15.2 26.8,11.9 
	26.8,9.4 26.5,7.9 26.1,5.2 25.6,3.2 25.4,3 24.6,3 24.2,3.6 24.2,18.8 22.6,18.8 22.6,3.1 23.9,1.4 26.2,1.4 27,2.6 27.6,4.9 
	28,7.6 28.3,9.3 28.3,11.9 29.2,15.1 29.2,19.1 29.6,23.1 29.6,26.6 29.1,28.4 28,35 26.7,37.9 "/>
<polygon class="st0" points="20.7,28 18.6,25.7 17.6,24.2 17.1,22.8 16.7,20.5 16.1,18 17.1,15.2 17.5,13.6 19.6,11.9 21.5,12.6 
	23.8,13.9 23,15.2 20.8,14 19.9,13.6 18.9,14.5 18.6,15.6 17.7,18.1 18.3,20.3 18.6,22.5 19,23.6 19.8,24.7 21,26 21.2,25.6 
	22.5,26.5 22,27.2 "/>
<polygon class="st0" points="18.9,28.7 17.6,28.7 16,27.3 15.3,26 14.4,24.5 13.8,23.7 13.4,20.6 13.4,19.8 13.7,17.4 14.3,15.6 
	16.3,14.2 17.4,14.2 17.4,15.8 16.8,15.8 15.6,16.6 15.2,17.8 14.9,20 14.9,20.5 15.3,23 15.8,23.7 17.2,26.3 18.2,27.1 18.6,27.1 
	19.4,26.9 19.5,26.6 20.9,27.4 20.4,28.1 "/>
<polygon class="st0" points="14.9,30.2 13,28.5 11.8,27.8 11.8,26.3 11.2,25.1 10.4,21.5 10.4,19.6 12,18 13.9,18 13.9,19.6 
	12.6,19.6 11.9,20.2 11.9,21.4 12.6,24.6 13.3,25.9 13.3,26.9 14,27.3 15.3,28.5 15.5,28.4 15.9,27.4 17.4,27.9 16.8,29.7 "/>
<polygon class="st0" points="16.9,38.6 15.4,38.1 13.8,36.7 13.1,34.2 12.1,32.3 12.1,27.9 13.7,27.9 13.7,31.9 14.6,33.8 
	15.2,35.9 16.2,36.8 17.4,37.1 "/>
<polygon class="st0" points="22.6,28.2 21.1,28.2 21.2,24.5 20.6,23.9 19.3,22.5 18.3,20.1 18.3,17.5 19.9,15.8 21.6,16.8 23,18.2 
	26.7,20.3 28.2,22.8 28.9,27.2 27.4,27.5 26.7,23.3 25.6,21.5 22,19.4 20.7,18 20.2,17.7 19.9,18.1 19.9,19.8 20.7,21.6 22.8,24 "/>
<polygon class="st0" points="16.9,34.8 15.4,34.5 15.7,32.7 16.3,30.8 19,29.4 20.8,28.5 23.2,27.1 24,27.1 24,28.7 23.6,28.7 
	21.5,29.8 19.8,30.8 17.6,31.9 17.2,33.1 "/>
</svg>
