<?xml version="1.0" encoding="UTF-8"?>
<svg id="_레이어_1" data-name="레이어 1" xmlns="http://www.w3.org/2000/svg" viewBox="0 0 371.12 182.23">
  <defs>
    <style>
      .cls-1 {
        fill: #2f318e;
        stroke-width: 0px;
      }
    </style>
  </defs>
  <path class="cls-1" d="M107.88,182.23l-16.41-3.84-12.18-3.61-10.22-2.12-11.03-6.4-13.68-8.48-9.46-9.25-10.32-10.91-2.45-3.25-6.85-3.02-1.57-3.65-5.67-9.42-5.89-6.99-2.14-12.48,3.84-4.77,2.54-14.78,14.28-11.19,33.73-11.41,22.25-3.53,40.98.08,17.28,2.82,20.56,21.41v2.81l4.68,10.15.98,2.94,3.78,9.35,5.04,11.54v34.41l-.34,1.01c-2.16,6.49-2.9,7.77-3.14,8.19-.09.28-.77,2.62-1.29,4.7l-.48,1.31-2.52,5.1-9.45,5.2-2.71,2.4-15.51,2.69-1.09.52-9.28.75-16.26,1.73ZM73.78,160.32l8.96,1.88,12.07,3.59,13.88,3.23,21.57-2.22.84-.4,13.08-2.12,1.61-1.21,6.5-3.58.4-.81c1.41-5.5,2.15-6.81,2.44-7.31.22-.48,1.04-2.75,1.76-4.86v-29.56l-4.02-9.22-4.98-12.85-5.47-12.19-13.91-14.47-12.46-2.03h-38.87l-20.13,3.27-30.1,10.28-8.55,6.71-2.26,13.17-2.27,2.81.55,3.18,5.33,6.91,5.45,8.96,7.63,3.36,1.13,3.62.93,1.11,9.32,9.83,8.75,8.55,20.84,12.39Z"/>
  <path class="cls-1" d="M160.76,98.62l-9.22-9.23c6.41-6.4,7.73-6.74,9.13-7.09.45-.16,3.33-1.36,5.6-2.35l1.02-.34,13.81-3.25h4.67l6.12-1.83h7.81v13.05h-5.89l-6.12,1.83h-5.78l-10.94,2.74c-3.18,1.38-4.9,2.06-5.86,2.42-.89.74-2.74,2.46-4.35,4.07Z"/>
  <path class="cls-1" d="M165.4,115.77l-8.24-10.12,11.53-9.4,12.54-1.36c1.88-.43,4.92-1.06,6.72-1.06.91-.02,6.49-.51,11.12-.95l.62-.03h3.42v13.05h-3.11c-3.99.38-10.55.98-12.05.98-.46.03-2.49.42-4.14.8l-.79.14-9.09.99-8.54,6.96Z"/>
  <path class="cls-1" d="M278.5,155.32l-6.74-.14-11.45-2.4-8.82-1.1-13-7.11-12.78-9.06-2.1-3.29-11.67-12.95-4.8-7.08-5.13-9.79-4.84-8.22-4.56-10.32-4.85-9.22-5.47-7.82-8.97-28.52h12.69c1.27-1.11,2.44-2.17,2.93-2.66.56-.74,1.72-1.96,4.84-3.69l8.45-5.83c4.11-1.79,9.15-4.09,10.11-4.65,1.88-1.25,3.85-1.82,4.95-2.05,8.94-2.93,18.86-6.28,20.75-7.05.83-.45,2.78-1.3,8.12-2.4,13.56-2.73,14.52-2.73,15.22-2.73,1.33-.08,9.69-1.21,11.31-1.68,2.73-.82,8.2-1.78,8.82-1.89,3.82-.62,14.17-2.34,17.15-3.08,4.33-1.09,9.03-.4,11.11,0l8.55-.21,20.7,5.44,18.27,23.53,2.09,7.22,4.5,9.03c3.85,11.03,4.1,12.44,4.19,12.9.24,1.36,1.7,9.11,1.7,9.11,1.68,9.5,1.4,11.17,1.25,12.07-.06.79-.01,5.89.09,10.01v.58s-2.46,15.6-2.46,15.6l-2.51,8.01-2.96,5.3-6.4,9.65-4.33,5.35-4.67,3.94-8.82,5.75-7.98.86-4.72,1.03c-5.66.49-7.99.66-9.01.73-.76.23-2.42.82-3.89,1.38l-17.33,5.97-17.51,1.49ZM273.76,142.28h4.18l16.23-1.38,2.37-.76,12.21-4.49c5.69-2.18,6.68-2.18,7.63-2.18.9-.04,6.58-.53,8.27-.67l4.51-1,5.27-.57,5.84-3.81,3.16-2.71,2.87-3.69,5.83-8.82,2.23-4.02,1.64-5.57,2.04-13.19c-.19-7.95-.06-10.48.04-11.42-.05-1.12-.57-4.77-1.15-8.06,0,0-1.46-7.76-1.71-9.13-.21-.82-1.97-6.06-3.52-10.52l-4.69-9.52-1.56-5.4-14.02-18.06-14.64-3.85-8.3.2-.82-.19c-1.45-.34-4.24-.63-5.84-.23-4.07,1.02-16.73,3.06-18.16,3.29-1.95.34-5.73,1.07-7.23,1.52-2.88.86-12.01,2.04-14.57,2.21-1.18.15-7.69,1.4-13.1,2.49-1.79.37-3.96.92-4.68,1.18-.98.51-4.23,1.82-23.12,8.01l-1.07.25s-.31.11-.43.2c-1.26.84-5.09,2.66-11.4,5.42l-7.69,5.41c-.06.03-.88.46-1.48.89-.7.79-2.22,2.26-6.2,5.67l-1.65,1.41,3.08,9.8,4.99,7.22,5.33,10.18,4.49,10.16,4.45,7.49,5.12,9.74,3.93,5.74,11.87,13.21,1.02,1.61,10.39,7.36,9.83,5.34,7.16.91,11.05,2.31ZM358.14,77.53c0,.07-.03.16-.04.27.02-.12.03-.2.04-.27ZM244.39,23.76s-.06.03-.09.06c.03-.02.06-.04.09-.06ZM244.39,23.76h0Z"/>
</svg>