<?xml version="1.0" encoding="UTF-8"?>
<svg id="_레이어_1" data-name="레이어 1" xmlns="http://www.w3.org/2000/svg" viewBox="0 0 225.73 225.73">
  <defs>
    <style>
      .cls-1 {
        fill: none;
        stroke: #2f318e;
        stroke-miterlimit: 10;
        stroke-width: 3px;
      }

      .cls-2 {
        fill: #2f318e;
        stroke-width: 0px;
      }
    </style>
  </defs>
  <path class="cls-2" d="M75.01,168.11l-3.39-1.32-1.65-.78-1.03-.4.65-1.04.53-2.21-.51-2.77-2.18-1.63-2.45-1.07-3.56.66-1.78-.36.57-.82.56-1.8-1.08-2.61-.88-.81-2.33-1.62-1.51.06-2.73-.67-1.65-.6-1.98.24-.71-.18-3.26.54-3.28.37-1.87.34-2.33.67-2.24,1.22-1.35.84-1.3,1-1.48,1.05-1.14.67-1.21.86-.97.55-2.81,1.83-1.13,1.47-.92.91-.86.7-.94.91-1.04.9-.23.25c-3.31,4.54-2.37,5.84-2.02,6.32.76,1.05,1.44,1.54,1.57,1.63l2.49,1.49,2.97-.31.36.07-.96.87-1.6,3.27,1.44,2.34,2.35,2.54,2.87-.53,1.36.03-2.35,1.88.7,4.73,4.1,3.07,1.07-.66,1.44,2.68,1.94,2.42,3.61-.23,2.11-.04,3.91-.41,2.61-.48,1.67-.08,3.16-.22,3-1.67-1.46-2.62-2.42,1.34-2.75.19-1.84.12-2.42.45-3.6.38-2.11.04-2.14.13-.71-.88-.18-.33,2.06-1.38-1.84-3.22-2.14-.89-2.83,1.74-1.48-1.11-.27-1.8,2.22-1.77.96-3.24-2.81-1.11-2.7-.06-1.72.29-.94-1-.49-.8.62-1.26,2.51-2.27-1.12-2.95-3.1-.59-2.42.25-1.48-.88c-.08-.07-.31-.26-.6-.61.19-.6.91-1.88,1.68-2.96l.97-.84.85-.82.87-.7,1.16-1.13,1.01-1.29,2.28-1.5.99-.56,1.25-.88,1.14-.67,1.69-1.19,1.16-.9,1.22-.76,1.72-.97,1.94-.57,1.64-.3,3.31-.37,2.72-.45.65.16,1.81-.22,1.05.38,3.38.84.94-.04,1.25.86.32.29.41.99-.1.33-.67.98-.38,1.02-3.04.56h-1.74s-1.74-.17-1.74-.17l-1.95.8-4.4.81-1.66,1.06-.94.27-2.02.95-2.09,1.27-1.16-1.34-2.27,1.97,2.71,3.12,1.16-1.01.42.44.56-.54,1.8-1.03,1.83-.98,1.24-.35,1.54-.98,3.98-.73,1.71-.67,1.07.1,2.07.02,2.8-.49,1.38.45,1.8-.33,1.89.39,3.26-.6,1.14.47,1.08.81.18.99-.27,1.11-.96,1.55-1.2-.12-2.01-.12-2.85.39-2.9.53-3.06.83-2.28,1.26-7.81,1.44-2.64,1.41-.28-1.52-2.95.54.41,2.2,1.2,2.43,1.37.81,1.43.31.7.11.41-2.71,1.34-.72,7.88-1.45,2.21-1.27,2.69-.74,2.79-.51,2.34-.35,1.8.1,1.84.17,1.09.23,1.4.53,1.64.78,1.98.78.13.69-2.63,1.32-3.27,1.42-.99-.17-6.66-.02-2.54.44-2.75,1.37-2.03.79-1.38.7-2.08.72-1.01-.79-1.85,2.36.35.28-.28.25,1.98,2.26,1.69-1.48,2.29-.8,1.44-.72,2.03-.78,2.57-1.27,1.72-.32h6.15s3.55.6,3.55.6l.2.47-1.13,1.07-2.31,1.44-5.74.97-5.45,2.43-5.23,3.23,1.58,2.55,4.97-3.08,5-2.24,5.95-1.01,2.94-1.83,3.01-2.81-1.44-3.32,4.72-2.37-.84-4.55Z"/>
  <path class="cls-2" d="M170.76,151.54l-1.77-.24-1.94-1.19-.95-1.13-.69-.83.17-.29,4.03-4.09,1.12-.54,3.62-2.32,1.75-.77,2.21-.54-.32-1.3.42-1.35-.13-1.42-2.99.27.07.83-.21.67-2.13.92-2.51,1.61-.54-.09-.8-.25-.43,1.38-.13.06-.82-.73-.32.36-.98.74-.21.67.69.21-1.96,1.99.04-.34-.89-.09-2.48-.77v-.03s-2.5-1.62-2.5-1.62l-.45-.14-.15-.39-.18-.9.11-.36,1.61-1.93,1.34-.49,1.56-.92,1.74-1.57,1.52-1.08,1.61-.54,2.1-.98,2.46-.73,2.54-.93,3.2-2.46-1.83-2.38-2.84,2.18-2.01.74-2.48.74-1.99.92-.41-.34-.9-.28-.73-.54-1.77,2.42.46.34-.74.53-1.62,1.48-.39.24-.85-.26-.54-.48-.64-.44-1.32-2.24-.06-.72.58-1.87.91-.96,1.51-2.19,2.52-1.39,1.79-.91,1.61-.68,5.42-.94,3.24-.77,2.74-1.92-1.72-2.46-2.27,1.59-2.52.6-3.15.52-2.44.45-2.12.86-.8.41-.71.39-.32-1.14.16-.53.29-1.77,1.21-.8,3.92-2.09,2.71-1.67,3.38-1.32,5.16-1.17,3.91.34,3.21-.09,4.16,1.29.77.25,2.07.04,1.33.84.5.79.75.94.64,1.56.97,1.73.59,1.12.5,1.65.24,1.17.15,1.46.24,1.2.37,4.33.75,1.37.98,3.01.47,1.09.27,1.82.43,4.33.17,1.48-.06,1.54,1.06,1.82,2.57-.57-.59-2,.04-.9-.63-6.06-.33-2.29-.56-1.28-.99-3.05-.62-1.2-.33-3.8-.25-1.23-.15-1.46-.3-1.47-.59-1.98-1.65-3.07-.77-1.88-.87-1.07-.79-1.25-1.27-.86-1.42-.83-2.35-.05-5.08-1.57-3.54.09-4.21-.37-5.73,1.3-3.83,1.48-3.41,2.08-3.8,2.02-1.48.98-1.22,1.58-.16,2.46.98,2.29.09.51-1.42.78-1.69,2.49-1.31,1.38-.96,3.09.17,2.01,2,3.39.98.65.18.16-1.02,1.19-.99,1.24-.51,1.62.35,1.78.8,2.11,1.43.44.72.47-.03.63,4.35,1.35-.56.89-.15,1.54,1.38,1.82.98.92,1.9.59,2.85,1.37,1.31.1,1.03-.24M180.21,152.86v-.02s.14.05.14.05l1.05.49.58.57.83.96,1.94.92.21.64,1.96.99,1.13.37,2.89,1.47,1.43.46,3.22-.18-.37-2.98-2.49.14-.58-.18-2.83-1.44-1.17-.39-.75-.38-.23-.68-2.53-1.2-.46-.53-1.06-1.05-1.56-.74-1.56-.59-1.2-.07-2.06-.64-1.13-.85-1.32-2.07-.94.6-.63.33-.8.58-.69-.12-.55-.17-.89,2.86.64.2,2.1.38.48-.3.36-.25.07.07,1.21.92"/>
  <path class="cls-1" d="M69.97,166.54l.63.3.94.45h4.42l2.92-1.28.38-2.55v-2.25l.75-3.15v-1.12l1.8-3.75-6.67.97-9.6.75,1.27,1.2,1.58,2.55s.53,2.33.6,2.78.3,1.58.3,1.58l.45,1.65.23,1.88Z"/>
  <path class="cls-1" d="M66.07,154.87l-.52-2.66-3.08-2.17s-2.7-1.05-2.92-1.12-2.4-1.35-2.4-1.35l-2.03-1.12-1.35-3.45s-.38-6.98-.53-7.5-.75-4.2-.75-4.2v-9l1.58-4.27,1.74-4.35,4.11-4.2,6.9-3.6h7.73l10.05,3.38,4.65,6.6,2.25,8.25v6l-.82,5.85-.3,2.92-1.2,2.7-1.58,1.8-2.92,2.1-1.58,1.73-1.28,1.05-.83,1.58-.07,1.5-.08.75-.08,1.12"/>
  <path class="cls-1" d="M77.32,153.19l-.52-3.08s.07-3.45,0-3.83.26-2.85.26-2.85c0,0,.11-1.28.26-1.65s.98-3.52.98-3.52c0,0,.52-1.88.52-2.1s1.28-4.05,1.28-4.05v-2.7s.75-3.45.75-3.67v-.22l-.3-3.9v-.53"/>
  <path class="cls-1" d="M69.3,153.71v-3.3l-1.73-3.83-.52-2.4s-.75-2.55-.83-2.85-.67-3.15-.67-3.15c0,0-.3-1.73-.53-2.62s-.22-3.67-.22-3.67l-.38-3.68-.6-3.97v-2.03"/>
  <polyline class="cls-1" points="64.95 126.19 66.56 128.06 67.72 128.06 69.75 125.06 70.57 125.06 72 127.46 73.27 129.26 73.69 128.36 75.97 124.16 78.15 126.71 80.25 125.74 80.67 126.71"/>
  <polyline class="cls-1" points="68.94 158.73 71.19 158.95 74.27 158.95 77.08 158.5 79.44 158.02 80.27 157.6"/>
  <polyline class="cls-1" points="69.96 163.07 72 163.34 74.83 163.07 77.42 162.89 78.82 162.4"/>
  <polyline class="cls-1" points="171.3 149.48 170.74 153.08 170.46 155.95 169.82 160.9 169.22 165.57 167.25 175.75 167.25 176.93 167.48 182.05 168.66 183.91 171.86 185.71 176.42 186.1 178.56 185.37 179.4 182.67 180.92 179.97 181.71 176.93 181.93 172.88 181.93 169.23 183.56 164.28 184.01 160.23 184.18 157.75 184.43 155.68 184.58 153.72"/>
  <polyline class="cls-1" points="175.58 150.27 175.18 155.67 174.51 160.79 174 166.25 173.44 170.97 171.98 175.75 170.79 178.57 169.82 181.49 169.39 183.57"/>
  <path class="cls-1" d="M179.79,151.4l-1.91,11.36-.39,6.19-.28,4.39-.56,2.53-.39,2.7-.67,3.15s-.62,2.14-.67,2.31,0,1.63,0,1.63"/>
  <path class="cls-1" d="M172.55,110.3l-2.87-2.4s-.45-1.43,0-1.73,3.3-1.21,3.3-1.21l7.42-1.71,3.9-.38,5.57.75,5.16,1.34.9.99v1.95l-1.18,2.4h-.53"/>
  <polyline class="cls-1" points="181.22 101.83 182.71 89.53 183.71 80.38 184.46 73.57 185.83 66.05 186.33 61.56 186.73 60.04 188.42 58.56 189.77 58.91 190.1 60.15 190.1 62.62 190.1 63.92 189.43 66.22 189.09 68.81 188.92 70.61 188.75 72.69 188.3 75.84 188.08 77.98 187.8 80.57 187.46 83.32 186.95 86.36 186.67 88.89 186.33 91.54 186 93.56 186.28 95.14 185.94 97.22 185.66 99.13 185.37 101.15 185.37 102"/>
  <polyline class="cls-1" points="86.91 183.67 80.27 186.74 77.83 192.07 79.26 197.39 83.53 199.34 97.41 200.02 107.08 196.64 109.11 189.59 108.58 185.32 103.86 183.14 97.48 182.17 92.76 182.32 87.58 182.69 86.31 183.37"/>
  <polyline class="cls-1" points="77.38 195.74 78.28 203.77 82.78 208.28 87.51 210.74 96.66 210.74 105.28 209.84 109.11 206.92 110.23 202.94 111.73 196.19 112.56 191.09 111.13 188.84 110.46 187.42"/>
  <polygon class="cls-1" points="86.01 191.69 88.18 192.82 95.53 193.57 100.11 192.63 101.68 189.97 100.56 187.42 97.18 187.42 93.47 187.42 90.73 188.32 88.78 189.52 86.01 191.69"/>
  <path class="cls-1" d="M135.86,163.27l-1.8,5.17-1.57,7.54-3.3,6.14-.63,1.18v4.84l-1.91,5.29v1.8l4.61.79h.9l2.47-4.95s.23-2.36.34-2.92,1.58-4.73,1.69-5.29,1.91-5.1,1.91-5.1l1.46-5.25s1.35-2.7,1.46-3.04.9-1.69,1.12-2.14,1.24-2.7,1.24-2.7"/>
  <polygon class="cls-1" points="131.03 162.12 131.72 162.22 139.13 163.27 144.53 164.28 151.05 165.85 152.63 162.59 152.51 158.85 146.21 157.25 141.26 157.25 137.55 156.74 134.06 156.18 131.03 162.12"/>
  <line class="cls-1" x1="134.96" y1="167.71" x2="141.29" y2="169.91"/>
  <line class="cls-1" x1="134.18" y1="172.77" x2="139.3" y2="175.1"/>
  <line class="cls-1" x1="132.26" y1="177.74" x2="137.83" y2="181.42"/>
  <line class="cls-1" x1="129.88" y1="180.82" x2="135.86" y2="185.32"/>
  <line class="cls-1" x1="128.83" y1="186.33" x2="134.18" y2="189.14"/>
  <line class="cls-1" x1="128.16" y1="190.88" x2="133.11" y2="192.97"/>
</svg>