<?xml version="1.0" encoding="UTF-8"?>
<svg id="_레이어_1" data-name="레이어 1" xmlns="http://www.w3.org/2000/svg" viewBox="0 0 225.73 225.73">
  <defs>
    <style>
      .cls-1 {
        fill: none;
        stroke: #2f318e;
        stroke-miterlimit: 10;
        stroke-width: 3px;
      }

      .cls-2 {
        fill: #2f318e;
        stroke-width: 0px;
      }
    </style>
  </defs>
  <path class="cls-2" d="M75.01,168.11l-3.39-1.32-1.65-.78-1.03-.4.65-1.04.53-2.21-.51-2.77-2.18-1.63-2.45-1.07-3.56.66-1.78-.36.57-.82.56-1.8-1.08-2.61-.88-.81-2.33-1.62-1.51.06-2.73-.67-1.65-.6-1.98.24-.71-.18-3.26.54-3.28.37-1.87.34-2.33.67-2.24,1.22-1.35.84-1.3,1-1.48,1.05-1.14.67-1.21.86-.97.55-2.81,1.83-1.13,1.47-.92.91-.86.7-.94.91-1.04.9-.23.25c-3.31,4.54-2.37,5.84-2.02,6.32.76,1.05,1.44,1.54,1.57,1.63l2.49,1.49,2.97-.31.36.07-.96.87-1.6,3.27,1.44,2.34,2.35,2.54,2.87-.53,1.36.03-2.35,1.88.7,4.73,4.1,3.07,1.07-.66,1.44,2.68,1.94,2.42,3.61-.23,2.11-.04,3.91-.41,2.61-.48,1.67-.08,3.16-.22,3-1.67-1.46-2.62-2.42,1.34-2.75.19-1.84.12-2.42.45-3.6.38-2.11.04-2.14.13-.71-.88-.18-.33,2.06-1.38-1.84-3.22-2.14-.89-2.83,1.74-1.48-1.11-.27-1.8,2.22-1.77.96-3.24-2.81-1.11-2.7-.06-1.72.29-.94-1-.49-.8.62-1.26,2.51-2.27-1.12-2.95-3.1-.59-2.42.25-1.48-.88c-.08-.07-.31-.26-.6-.61.19-.6.91-1.88,1.68-2.96l.97-.84.85-.82.87-.7,1.16-1.13,1.01-1.29,2.28-1.5.99-.56,1.25-.88,1.14-.67,1.69-1.19,1.16-.9,1.22-.76,1.72-.97,1.94-.57,1.64-.3,3.31-.37,2.72-.45.65.16,1.81-.22,1.05.38,3.38.84.94-.04,1.25.86.32.29.41.99-.1.33-.67.98-.38,1.02-3.04.56h-1.74s-1.74-.17-1.74-.17l-1.95.8-4.4.81-1.66,1.06-.94.27-2.02.95-2.09,1.27-1.16-1.34-2.27,1.97,2.71,3.12,1.16-1.01.42.44.56-.54,1.8-1.03,1.83-.98,1.24-.35,1.54-.98,3.98-.73,1.71-.67,1.07.1,2.07.02,2.8-.49,1.38.45,1.8-.33,1.89.39,3.26-.6,1.14.47,1.08.81.18.99-.27,1.11-.96,1.55-1.2-.12-2.01-.12-2.85.39-2.9.53-3.06.83-2.28,1.26-7.81,1.44-2.64,1.41-.28-1.52-2.95.54.41,2.2,1.2,2.43,1.37.81,1.43.31.7.11.41-2.71,1.34-.72,7.88-1.45,2.21-1.27,2.69-.74,2.79-.51,2.34-.35,1.8.1,1.84.17,1.09.23,1.4.53,1.64.78,1.98.78.13.69-2.63,1.32-3.27,1.42-.99-.17-6.66-.02-2.54.44-2.75,1.37-2.03.79-1.38.7-2.08.72-1.01-.79-1.85,2.36.35.28-.28.25,1.98,2.26,1.69-1.48,2.29-.8,1.44-.72,2.03-.78,2.57-1.27,1.72-.32h6.15s3.55.6,3.55.6l.2.47-1.13,1.07-2.31,1.44-5.74.97-5.45,2.43-5.23,3.23,1.58,2.55,4.97-3.08,5-2.24,5.95-1.01,2.94-1.83,3.01-2.81-1.44-3.32,4.72-2.37-.84-4.55Z"/>
  <path class="cls-2" d="M170.76,151.54l-1.77-.24-1.94-1.19-.95-1.13-.69-.83.17-.29,4.03-4.09,1.12-.54,3.62-2.32,1.75-.77,2.21-.54-.32-1.3.42-1.35-.13-1.42-2.99.27.07.83-.21.67-2.13.92-2.51,1.61-.54-.09-.8-.25-.43,1.38-.13.06-.82-.73-.32.36-.98.74-.21.67.69.21-1.96,1.99.04-.34-.89-.09-2.48-.77v-.03s-2.5-1.62-2.5-1.62l-.45-.14-.15-.39-.18-.9.11-.36,1.61-1.93,1.34-.49,1.56-.92,1.74-1.57,1.52-1.08,1.61-.54,2.1-.98,2.46-.73,2.54-.93,3.2-2.46-1.83-2.38-2.84,2.18-2.01.74-2.48.74-1.99.92-.41-.34-.9-.28-.73-.54-1.77,2.42.46.34-.74.53-1.62,1.48-.39.24-.85-.26-.54-.48-.64-.44-1.32-2.24-.06-.72.58-1.87.91-.96,1.51-2.19,2.52-1.39,1.79-.91,1.61-.68,5.42-.94,3.24-.77,2.74-1.92-1.72-2.46-2.27,1.59-2.52.6-3.15.52-2.44.45-2.12.86-.8.41-.71.39-.32-1.14.16-.53.29-1.77,1.21-.8,3.92-2.09,2.71-1.67,3.38-1.32,5.16-1.17,3.91.34,3.21-.09,4.16,1.29.77.25,2.07.04,1.33.84.5.79.75.94.64,1.56.97,1.73.59,1.12.5,1.65.24,1.17.15,1.46.24,1.2.37,4.33.75,1.37.98,3.01.47,1.09.27,1.82.43,4.33.17,1.48-.06,1.54,1.06,1.82,2.57-.57-.59-2,.04-.9-.63-6.06-.33-2.29-.56-1.28-.99-3.05-.62-1.2-.33-3.8-.25-1.23-.15-1.46-.3-1.47-.59-1.98-1.65-3.07-.77-1.88-.87-1.07-.79-1.25-1.27-.86-1.42-.83-2.35-.05-5.08-1.57-3.54.09-4.21-.37-5.73,1.3-3.83,1.48-3.41,2.08-3.8,2.02-1.48.98-1.22,1.58-.16,2.46.98,2.29.09.51-1.42.78-1.69,2.49-1.31,1.38-.96,3.09.17,2.01,2,3.39.98.65.18.16-1.02,1.19-.99,1.24-.51,1.62.35,1.78.8,2.11,1.43.44.72.47-.03.63,4.35,1.35-.56.89-.15,1.54,1.38,1.82.98.92,1.9.59,2.85,1.37,1.31.1,1.03-.24M180.21,152.86v-.02s.14.05.14.05l1.05.49.58.57.83.96,1.94.92.21.64,1.96.99,1.13.37,2.89,1.47,1.43.46,3.22-.18-.37-2.98-2.49.14-.58-.18-2.83-1.44-1.17-.39-.75-.38-.23-.68-2.53-1.2-.46-.53-1.06-1.05-1.56-.74-1.56-.59-1.2-.07-2.06-.64-1.13-.85-1.32-2.07-.94.6-.63.33-.8.58-.69-.12-.55-.17-.89,2.86.64.2,2.1.38.48-.3.36-.25.07.07,1.21.92"/>
  <polyline class="cls-1" points="57.37 185.46 57.37 196.33 62.83 197.98 70.03 197.98 84.13 201.43 92.53 202.18 102.28 203.68 112.87 205.03 122.08 205.78 129.43 206.68 134.68 207.43 135.88 190.48 136.93 184.33 136.33 176.23 136.93 169.48 136.93 165.88"/>
  <polyline class="cls-1" points="70.13 162.36 80.98 162.36 91.48 163.33 103.78 163.93 110.97 163.93 119.98 164.68 128.83 164.98 133.63 165.88 139.93 165.88 144.13 165.88 151.93 164.12 158.98 158.83 162.43 155.98 165.28 153.72 166.48 152.25"/>
  <polyline class="cls-1" points="141.73 164.68 141.73 157.63 141.73 154.93 143.08 152.25"/>
  <path class="cls-1" d="M54.28,147.43h27.6l7.5.89h18.3l8.38,1.66,5.72.6s5.7-.3,6.15,0,7.2,0,7.2,0l7.28,1.05,3.67-1.35,6.9-2.85s4.84-2.53,5.59-2.3,2.36-.7,2.36-.7"/>
  <path class="cls-1" d="M50.59,148.32l9.84-6.89,5.7-1.95,5.25-1.95,5.55-1.05,3-1.35s15.67-5.04,15.78-4.77,9.12.61,9.57-.01,23.55-1.52,23.55-1.52h26.7"/>
  <path class="cls-1" d="M134.68,207.43l14.1-8.4s2.25-2.42,3.6-3.76,5.55-8.62,5.55-8.62l3.6-3.67,4.05-4.8"/>
  <polyline class="cls-1" points="172.03 149.68 172.03 156.28 167.23 163.03 166.48 168.28 166.48 173.83 174.58 176.08 175.48 180.47 175.03 183.51 169.18 184.63 167.04 184.63 163.56 184.63 161.53 182.98"/>
  <polyline class="cls-1" points="175.03 183.51 181.22 179.34 182.71 175.97 182.23 173.27 178.87 171.02 176.49 169.11 175.48 169.11"/>
  <polyline class="cls-1" points="167.49 173.49 173.57 170.57 176.27 167.87 177.06 165.28 177.73 161.79 177.73 158.46 177.73 155.61 177.73 152.25 177.73 150.54"/>
  <polyline class="cls-1" points="179.42 108.81 181.67 102.62 182.71 98.91 184.93 92.94 184.93 90.13 188.08 84.43 192.13 79.56 185.78 80.01 182.23 81.69 180.07 81.58 180.07 78.57 179.42 76.07 177.73 73.14 175.03 72.69 175.03 84.43 172.61 89.57 171.66 93.17 169.82 100.82 167.49 104.64 167.49 108.24 166.48 110.38 166.48 111.24 166.48 112.87 166.48 113.53"/>
  <polyline class="cls-1" points="43.07 149.64 41.72 143.68 40.14 138.58 36.77 135.58 31.82 133.44 22.71 131.64 19.56 131.64 25.52 128.27 31.31 127.59 36.21 127.59 36.99 125.01 35.08 122.31 35.08 121.18 34.97 120.62 41.83 119.94 44.76 123.54 47.68 128.83 50.59 132.99 52.52 137.27 53.76 140.31 54.28 143.12 54.28 144.43 54.65 145.48"/>
  <polyline class="cls-1" points="103.06 202.63 102.43 197.83 102.43 195.27 101.53 190.63 101.53 186.66 102.3 180.73 103.06 175.03 103.06 170.08 103.06 167.16 103.06 165.28 99.28 162.73 98.53 161.08 98.53 156.28 98.53 152.85 99.28 149.68 100.03 148.32 108.28 145.93 116.23 141.43 121.48 139.48 126.13 136.33 130.93 133.63 135.58 131.98 140.53 130.36 142.41 128.83"/>
  <path class="cls-1" d="M124.78,129l-13.35,5.79s-2.4,1.99-3.83,2.44-10.46,3.9-10.46,3.9l-4.92,3.3-3.75,1.5-1.52,2.1-2.68,5.69,2.55,4.75.45,3.56.59.98,3.01,1.68,3.6,4.43,1.5,7.2-.6,7.2-2.7,9.3-.45,2.47-.3,4.21v1.05"/>
  <polyline class="cls-1" points="131.38 107.01 136.64 106.56 143.08 105.09 148.37 102.17 153.73 98.12 155.01 95.87"/>
</svg>