<?xml version="1.0" encoding="UTF-8"?>
<svg id="_레이어_1" data-name="레이어 1" xmlns="http://www.w3.org/2000/svg" viewBox="0 0 225.73 225.73">
  <defs>
    <style>
      .cls-1 {
        fill: none;
      }

      .cls-1, .cls-2 {
        stroke: #2f318e;
        stroke-miterlimit: 10;
        stroke-width: 3px;
      }

      .cls-3 {
        fill: #2f318e;
        stroke-width: 0px;
      }

      .cls-2 {
        fill: #fff;
      }
    </style>
  </defs>
  <path class="cls-3" d="M75.01,168.11l-3.39-1.32-1.65-.78-1.03-.4.65-1.04.53-2.21-.51-2.77-2.18-1.63-2.45-1.07-3.56.66-1.78-.36.57-.82.56-1.8-1.08-2.61-.88-.81-2.33-1.62-1.51.06-2.73-.67-1.65-.6-1.98.24-.71-.18-3.26.54-3.28.37-1.87.34-2.33.67-2.24,1.22-1.35.84-1.3,1-1.48,1.05-1.14.67-1.21.86-.97.55-2.81,1.83-1.13,1.47-.92.91-.86.7-.94.91-1.04.9-.23.25c-3.31,4.54-2.37,5.84-2.02,6.32.76,1.05,1.44,1.54,1.57,1.63l2.49,1.49,2.97-.31.36.07-.96.87-1.6,3.27,1.44,2.34,2.35,2.54,2.87-.53,1.36.03-2.35,1.88.7,4.73,4.1,3.07,1.07-.66,1.44,2.68,1.94,2.42,3.61-.23,2.11-.04,3.91-.41,2.61-.48,1.67-.08,3.16-.22,3-1.67-1.46-2.62-2.42,1.34-2.75.19-1.84.12-2.42.45-3.6.38-2.11.04-2.14.13-.71-.88-.18-.33,2.06-1.38-1.84-3.22-2.14-.89-2.83,1.74-1.48-1.11-.27-1.8,2.22-1.77.96-3.24-2.81-1.11-2.7-.06-1.72.29-.94-1-.49-.8.62-1.26,2.51-2.27-1.12-2.95-3.1-.59-2.42.25-1.48-.88c-.08-.07-.31-.26-.6-.61.19-.6.91-1.88,1.68-2.96l.97-.84.85-.82.87-.7,1.16-1.13,1.01-1.29,2.28-1.5.99-.56,1.25-.88,1.14-.67,1.69-1.19,1.16-.9,1.22-.76,1.72-.97,1.94-.57,1.64-.3,3.31-.37,2.72-.45.65.16,1.81-.22,1.05.38,3.38.84.94-.04,1.25.86.32.29.41.99-.1.33-.67.98-.38,1.02-3.04.56h-1.74s-1.74-.17-1.74-.17l-1.95.8-4.4.81-1.66,1.06-.94.27-2.02.95-2.09,1.27-1.16-1.34-2.27,1.97,2.71,3.12,1.16-1.01.42.44.56-.54,1.8-1.03,1.83-.98,1.24-.35,1.54-.98,3.98-.73,1.71-.67,1.07.1,2.07.02,2.8-.49,1.38.45,1.8-.33,1.89.39,3.26-.6,1.14.47,1.08.81.18.99-.27,1.11-.96,1.55-1.2-.12-2.01-.12-2.85.39-2.9.53-3.06.83-2.28,1.26-7.81,1.44-2.64,1.41-.28-1.52-2.95.54.41,2.2,1.2,2.43,1.37.81,1.43.31.7.11.41-2.71,1.34-.72,7.88-1.45,2.21-1.27,2.69-.74,2.79-.51,2.34-.35,1.8.1,1.84.17,1.09.23,1.4.53,1.64.78,1.98.78.13.69-2.63,1.32-3.27,1.42-.99-.17-6.66-.02-2.54.44-2.75,1.37-2.03.79-1.38.7-2.08.72-1.01-.79-1.85,2.36.35.28-.28.25,1.98,2.26,1.69-1.48,2.29-.8,1.44-.72,2.03-.78,2.57-1.27,1.72-.32h6.15s3.55.6,3.55.6l.2.47-1.13,1.07-2.31,1.44-5.74.97-5.45,2.43-5.23,3.23,1.58,2.55,4.97-3.08,5-2.24,5.95-1.01,2.94-1.83,3.01-2.81-1.44-3.32,4.72-2.37-.84-4.55Z"/>
  <path class="cls-3" d="M170.76,151.54l-1.77-.24-1.94-1.19-.95-1.13-.69-.83.17-.29,4.03-4.09,1.12-.54,3.62-2.32,1.75-.77,2.21-.54-.32-1.3.42-1.35-.13-1.42-2.99.27.07.83-.21.67-2.13.92-2.51,1.61-.54-.09-.8-.25-.43,1.38-.13.06-.82-.73-.32.36-.98.74-.21.67.69.21-1.96,1.99.04-.34-.89-.09-2.48-.77v-.03s-2.5-1.62-2.5-1.62l-.45-.14-.15-.39-.18-.9.11-.36,1.61-1.93,1.34-.49,1.56-.92,1.74-1.57,1.52-1.08,1.61-.54,2.1-.98,2.46-.73,2.54-.93,3.2-2.46-1.83-2.38-2.84,2.18-2.01.74-2.48.74-1.99.92-.41-.34-.9-.28-.73-.54-1.77,2.42.46.34-.74.53-1.62,1.48-.39.24-.85-.26-.54-.48-.64-.44-1.32-2.24-.06-.72.58-1.87.91-.96,1.51-2.19,2.52-1.39,1.79-.91,1.61-.68,5.42-.94,3.24-.77,2.74-1.92-1.72-2.46-2.27,1.59-2.52.6-3.15.52-2.44.45-2.12.86-.8.41-.71.39-.32-1.14.16-.53.29-1.77,1.21-.8,3.92-2.09,2.71-1.67,3.38-1.32,5.16-1.17,3.91.34,3.21-.09,4.16,1.29.77.25,2.07.04,1.33.84.5.79.75.94.64,1.56.97,1.73.59,1.12.5,1.65.24,1.17.15,1.46.24,1.2.37,4.33.75,1.37.98,3.01.47,1.09.27,1.82.43,4.33.17,1.48-.06,1.54,1.06,1.82,2.57-.57-.59-2,.04-.9-.63-6.06-.33-2.29-.56-1.28-.99-3.05-.62-1.2-.33-3.8-.25-1.23-.15-1.46-.3-1.47-.59-1.98-1.65-3.07-.77-1.88-.87-1.07-.79-1.25-1.27-.86-1.42-.83-2.35-.05-5.08-1.57-3.54.09-4.21-.37-5.73,1.3-3.83,1.48-3.41,2.08-3.8,2.02-1.48.98-1.22,1.58-.16,2.46.98,2.29.09.51-1.42.78-1.69,2.49-1.31,1.38-.96,3.09.17,2.01,2,3.39.98.65.18.16-1.02,1.19-.99,1.24-.51,1.62.35,1.78.8,2.11,1.43.44.72.47-.03.63,4.35,1.35-.56.89-.15,1.54,1.38,1.82.98.92,1.9.59,2.85,1.37,1.31.1,1.03-.24M180.21,152.86v-.02s.14.05.14.05l1.05.49.58.57.83.96,1.94.92.21.64,1.96.99,1.13.37,2.89,1.47,1.43.46,3.22-.18-.37-2.98-2.49.14-.58-.18-2.83-1.44-1.17-.39-.75-.38-.23-.68-2.53-1.2-.46-.53-1.06-1.05-1.56-.74-1.56-.59-1.2-.07-2.06-.64-1.13-.85-1.32-2.07-.94.6-.63.33-.8.58-.69-.12-.55-.17-.89,2.86.64.2,2.1.38.48-.3.36-.25.07.07,1.21.92"/>
  <polyline class="cls-1" points="77.38 203.08 75.85 207.28 71.38 214.93 67.33 220.48 62.68 225.73"/>
  <polyline class="cls-1" points="80.68 203.83 77.38 211.18 75.85 216.43 72.73 221.68 71.68 223.48"/>
  <polyline class="cls-1" points="84.43 203.83 82.03 212.53 79.48 219.73 77.38 224.38"/>
  <path class="cls-1" d="M86.83,206.53l-1.05,7.58s-1.2,4.12-1.35,4.73-.9,4.65-.9,4.65"/>
  <polyline class="cls-1" points="91.03 202.33 89.98 213.66 90.13 219.28 90.13 223.48"/>
  <polyline class="cls-1" points="74.38 189.13 68.98 200.08 65.08 208.63 62.68 211.33"/>
  <polyline class="cls-1" points="77.38 191.08 75.13 199.63 70.93 208.78 67.78 214.41"/>
  <polyline class="cls-1" points="82.18 189.13 79.63 197.83 78.88 199.63"/>
  <path class="cls-1" d="M86.83,185.68s-2.25,9.28-2.4,9.59-2.25,4.96-2.25,4.96v1.05"/>
  <path class="cls-1" d="M91.63,185.68s-1.5,6.15-1.65,6.9-1.95,7.05-1.95,7.05c0,0-1.35.9-1.2,1.65"/>
  <polyline class="cls-1" points="93.58 202.33 94.18 210.43 94.18 215.01 94.93 218.53 95.38 221.68"/>
  <polyline class="cls-1" points="97.78 203.83 97.78 212.91 100.48 221.68 102.13 224.98"/>
  <path class="cls-1" d="M101.53,207.43l2.7,8.55,2.7,3.3s1.35.75,1.8,1.5,4.13,3.6,4.13,3.6"/>
  <polyline class="cls-1" points="64.78 215.91 59.98 220.48 54.73 225.73 50.23 228.73 49.33 229.03"/>
  <polyline class="cls-1" points="61.48 197.98 60.73 199.63 58.48 203.83 55.78 208.01 54.88 209.68"/>
  <polyline class="cls-1" points="62.68 188.08 61.48 192.88 60.88 194.38"/>
  <polyline class="cls-1" points="70.03 185.68 66.13 191.23 64.78 195.27 64.03 196.48"/>
  <polyline class="cls-1" points="107.2 207.43 109.18 212.01 111.43 215.01 113.68 216.58 114.73 217.18"/>
  <polyline class="cls-1" points="116.98 206.12 118.93 211.33 120.58 219.81 120.88 221.68 121.18 224.38 121.18 224.98"/>
  <polyline class="cls-1" points="125.23 215.91 125.98 219.81 127.03 225.73 128.98 227.98"/>
  <polyline class="cls-1" points="123.58 206.53 124.63 211.33 125.23 213.66"/>
  <polyline class="cls-1" points="130.03 203.83 130.78 213.66 132.13 218.83 133.33 225.73 133.93 226.33"/>
  <polyline class="cls-1" points="135.73 212.91 136.63 215.01 139.03 222.47 141.28 224.98 143.23 226.93"/>
  <polyline class="cls-1" points="135.73 204.58 139.48 209.68 144.13 215.91 148.18 221.68 150.28 224.38 153.88 225.73"/>
  <polyline class="cls-1" points="144.81 208.93 146.38 210.58 151.78 215.55 153.13 217.18 156.28 218.83 162.88 223.48 164.53 223.48 167.83 225.73"/>
  <path class="cls-1" d="M142.18,203.08l7.35,3.25,1.5,2.6,3.45,1.16,3.9,2.21,2.85,2.7,2.1.9s3.9,4.27,4.5,3.9,4.95,1.88,4.95,1.88l6,2.7,3,1.35"/>
  <polyline class="cls-1" points="168.73 212.01 171.73 214.41 179.23 218.83 186.58 223.48 190.18 224.38"/>
  <path class="cls-1" d="M182.71,214.11l5.07,3.08,2.4,1.01s4.83,2.96,5.41,2.78,1.64.71,1.64.71l2.7.79.9,1.01"/>
  <polyline class="cls-1" points="149.83 199.63 155.38 203.83 161.98 208.93 163.33 208.93 165.43 210.09"/>
  <path class="cls-1" d="M96.13,176.83c0,1.5-1.65,14.25-1.65,14.25l-.9,3.3-.6,2.1"/>
  <polyline class="cls-1" points="99.96 181.03 99.96 187.48 99.28 192.13 97.78 197.23 97.78 197.98"/>
  <polyline class="cls-1" points="104.83 184.86 103.26 192.96 103.26 193.48 102.13 198.69 102.13 201.28 102.13 202.33"/>
  <polyline class="cls-1" points="108.21 188.08 107.2 195.88 107.2 197.23 107.2 202.33 107.2 203.08 107.2 203.83"/>
  <polyline class="cls-1" points="112.87 191.23 112.14 195.96 111.69 200.83 111.69 203.83 112.28 205.48"/>
  <path class="cls-1" d="M116.98,186.66s.11,6.56,0,6.82,0,4.88,0,4.88l-.05,3.97.72,1.5"/>
  <path class="cls-1" d="M121.82,186.66l-.64,7.72s-.3,2.18,0,2.85,1.31,4.05,1.31,4.05l1.09,1.05"/>
  <polyline class="cls-1" points="126.43 181.03 126.43 189.51 127.11 192.17 127.67 194.38 128.57 197.98 129.47 199.63 130.03 200.23"/>
  <polyline class="cls-1" points="130.59 186.66 130.59 189.51 131.98 194.49 132.73 196.48 134.76 200.23 135.73 201.68"/>
  <path class="cls-1" d="M78.88,164.46s.08,1.13-.3,4.95-.45,4.12-.45,4.12l-1.42,4.65-.86,2.4-.64,2.33-.52,1.95"/>
  <polyline class="cls-1" points="83.53 167.01 83.08 173.83 82.63 176.83 80.91 182.01 80.53 184.18"/>
  <path class="cls-1" d="M88.56,164.76l-.9,6.22v2.7c0,.67-.83,4.88-.83,4.88v2.48"/>
  <path class="cls-1" d="M92.98,159.06s-.38,6.53-.38,6.83v4.8l-.3,2.21.3,1.16"/>
  <path class="cls-1" d="M97.78,161.68l-.3,1.42-.15,4.28s.23,2.55.45,2.85,1.09,2.17,1.09,2.17c0,0,.79,1.65,1.09,1.65"/>
  <path class="cls-1" d="M102.13,165.06s.38,2.25.53,2.81,1.05,2.86,1.57,3.93.6,3.31.6,3.31c0,0-.3,1.42,0,2.17s.52,3.3.52,3.3v.45"/>
  <polyline class="cls-1" points="108.66 165.06 108.66 170.46 109.33 173.53 109.78 176.83 110.38 179.61 110.91 183.28 111.36 185.12 111.69 185.68 111.69 186.09 112.28 188.91"/>
  <polyline class="cls-1" points="112.28 161.38 113.98 168.21 114.66 172.56 115.03 176.83 115.03 178.93 115.03 181.78 115.03 182.46 115.78 183.84 116.01 184.18"/>
  <polyline class="cls-1" points="75.51 141.66 73.26 149.53 72.58 152.68 71.23 153.72 70.71 154.63"/>
  <path class="cls-1" d="M80.53,142.93l-3.75,9.75s-1.05,5.63-.94,5.93-1.17,2.4-1.47,2.78-.52.67-.52.67l-.23,1.31-.52,1.09"/>
  <polyline class="cls-1" points="86.16 141.28 83.53 150.51 82.48 159.06 81.66 160.48 81.58 161.38 81.43 162.06"/>
  <path class="cls-1" d="M89.23,144.73s-.82,6.75-.67,6.94-.87,6.19-.87,6.19l-.87,3.53"/>
  <path class="cls-1" d="M92.98,137.38v10.35s-.45,1.72,0,2.4,1.58,4.8,1.58,4.8l.9,1.72,1.87,2.4"/>
  <path class="cls-1" d="M98.08,139.26l.56,6.83s.94,5.55,1.31,5.85,2.85,4.28,3.08,4.58,1.8,3.08,1.8,3.08l1.05,2.48.83,2.02"/>
  <polyline class="cls-1" points="104.16 133.78 104.16 142.93 106.33 149.76 107.7 153.72 108.66 155.46 109.41 157.03"/>
  <path class="cls-1" d="M108.66,140.61s.15,2.55.3,2.92,2.74,5.92,2.74,5.92l1.84,3.3,2.1,4.28,1.66,2.55"/>
  <polyline class="cls-1" points="111.69 138.36 112.56 141.66 115.48 147.28 117.66 149.76 120.06 153.06 121.56 154.26 122.32 154.93"/>
  <path class="cls-1" d="M89.86,120.6l-2.54,3.36-3,5.85s-1.72,4.35-2.4,5.4-2.62,3.6-2.62,3.6l-2.1,2.85"/>
  <path class="cls-1" d="M93.1,117.86l-.94,6.15s-1.05,1.74-1.5,3.02-2.64,5.32-2.63,5.92-1.06,3.67-1.06,3.67l-.81,1.73"/>
  <polyline class="cls-1" points="95.24 119.78 95.24 121.43 94.78 128.23 94.78 134.23 94.33 138.36 94.78 139.33"/>
  <path class="cls-1" d="M98.54,123.08l-.45,4.74s.52,5.7.56,6.75.79,4.42.79,4.8.52,1.42.52,1.42"/>
  <polyline class="cls-1" points="99.1 122.21 100.71 126.32 101.46 128.42 102.88 132.54 103.63 133.89 103.63 134.34 104.01 134.87"/>
  <path class="cls-1" d="M101.5,125.52l1.16-.79,3.04,7.2s1.28,2.1,1.88,3,.75,3.15.75,3.15"/>
  <polyline class="cls-1" points="116.46 162.06 117.01 167.87 118.78 174.06 120.36 180.58 121.05 182.46 121.78 183.21"/>
  <polyline class="cls-1" points="120.58 160.71 122.32 166.78 125.23 175.03 131.31 179.91 134.98 181.63"/>
  <polyline class="cls-1" points="133.16 184.86 137.08 193.48 138.88 197.98 140.16 198.88 141.66 198.88"/>
  <polyline class="cls-1" points="136.63 184.18 140.53 189.96 143.68 193.11 148.18 194.17 153.58 195.96 161.98 196.48 167.23 197.61"/>
  <polyline class="cls-1" points="140.61 183.21 145.93 188.08 151.93 190.63 165.43 191.23 170.23 191.87 171.58 191.87"/>
  <polyline class="cls-1" points="124.41 161.68 127.78 169.33 136.63 173.04 139.18 175.33 146.91 176.83 147.28 176.83"/>
  <path class="cls-1" d="M59.27,211.33l-6.64,8.59-6.14,7.46s-7.02,4.05-7.36,4.27"/>
  <polyline class="cls-1" points="55.33 195.58 52.18 201.28 48.58 206.53 42.73 209.68 41.98 209.68"/>
  <polyline class="cls-1" points="49.33 196.48 44.91 201.28 41.68 203.83 34.33 208.41"/>
  <polyline class="cls-1" points="41.98 197.98 33.73 203.08 24.73 207.43 23.31 208.11"/>
  <path class="cls-1" d="M70.71,144.02l-3.04,4.2-2.48,4.09-1.27,1.72s-.15.79-.23.9"/>
  <polyline class="cls-1" points="48.88 212.31 37.48 224.98 29.46 229.03 21.66 231.66"/>
  <polyline class="cls-1" points="39.13 212.91 26.76 223.48 15.58 229.86 12.43 231.66"/>
  <polyline class="cls-1" points="123.47 156.68 130.31 159.58 137.41 160.11 145.95 160.71"/>
  <polyline class="cls-2" points="91.88 94.81 90.6 97.41 88.78 101.02 85.76 102.89 79.77 106.49 72.74 106.8 69.04 106.57 66.88 107.18 66.48 109.96 67.96 111.17 69.42 112.3 70.09 112.63 75.05 116.64 79.06 117.85 78.9 121.48 79.13 124.59 76.16 129.13 74.49 132.26 70.15 135.94 69.45 139.48 69.24 141.08 72.96 142.1 76.3 140.21 77.63 138.07 80.3 134.87 81.91 132.66 85.52 131.66 87.85 129.57 90.31 127.12 93.66 126.52 95.2 127.26 96.86 128.66 99.67 130.26 102.07 134.13 106.39 137.25 108.08 139.87 110.61 142.61 112.88 144.68 116.36 142.61 116.36 140.74 113.22 135.8 111.71 133.2 111.47 131.32 110.09 130.67 109.78 128.94 109.53 125.37 110.05 121.05 111.92 117.98 117.4 116.04 119.29 113.97 122.63 111.9 122.19 110.31 121.5 108.56 116.69 108.96 111.28 107.76 107.21 106.02 105.81 104.22 104.81 102.22 102.2 100.22 100.47 98.15 100.2 97.08 99.21 91.44 97.17 89.02 94.79 88.6 93.72 89.53 91.61 95.01"/>
  <polyline class="cls-1" points="172.33 151.67 172.33 154.41 172.33 157.48"/>
  <path class="cls-1" d="M166.48,158.23l-5.48,3.15s-3.15,8.4-3.38,8.62,3.38,8.18,3.38,8.18l2.7,1.72,8.92-.6,6.38-7.28.08-5.4-1.72-3.52-1.12-2.4-2.17-.95-4.58-1.07h-1.65"/>
  <polyline class="cls-1" points="177.66 153.28 178.18 156.68 179.46 158.69 180.96 162.06"/>
  <path class="cls-1" d="M180.96,162.69l7.46-1.01,3.09,2.64,4.84,6.52s.96,4.33.96,4.78-2.81,6-2.81,6l-6.41,2.55s-1.97.84-2.36.67-4.22-.67-4.22-.67l-2.42-3.15-.79-1.41-.96-1.74"/>
  <path class="cls-1" d="M184.18,108.58l-1.47-2.85.7-7.7v-.9s-.68-3-.76-3.89-.63-10.65-.63-10.65l-6.37-8.77-1.32-.32-15.79,5.08-5.85,2.95,1.05,5.16-6.45.77-1.33,6.24-9.31,1.51-3.48-1.69-8.08-1.32-6.11,4.14s-4.54-2.84-5.36-2.84-3.01,1.43-3.01,1.43l-1.57.15-2.33,4.8-1.8.81"/>
  <polyline class="cls-1" points="133.16 136.78 137.41 142.93 142.63 147.73 150.43 150.09 154.49 150.73 153.73 148.76 156.09 149.48 160.48 150.09 163.63 148.32"/>
  <polyline class="cls-1" points="134.71 139.02 136 140.83 137.55 144.81 134.59 144.81 133.44 144.68 131.07 144.43 126.42 143.01 121.96 138.73 118.02 133.86"/>
  <polyline class="cls-1" points="135.84 103.18 140.61 109.37 146.57 112.87"/>
  <polyline class="cls-1" points="148.4 101.72 151.41 103.97 154.49 105.32"/>
  <polyline class="cls-1" points="170.34 80.42 172.63 86.58 174.32 92.34"/>
  <path class="cls-1" d="M154.48-13.53l-2.73.71-1.64.61-19.59,7.99-3.04.64-4.66-1.17-4.96.45-3.31,1.67-4.68,1.57s-1.97,1.16-3.86,2.38-5.31,1.55-5.31,1.55l-6.54,1.87-6.22.94s-4.02,1.08-5.08,1.65c-1.06.57-8.48,9.96-9.21,10.58s-1.1,1.02-1.1,1.02l-1.81,3.63-1.71,3.19-3.57,2.4-4.37,1.16-6.86,5.56,2.88,2.52,3.15,4.13s3.08,3.93,4.4,4.51c1.31.58,2.38,2.55,2.38,2.55l5.58,1.95,2.36-3.67,6.06-9.03,1.56.41,1.05-1.56,2.58-4.44,4.51-1.48,2.3-1.07,2.66-1.18,5.7-2.36,1.72-.53,5.72,1.92,4.1-5.43,3.28-1.83,4.81-2.46,5.46-2.03,2.52-.45,4.45.22,25.05-10.62,1.7.32,3.12-3.23,6.3,4.58,5.87-1.2,3.58-.15,3.75-1.2,3.45-1.95,3.45-.9,1.35-.3"/>
  <path class="cls-1" d="M57.87,31.92s-3.47-9.28-3.65-11.53.1-4.73.3-6.08-.56-11.55.59-11.55,1.82-4.14,1.82-4.14"/>
  <polyline class="cls-1" points="195.28 9.31 199.24 -.75 201.04 -2.64"/>
  <polyline class="cls-1" points="182.38 27.29 187.63 23.08 192.28 24.26 198.16 33.28 198.16 48 196.99 54.01 191.98 58.9"/>
  <polyline class="cls-1" points="226.63 -9.32 224.98 2.53 222.28 14.67 217.63 24.26 214.18 30.13 211.78 33.88 211.48 37.9 211.33 40.33 214.03 45.02 214.48 50.53"/>
  <path class="cls-1" d="M217.48,45.02l7.05,6.86-3.53,10.5-3.52,6.6-9.45-1.2-4.65-2.25-2.34-3.72-.81-5.74.81-5.54,2.34-2.54s2.85-.23,3.6-1.24,3.6-1.72,3.6-1.72l-4.94-4.84-1.81-2.28s-1.2-1.44-1.35-2.51-.6-3.97-.6-3.97l-3-6.54-.72-1.8-1.17-5.1v-.82l-1.35-5.96-1.43-7.54-1.14-6.3"/>
  <polyline class="cls-1" points="187.32 39.43 187.32 36.43 190.27 37.9 190.27 40.99 190.27 45.02 186.58 48 186.58 50.98"/>
</svg>