<?xml version="1.0" encoding="UTF-8"?>
<svg id="_레이어_1" data-name="레이어 1" xmlns="http://www.w3.org/2000/svg" viewBox="0 0 225.73 225.73">
  <defs>
    <style>
      .cls-1 {
        fill: none;
        stroke: #2f318e;
        stroke-miterlimit: 10;
        stroke-width: 3px;
      }

      .cls-2 {
        fill: #2f318e;
        stroke-width: 0px;
      }
    </style>
  </defs>
  <path class="cls-2" d="M75.01,168.11l-3.39-1.32-1.65-.78-1.03-.4.65-1.04.53-2.21-.51-2.77-2.18-1.63-2.45-1.07-3.56.66-1.78-.36.57-.82.56-1.8-1.08-2.61-.88-.81-2.33-1.62-1.51.06-2.73-.67-1.65-.6-1.98.24-.71-.18-3.26.54-3.28.37-1.87.34-2.33.67-2.24,1.22-1.35.84-1.3,1-1.48,1.05-1.14.67-1.21.86-.97.55-2.81,1.83-1.13,1.47-.92.91-.86.7-.94.91-1.04.9-.23.25c-3.31,4.54-2.37,5.84-2.02,6.32.76,1.05,1.44,1.54,1.57,1.63l2.49,1.49,2.97-.31.36.07-.96.87-1.6,3.27,1.44,2.34,2.35,2.54,2.87-.53,1.36.03-2.35,1.88.7,4.73,4.1,3.07,1.07-.66,1.44,2.68,1.94,2.42,3.61-.23,2.11-.04,3.91-.41,2.61-.48,1.67-.08,3.16-.22,3-1.67-1.46-2.62-2.42,1.34-2.75.19-1.84.12-2.42.45-3.6.38-2.11.04-2.14.13-.71-.88-.18-.33,2.06-1.38-1.84-3.22-2.14-.89-2.83,1.74-1.48-1.11-.27-1.8,2.22-1.77.96-3.24-2.81-1.11-2.7-.06-1.72.29-.94-1-.49-.8.62-1.26,2.51-2.27-1.12-2.95-3.1-.59-2.42.25-1.48-.88c-.08-.07-.31-.26-.6-.61.19-.6.91-1.88,1.68-2.96l.97-.84.85-.82.87-.7,1.16-1.13,1.01-1.29,2.28-1.5.99-.56,1.25-.88,1.14-.67,1.69-1.19,1.16-.9,1.22-.76,1.72-.97,1.94-.57,1.64-.3,3.31-.37,2.72-.45.65.16,1.81-.22,1.05.38,3.38.84.94-.04,1.25.86.32.29.41.99-.1.33-.67.98-.38,1.02-3.04.56h-1.74s-1.74-.17-1.74-.17l-1.95.8-4.4.81-1.66,1.06-.94.27-2.02.95-2.09,1.27-1.16-1.34-2.27,1.97,2.71,3.12,1.16-1.01.42.44.56-.54,1.8-1.03,1.83-.98,1.24-.35,1.54-.98,3.98-.73,1.71-.67,1.07.1,2.07.02,2.8-.49,1.38.45,1.8-.33,1.89.39,3.26-.6,1.14.47,1.08.81.18.99-.27,1.11-.96,1.55-1.2-.12-2.01-.12-2.85.39-2.9.53-3.06.83-2.28,1.26-7.81,1.44-2.64,1.41-.28-1.52-2.95.54.41,2.2,1.2,2.43,1.37.81,1.43.31.7.11.41-2.71,1.34-.72,7.88-1.45,2.21-1.27,2.69-.74,2.79-.51,2.34-.35,1.8.1,1.84.17,1.09.23,1.4.53,1.64.78,1.98.78.13.69-2.63,1.32-3.27,1.42-.99-.17-6.66-.02-2.54.44-2.75,1.37-2.03.79-1.38.7-2.08.72-1.01-.79-1.85,2.36.35.28-.28.25,1.98,2.26,1.69-1.48,2.29-.8,1.44-.72,2.03-.78,2.57-1.27,1.72-.32h6.15s3.55.6,3.55.6l.2.47-1.13,1.07-2.31,1.44-5.74.97-5.45,2.43-5.23,3.23,1.58,2.55,4.97-3.08,5-2.24,5.95-1.01,2.94-1.83,3.01-2.81-1.44-3.32,4.72-2.37-.84-4.55Z"/>
  <path class="cls-2" d="M170.76,151.54l-1.77-.24-1.94-1.19-.95-1.13-.69-.83.17-.29,4.03-4.09,1.12-.54,3.62-2.32,1.75-.77,2.21-.54-.32-1.3.42-1.35-.13-1.42-2.99.27.07.83-.21.67-2.13.92-2.51,1.61-.54-.09-.8-.25-.43,1.38-.13.06-.82-.73-.32.36-.98.74-.21.67.69.21-1.96,1.99.04-.34-.89-.09-2.48-.77v-.03s-2.5-1.62-2.5-1.62l-.45-.14-.15-.39-.18-.9.11-.36,1.61-1.93,1.34-.49,1.56-.92,1.74-1.57,1.52-1.08,1.61-.54,2.1-.98,2.46-.73,2.54-.93,3.2-2.46-1.83-2.38-2.84,2.18-2.01.74-2.48.74-1.99.92-.41-.34-.9-.28-.73-.54-1.77,2.42.46.34-.74.53-1.62,1.48-.39.24-.85-.26-.54-.48-.64-.44-1.32-2.24-.06-.72.58-1.87.91-.96,1.51-2.19,2.52-1.39,1.79-.91,1.61-.68,5.42-.94,3.24-.77,2.74-1.92-1.72-2.46-2.27,1.59-2.52.6-3.15.52-2.44.45-2.12.86-.8.41-.71.39-.32-1.14.16-.53.29-1.77,1.21-.8,3.92-2.09,2.71-1.67,3.38-1.32,5.16-1.17,3.91.34,3.21-.09,4.16,1.29.77.25,2.07.04,1.33.84.5.79.75.94.64,1.56.97,1.73.59,1.12.5,1.65.24,1.17.15,1.46.24,1.2.37,4.33.75,1.37.98,3.01.47,1.09.27,1.82.43,4.33.17,1.48-.06,1.54,1.06,1.82,2.57-.57-.59-2,.04-.9-.63-6.06-.33-2.29-.56-1.28-.99-3.05-.62-1.2-.33-3.8-.25-1.23-.15-1.46-.3-1.47-.59-1.98-1.65-3.07-.77-1.88-.87-1.07-.79-1.25-1.27-.86-1.42-.83-2.35-.05-5.08-1.57-3.54.09-4.21-.37-5.73,1.3-3.83,1.48-3.41,2.08-3.8,2.02-1.48.98-1.22,1.58-.16,2.46.98,2.29.09.51-1.42.78-1.69,2.49-1.31,1.38-.96,3.09.17,2.01,2,3.39.98.65.18.16-1.02,1.19-.99,1.24-.51,1.62.35,1.78.8,2.11,1.43.44.72.47-.03.63,4.35,1.35-.56.89-.15,1.54,1.38,1.82.98.92,1.9.59,2.85,1.37,1.31.1,1.03-.24M180.21,152.86v-.02s.14.05.14.05l1.05.49.58.57.83.96,1.94.92.21.64,1.96.99,1.13.37,2.89,1.47,1.43.46,3.22-.18-.37-2.98-2.49.14-.58-.18-2.83-1.44-1.17-.39-.75-.38-.23-.68-2.53-1.2-.46-.53-1.06-1.05-1.56-.74-1.56-.59-1.2-.07-2.06-.64-1.13-.85-1.32-2.07-.94.6-.63.33-.8.58-.69-.12-.55-.17-.89,2.86.64.2,2.1.38.48-.3.36-.25.07.07,1.21.92"/>
  <path class="cls-1" d="M30.42,157.07l-1.77-3.77-1.18-2-.82-2.82-.71-2.35-.82-3.06v-7.3l-1.77-3.06,5.06-1.96h5.73l4.24-.38,4.79.46,5.18.31,5.26.24,9.81-.16,4.79-.08,4.24.63,5.83-.24,4.76.31,1.96-.08,4-.08,3.53.47,3.61.16,2.98.08h2.2l2.75-.08,5.22.27,5.77,10,5.77,9.53,3.41,4.94,4.24,8.24,1.41,4.83,2.24,7.18,1.53,5.41,2.13,6.36,3.17,6,2.47,3.18,2.12,3.99-14.83,1.53-5.56.47h-4.09l-5.88,1.06s-.94-.47-4.83-.59l-3.88-.12-11.06-.94h-11.53l-4.59-.35-4.12-.59-3.53-.35-5.3-.35-3.54-.35-4.24-5.34-1.65-2.68"/>
  <path class="cls-1" d="M144.35,202.85l6.83-2,2-1.06,7.83-1.52,6.29-2.71,4.43-1.77,7.46-3.18,6-1.65,5.53-3.06,2.82-2.82,3.06-2.94-.59-1.88h-6.71s-5.77-.71-6.36-.71h-4.71c-.35,0-4.35-.7-4.47,0s-3.53.35-4.12.35h-4.83c-.35,0-3.75.12-3.82.12s-4.89-.12-5.24-.12-3.67-.24-3.84-.24-3.34-.43-3.34-.43h-11.42l-2.82-.51h-3.53"/>
  <path class="cls-1" d="M164.92,146.78h-1.12l-5.39-.84h-11.04l-4.84.84-2.52-3.49-3.37-6.97-.63-2.36-1.58-4.16v-2.47l-.82-3.15v-10.8l3.85-3.83h1.12l4.5-1.01s1.58-.67,2.03-.79,5.62,0,5.62,0l4.5-.05s4.28.61,4.84.61,4.39-.61,4.39-.61h4.28l1.08-.34.84.62.93.77.65.81v.28"/>
  <path class="cls-1" d="M134.42,112.57l3.33,2.54h3.49l2.87.39h5.29s1.12.11,1.29,0,1.88.11,2.24,0,2.15.05,2.15.05h3.99l.85-.36,1.34.08,1.29-.17.62-.28"/>
  <path class="cls-1" d="M158.25,83.63l-3.11,1.95-1.65,1.54-.56,2.59v.86l1.47.9s1.2.83,1.2.94.79.94.79.94l1.35,1.12.79.9.08,1.24-.67,1.2-.94,1.16-1.24.83-.79.94-.15.45"/>
  <path class="cls-1" d="M165.26,113.07h-1.01l-.26.04s-1.26.21-1.42.22-1.69,0-1.69,0l-1.31-.22s-1.99.15-2.47.22-.86,0-.86,0l-2.55.23-1.84-.23-1.91.23-3.08-.23-3.15,1.5h-2.85"/>
  <path class="cls-1" d="M65.88,158.87l3.54-2.14,5.91-1.07,8.72.67-1.65,8.87,7.05,1.58,1.74,3.96.79,5.98-.96,1.61-1.24,2.03-3.21,1.52-4.44.56s-2.36.22-2.7.34-2.76.17-2.76.17l-2.31-.34-2.64-.96s-.39-.39-.62-.67-1.12-1.29-1.12-1.29"/>
  <path class="cls-1" d="M142.95,199.28l3.15-.64,1.65-.56,2.36-.97,2.55-.98s2.33-.97,2.78-1.2,3.64-1.65,3.64-1.65l1.8-.75,2.84-1.05,3.76-1.91,4.09-.97s1.24-.94,1.39-1.01,2.4-1.39,2.4-1.39l1.31-.64,3.38-1.43,1.54-.75.94-.9v-.53l-7.05-.34-2.25-.19-3.56.22-2.78.22s-2.29.11-2.4.15-3.6.45-3.6.45l-4.65-.41c-.49,0-3.82.11-3.82.11l-2.96.11-2.51-.15h-2.92l-1.72-.04s-2.48.08-2.62.08-1.69.04-1.69.04l-1.69-.26-1.84.04"/>
  <polyline class="cls-1" points="134.77 186.11 137.77 184.13 139.61 183.57 140.88 181.73"/>
  <path class="cls-1" d="M147.86,182.52l-.45.41-.71.99-.45.92-.9,1.26-.64.76s-1.76,1.31-1.88,1.35-2.1,1.2-2.1,1.2l-3.82,1.83"/>
  <path class="cls-1" d="M139.97,195.69l4.1-1.92,5.02-2.52s1.61-1.12,1.73-1.19,1.5-1.09,1.61-1.12,2.06-2.05,2.06-2.05c0,0,.88-.65,1.05-.78s1.58-1.53,1.58-1.53c0,0,.49-1.2.6-1.27s1.53-.97,1.53-.97"/>
  <path class="cls-1" d="M135.03,186.88l7.54-.58,4.54.79,4.54-.21,4.54-.58s2.35-.04,3.07,0,4.02,0,4.02,0l1.76-.2,3.98-.18h2.7s1.65-.15,1.8-.19,1.54,0,1.54,0l1.61-.19"/>
  <polyline class="cls-1" points="136.91 190.17 148.72 191.7 151.5 191.93 154.2 191.93 156.3 192.23 158.21 192.23 160.5 192.23 162.22 191.63 164.26 191.2"/>
</svg>