<?xml version="1.0" encoding="UTF-8"?>
<svg id="_레이어_1" data-name="레이어 1" xmlns="http://www.w3.org/2000/svg" viewBox="0 0 225.73 225.73">
  <defs>
    <style>
      .cls-1 {
        fill: none;
        stroke: #2f318e;
        stroke-miterlimit: 10;
        stroke-width: 3px;
      }

      .cls-2 {
        fill: #2f318e;
        stroke-width: 0px;
      }
    </style>
  </defs>
  <path class="cls-2" d="M75.01,168.11l-3.39-1.32-1.65-.78-1.03-.4.65-1.04.53-2.21-.51-2.77-2.18-1.63-2.45-1.07-3.56.66-1.78-.36.57-.82.56-1.8-1.08-2.61-.88-.81-2.33-1.62-1.51.06-2.73-.67-1.65-.6-1.98.24-.71-.18-3.26.54-3.28.37-1.87.34-2.33.67-2.24,1.22-1.35.84-1.3,1-1.48,1.05-1.14.67-1.21.86-.97.55-2.81,1.83-1.13,1.47-.92.91-.86.7-.94.91-1.04.9-.23.25c-3.31,4.54-2.37,5.84-2.02,6.32.76,1.05,1.44,1.54,1.57,1.63l2.49,1.49,2.97-.31.36.07-.96.87-1.6,3.27,1.44,2.34,2.35,2.54,2.87-.53,1.36.03-2.35,1.88.7,4.73,4.1,3.07,1.07-.66,1.44,2.68,1.94,2.42,3.61-.23,2.11-.04,3.91-.41,2.61-.48,1.67-.08,3.16-.22,3-1.67-1.46-2.62-2.42,1.34-2.75.19-1.84.12-2.42.45-3.6.38-2.11.04-2.14.13-.71-.88-.18-.33,2.06-1.38-1.84-3.22-2.14-.89-2.83,1.74-1.48-1.11-.27-1.8,2.22-1.77.96-3.24-2.81-1.11-2.7-.06-1.72.29-.94-1-.49-.8.62-1.26,2.51-2.27-1.12-2.95-3.1-.59-2.42.25-1.48-.88c-.08-.07-.31-.26-.6-.61.19-.6.91-1.88,1.68-2.96l.97-.84.85-.82.87-.7,1.16-1.13,1.01-1.29,2.28-1.5.99-.56,1.25-.88,1.14-.67,1.69-1.19,1.16-.9,1.22-.76,1.72-.97,1.94-.57,1.64-.3,3.31-.37,2.72-.45.65.16,1.81-.22,1.05.38,3.38.84.94-.04,1.25.86.32.29.41.99-.1.33-.67.98-.38,1.02-3.04.56h-1.74s-1.74-.17-1.74-.17l-1.95.8-4.4.81-1.66,1.06-.94.27-2.02.95-2.09,1.27-1.16-1.34-2.27,1.97,2.71,3.12,1.16-1.01.42.44.56-.54,1.8-1.03,1.83-.98,1.24-.35,1.54-.98,3.98-.73,1.71-.67,1.07.1,2.07.02,2.8-.49,1.38.45,1.8-.33,1.89.39,3.26-.6,1.14.47,1.08.81.18.99-.27,1.11-.96,1.55-1.2-.12-2.01-.12-2.85.39-2.9.53-3.06.83-2.28,1.26-7.81,1.44-2.64,1.41-.28-1.52-2.95.54.41,2.2,1.2,2.43,1.37.81,1.43.31.7.11.41-2.71,1.34-.72,7.88-1.45,2.21-1.27,2.69-.74,2.79-.51,2.34-.35,1.8.1,1.84.17,1.09.23,1.4.53,1.64.78,1.98.78.13.69-2.63,1.32-3.27,1.42-.99-.17-6.66-.02-2.54.44-2.75,1.37-2.03.79-1.38.7-2.08.72-1.01-.79-1.85,2.36.35.28-.28.25,1.98,2.26,1.69-1.48,2.29-.8,1.44-.72,2.03-.78,2.57-1.27,1.72-.32h6.15s3.55.6,3.55.6l.2.47-1.13,1.07-2.31,1.44-5.74.97-5.45,2.43-5.23,3.23,1.58,2.55,4.97-3.08,5-2.24,5.95-1.01,2.94-1.83,3.01-2.81-1.44-3.32,4.72-2.37-.84-4.55Z"/>
  <path class="cls-2" d="M170.76,151.54l-1.77-.24-1.94-1.19-.95-1.13-.69-.83.17-.29,4.03-4.09,1.12-.54,3.62-2.32,1.75-.77,2.21-.54-.32-1.3.42-1.35-.13-1.42-2.99.27.07.83-.21.67-2.13.92-2.51,1.61-.54-.09-.8-.25-.43,1.38-.13.06-.82-.73-.32.36-.98.74-.21.67.69.21-1.96,1.99.04-.34-.89-.09-2.48-.77v-.03s-2.5-1.62-2.5-1.62l-.45-.14-.15-.39-.18-.9.11-.36,1.61-1.93,1.34-.49,1.56-.92,1.74-1.57,1.52-1.08,1.61-.54,2.1-.98,2.46-.73,2.54-.93,3.2-2.46-1.83-2.38-2.84,2.18-2.01.74-2.48.74-1.99.92-.41-.34-.9-.28-.73-.54-1.77,2.42.46.34-.74.53-1.62,1.48-.39.24-.85-.26-.54-.48-.64-.44-1.32-2.24-.06-.72.58-1.87.91-.96,1.51-2.19,2.52-1.39,1.79-.91,1.61-.68,5.42-.94,3.24-.77,2.74-1.92-1.72-2.46-2.27,1.59-2.52.6-3.15.52-2.44.45-2.12.86-.8.41-.71.39-.32-1.14.16-.53.29-1.77,1.21-.8,3.92-2.09,2.71-1.67,3.38-1.32,5.16-1.17,3.91.34,3.21-.09,4.16,1.29.77.25,2.07.04,1.33.84.5.79.75.94.64,1.56.97,1.73.59,1.12.5,1.65.24,1.17.15,1.46.24,1.2.37,4.33.75,1.37.98,3.01.47,1.09.27,1.82.43,4.33.17,1.48-.06,1.54,1.06,1.82,2.57-.57-.59-2,.04-.9-.63-6.06-.33-2.29-.56-1.28-.99-3.05-.62-1.2-.33-3.8-.25-1.23-.15-1.46-.3-1.47-.59-1.98-1.65-3.07-.77-1.88-.87-1.07-.79-1.25-1.27-.86-1.42-.83-2.35-.05-5.08-1.57-3.54.09-4.21-.37-5.73,1.3-3.83,1.48-3.41,2.08-3.8,2.02-1.48.98-1.22,1.58-.16,2.46.98,2.29.09.51-1.42.78-1.69,2.49-1.31,1.38-.96,3.09.17,2.01,2,3.39.98.65.18.16-1.02,1.19-.99,1.24-.51,1.62.35,1.78.8,2.11,1.43.44.72.47-.03.63,4.35,1.35-.56.89-.15,1.54,1.38,1.82.98.92,1.9.59,2.85,1.37,1.31.1,1.03-.24M180.21,152.86v-.02s.14.05.14.05l1.05.49.58.57.83.96,1.94.92.21.64,1.96.99,1.13.37,2.89,1.47,1.43.46,3.22-.18-.37-2.98-2.49.14-.58-.18-2.83-1.44-1.17-.39-.75-.38-.23-.68-2.53-1.2-.46-.53-1.06-1.05-1.56-.74-1.56-.59-1.2-.07-2.06-.64-1.13-.85-1.32-2.07-.94.6-.63.33-.8.58-.69-.12-.55-.17-.89,2.86.64.2,2.1.38.48-.3.36-.25.07.07,1.21.92"/>
  <path class="cls-1" d="M176.83,150.07s4.35,32.17-3.83,38.55"/>
  <polyline class="cls-1" points="160.33 87.89 159.88 92.02 162.16 92.84 166.03 92.02 169.18 89.32 168.66 86.32 165.73 85.19 162.16 85.27 159.88 86.77 159.06 88.42"/>
  <polygon class="cls-1" points="156.96 91.12 151.26 93.37 148.26 96.35 146.31 99.07 146.31 101.84 149.46 102.22 152.98 103.12 156.36 100.57 157.56 99.14 158.46 96.35 158.46 94.79 159.36 92.84 159.36 91.12 156.96 91.12"/>
  <path class="cls-1" d="M159.06,86.92l-2.47-3.08-3.75-3.08-7.88-.67-1.88,2.7-1.42,4.12,1.72,2.1,6.53.45h6.97l1.58-.45.9-1.95v-1.88l-1.42-3.98-2.03-4.42-.3-3.45,2.47-1.72,3.45-.45,2.59,1.28,1.84,3.22-.15,2.91-.9,1.89s-.28.98-.93,1.58-2.3,1.88-2.3,1.88l-.53.52h-.53"/>
  <path class="cls-1" d="M166.78,84.43v-4.12l1.2-3.9s1.51-3.75,1.84-3.97,3.18-2.55,3.18-2.55l3.83,1.73,3.23,3.15.97,3.81-2.1,3.47-3.43,1.42s.06.88-1.59.97-2.7.31-2.7.31c0,0-.89.22-1.38.45s-1.02.38-1.02.38l-.74.52"/>
  <path class="cls-1" d="M170.53,87.46h10.5l.97.8-.07,2.1-1.87,2.47-2.08,2.17s-2.98,1.05-3.46,1.05h-1s-1.2-1.35-1.5-1.58-1.12-1.65-1.12-1.65l-.38-2.02v-2.1l-.71-1.25"/>
  <path class="cls-1" d="M160.78,93.89c-.22.23.67,6.38.67,6.38l1.88,2.85,2.62,1.05,4.65-1.05s1.65-.08,1.88-1.05,1.2-4.05.83-4.95-4.12-5.35-4.12-5.35l-.38-.35-.9-.3"/>
  <path class="cls-1" d="M169.82,103.87s.77,2.47.82,2.7.77,2.24.77,2.24l.41,1.31"/>
  <polyline class="cls-1" points="177.68 163.55 175.5 158.82 173.01 156.74 168.96 156.35 166.2 159.38 171.6 162.48 173.57 164 176.55 164.22 177.68 164.22"/>
  <path class="cls-1" d="M177.18,179.19l4.99-5.18,5.74-2.98,6.64,3.26s.79.73.62.82-11.25,5.43-11.25,5.43l-.79-.28-3.77-1.07-1.69,1.35"/>
  <path class="cls-1" d="M60.84,182.05l-3.18,3.28-.19,5.05-.22,4.27-.23,3.04,2.81,4.84,3.38,1.24,4.61,2.14,6.53,1.46,3.26.92,7.2,1.22,12.15-3.26,3.04-2.36,1.69-6.75v-4.5l.56-5.74-1.69-7.31-.34-3.38-.34-10.69-.11-1.58.97-23.03,1.5-4.95.71-7.05,2.03-5.25v-8.25l-1.05-2.55-3.28-2.76-8.27-1.14h-12.9l-5.85-1.2s-5.7-.15-6.15,0-3.9.75-3.9.75l-4.63.9-3.47.69-2.25,1.71-.9,1.05s-.6,2.4-.6,3,.6,3.9.6,3.9l1.65,4.5s.6,1.2.6,2.25.15,1.95.15,1.95l1.05,6.15-.15,4.2s.15,1.65.15,2.55v8.7l-.17,2.5"/>
  <path class="cls-1" d="M55.63,114.82l2.4,3.45,3,1.35s2.55.9,3.3,1.05,5.7,1.05,5.7,1.05c0,0,5.7,1.35,6.45,1.35h5.1s4.43.45,5.74,0,5.21-1.5,5.21-1.5l3.18-1.5,1.92-1.8,1.95-1.8s.67-.6,1.16-.75"/>
  <path class="cls-1" d="M94.93,150.07l-.9,6.28s.15,1.34,0,2.25,0,6.46,0,6.46c0,0-.15,3.9,0,4.28s.9,5.17.9,5.17c0,0,.07,2.85.78,3.3s1.62,5.25,1.62,5.25v9.3"/>
  <path class="cls-1" d="M96.96,196.04s-1.72,2.78-1.8,3.15-1.58,2.17-2.47,2.55-3.45,1.12-3.45,1.12c0,0-2.55.08-3.38.23s-2.48,0-2.48,0c0,0-1.88.08-2.32,0s-2.03-.98-2.7-1.05-1.95-.38-1.95-.38l-2.03-.6-1.95-.45"/>
</svg>