<?xml version="1.0" encoding="UTF-8"?>
<svg id="_레이어_1" data-name="레이어 1" xmlns="http://www.w3.org/2000/svg" viewBox="0 0 225.73 225.73">
  <defs>
    <style>
      .cls-1 {
        fill: none;
        stroke: #2f318e;
        stroke-miterlimit: 10;
        stroke-width: 3px;
      }

      .cls-2 {
        fill: #2f318e;
        stroke-width: 0px;
      }
    </style>
  </defs>
  <path class="cls-2" d="M75.01,168.11l-3.39-1.32-1.65-.78-1.03-.4.65-1.04.53-2.21-.51-2.77-2.18-1.63-2.45-1.07-3.56.66-1.78-.36.57-.82.56-1.8-1.08-2.61-.88-.81-2.33-1.62-1.51.06-2.73-.67-1.65-.6-1.98.24-.71-.18-3.26.54-3.28.37-1.87.34-2.33.67-2.24,1.22-1.35.84-1.3,1-1.48,1.05-1.14.67-1.21.86-.97.55-2.81,1.83-1.13,1.47-.92.91-.86.7-.94.91-1.04.9-.23.25c-3.31,4.54-2.37,5.84-2.02,6.32.76,1.05,1.44,1.54,1.57,1.63l2.49,1.49,2.97-.31.36.07-.96.87-1.6,3.27,1.44,2.34,2.35,2.54,2.87-.53,1.36.03-2.35,1.88.7,4.73,4.1,3.07,1.07-.66,1.44,2.68,1.94,2.42,3.61-.23,2.11-.04,3.91-.41,2.61-.48,1.67-.08,3.16-.22,3-1.67-1.46-2.62-2.42,1.34-2.75.19-1.84.12-2.42.45-3.6.38-2.11.04-2.14.13-.71-.88-.18-.33,2.06-1.38-1.84-3.22-2.14-.89-2.83,1.74-1.48-1.11-.27-1.8,2.22-1.77.96-3.24-2.81-1.11-2.7-.06-1.72.29-.94-1-.49-.8.62-1.26,2.51-2.27-1.12-2.95-3.1-.59-2.42.25-1.48-.88c-.08-.07-.31-.26-.6-.61.19-.6.91-1.88,1.68-2.96l.97-.84.85-.82.87-.7,1.16-1.13,1.01-1.29,2.28-1.5.99-.56,1.25-.88,1.14-.67,1.69-1.19,1.16-.9,1.22-.76,1.72-.97,1.94-.57,1.64-.3,3.31-.37,2.72-.45.65.16,1.81-.22,1.05.38,3.38.84.94-.04,1.25.86.32.29.41.99-.1.33-.67.98-.38,1.02-3.04.56h-1.74s-1.74-.17-1.74-.17l-1.95.8-4.4.81-1.66,1.06-.94.27-2.02.95-2.09,1.27-1.16-1.34-2.27,1.97,2.71,3.12,1.16-1.01.42.44.56-.54,1.8-1.03,1.83-.98,1.24-.35,1.54-.98,3.98-.73,1.71-.67,1.07.1,2.07.02,2.8-.49,1.38.45,1.8-.33,1.89.39,3.26-.6,1.14.47,1.08.81.18.99-.27,1.11-.96,1.55-1.2-.12-2.01-.12-2.85.39-2.9.53-3.06.83-2.28,1.26-7.81,1.44-2.64,1.41-.28-1.52-2.95.54.41,2.2,1.2,2.43,1.37.81,1.43.31.7.11.41-2.71,1.34-.72,7.88-1.45,2.21-1.27,2.69-.74,2.79-.51,2.34-.35,1.8.1,1.84.17,1.09.23,1.4.53,1.64.78,1.98.78.13.69-2.63,1.32-3.27,1.42-.99-.17-6.66-.02-2.54.44-2.75,1.37-2.03.79-1.38.7-2.08.72-1.01-.79-1.85,2.36.35.28-.28.25,1.98,2.26,1.69-1.48,2.29-.8,1.44-.72,2.03-.78,2.57-1.27,1.72-.32h6.15s3.55.6,3.55.6l.2.47-1.13,1.07-2.31,1.44-5.74.97-5.45,2.43-5.23,3.23,1.58,2.55,4.97-3.08,5-2.24,5.95-1.01,2.94-1.83,3.01-2.81-1.44-3.32,4.72-2.37-.84-4.55Z"/>
  <path class="cls-2" d="M170.76,151.54l-1.77-.24-1.94-1.19-.95-1.13-.69-.83.17-.29,4.03-4.09,1.12-.54,3.62-2.32,1.75-.77,2.21-.54-.32-1.3.42-1.35-.13-1.42-2.99.27.07.83-.21.67-2.13.92-2.51,1.61-.54-.09-.8-.25-.43,1.38-.13.06-.82-.73-.32.36-.98.74-.21.67.69.21-1.96,1.99.04-.34-.89-.09-2.48-.77v-.03s-2.5-1.62-2.5-1.62l-.45-.14-.15-.39-.18-.9.11-.36,1.61-1.93,1.34-.49,1.56-.92,1.74-1.57,1.52-1.08,1.61-.54,2.1-.98,2.46-.73,2.54-.93,3.2-2.46-1.83-2.38-2.84,2.18-2.01.74-2.48.74-1.99.92-.41-.34-.9-.28-.73-.54-1.77,2.42.46.34-.74.53-1.62,1.48-.39.24-.85-.26-.54-.48-.64-.44-1.32-2.24-.06-.72.58-1.87.91-.96,1.51-2.19,2.52-1.39,1.79-.91,1.61-.68,5.42-.94,3.24-.77,2.74-1.92-1.72-2.46-2.27,1.59-2.52.6-3.15.52-2.44.45-2.12.86-.8.41-.71.39-.32-1.14.16-.53.29-1.77,1.21-.8,3.92-2.09,2.71-1.67,3.38-1.32,5.16-1.17,3.91.34,3.21-.09,4.16,1.29.77.25,2.07.04,1.33.84.5.79.75.94.64,1.56.97,1.73.59,1.12.5,1.65.24,1.17.15,1.46.24,1.2.37,4.33.75,1.37.98,3.01.47,1.09.27,1.82.43,4.33.17,1.48-.06,1.54,1.06,1.82,2.57-.57-.59-2,.04-.9-.63-6.06-.33-2.29-.56-1.28-.99-3.05-.62-1.2-.33-3.8-.25-1.23-.15-1.46-.3-1.47-.59-1.98-1.65-3.07-.77-1.88-.87-1.07-.79-1.25-1.27-.86-1.42-.83-2.35-.05-5.08-1.57-3.54.09-4.21-.37-5.73,1.3-3.83,1.48-3.41,2.08-3.8,2.02-1.48.98-1.22,1.58-.16,2.46.98,2.29.09.51-1.42.78-1.69,2.49-1.31,1.38-.96,3.09.17,2.01,2,3.39.98.65.18.16-1.02,1.19-.99,1.24-.51,1.62.35,1.78.8,2.11,1.43.44.72.47-.03.63,4.35,1.35-.56.89-.15,1.54,1.38,1.82.98.92,1.9.59,2.85,1.37,1.31.1,1.03-.24M180.21,152.86v-.02s.14.05.14.05l1.05.49.58.57.83.96,1.94.92.21.64,1.96.99,1.13.37,2.89,1.47,1.43.46,3.22-.18-.37-2.98-2.49.14-.58-.18-2.83-1.44-1.17-.39-.75-.38-.23-.68-2.53-1.2-.46-.53-1.06-1.05-1.56-.74-1.56-.59-1.2-.07-2.06-.64-1.13-.85-1.32-2.07-.94.6-.63.33-.8.58-.69-.12-.55-.17-.89,2.86.64.2,2.1.38.48-.3.36-.25.07.07,1.21.92"/>
  <polygon class="cls-1" points="70.11 132.89 77.8 127.72 90.36 127.72 100.34 126.89 110.92 143.09 109.71 151.12 107.01 154.72 102.6 164.17 94.64 167.32 86.54 170.69 80.91 170.47 76.07 167.77 70.11 164.17 65.16 154.72 62.46 149.2 62.46 145.93 62.46 140.32 63.59 136.94 70.11 132.89"/>
  <polygon class="cls-1" points="76.56 133.57 71.16 138.89 69.96 140.32 67.79 145.04 68.61 149.62 69.96 153.37 70.94 157.12 72.17 159.74 74.24 161.54 76.56 162.74 79.56 163.94 82.79 164.77 88.11 164.24 91.04 163.87 94.56 162.14 97.19 160.12 99.14 158.62 102.14 155.24 104.16 151.34 105.06 148.32 105.06 143.32 102.96 139.87 101.69 136.34 96.44 132.59 95.46 132.22 91.64 131.84 86.42 131.84 83.76 131.84 81.29 132.22 77.8 132.97 76.56 133.57"/>
  <polyline class="cls-1" points="103.82 160.57 105.73 160.57 108.32 160.57 111.69 159.76 115.32 157.75 120.86 153.72 120.86 149.2 120.86 143.92 120.36 137.39 116.06 130.36 109.78 126.89 105.06 127.6 101.59 128.79"/>
  <polyline class="cls-1" points="78.28 128.28 78.96 120.74 81.21 116.8 88.41 115.45 96.96 114.78 104.61 113.77 116.76 113.77 125.31 112.3 137.23 111.18 142.52 110.39 151.52 110.39 155.57 110.39"/>
  <path class="cls-1" d="M83.79,119.84h11.36l4.84-.51s7.99-.17,8.33,0,9.45,0,9.45,0l6.75-.08,12.49-.88,6.75-.67,6.97-1.12,7.31-.34.91.21.89-.21"/>
  <polygon class="cls-1" points="119.57 125.03 121.87 129.76 124.74 131 130.03 131.84 133.18 129.76 134.87 126.61 134.87 124.47 132.06 123.68 123.96 124.13 119.57 125.03"/>
  <polyline class="cls-1" points="167.38 111.52 167.16 110.39 167.16 108.37 167.16 105.83 166.82 104.09 166.26 102.85 163.89 102.57 159.34 102.85 154.84 104.48 153.88 106.4 154.16 112.87 157.93 112.87 160.63 112.58 163.67 112.25 165.46 111.86 166.39 111.29"/>
  <polyline class="cls-1" points="105.43 165.82 111.27 165.52 122.98 165.67 130.93 165.37 139.93 165.37 144.43 164.77 151.78 163.87 157.93 163.87 163.78 162.97 167.38 162.97 175.78 158.02 177.43 155.47 180.07 153.72"/>
  <polyline class="cls-1" points="167.38 161.32 165.28 153.72 166.48 152.25"/>
  <polyline class="cls-1" points="113.66 135.25 116.14 138.97 116.48 142.85 116.48 147.74 116.08 149.48"/>
  <polyline class="cls-1" points="142.01 123.27 142.01 128.28 143.87 130.98 146.29 134.3 149.55 135.25 152.7 135.25 155.18 134.75 155.57 134.3 156.11 133.93"/>
  <path class="cls-1" d="M142.01,123.68l4.84-.8,4.05-1.07s5.19.28,5.21.28,1.71,2.42,1.71,2.42v1.01"/>
  <line class="cls-1" x1="127.22" y1="139.92" x2="132.73" y2="139.92"/>
  <line class="cls-1" x1="128.12" y1="144.14" x2="133.01" y2="144.59"/>
  <polyline class="cls-1" points="92.91 136.6 96.79 138.46 98.59 140.88 99.43 144.59 99.99 147.4 98.36 149.77 97.69 151.12"/>
  <polyline class="cls-1" points="96.45 153.42 93.64 156.18 91.39 158.26 89.42 158.88 87.51 158.54"/>
  <polyline class="cls-1" points="138.47 102.57 147.89 97 160.63 94.19 165.28 92.17"/>
</svg>