<?xml version="1.0" encoding="utf-8"?>
<!-- Generator: Adobe Illustrator 27.2.0, SVG Export Plug-In . SVG Version: 6.00 Build 0)  -->
<svg version="1.1" id="_레이어_1" xmlns="http://www.w3.org/2000/svg" xmlns:xlink="http://www.w3.org/1999/xlink" x="0px"
	 y="0px" viewBox="0 0 51.2 52.8" style="enable-background:new 0 0 51.2 52.8;" xml:space="preserve">
<style type="text/css">
	.st0{fill:#2F318E;}
</style>
<path class="st0" d="M16.3,44.5l-1.8-0.2l-1.9-1.2l-1-1.1l-0.7-0.8l0.2-0.3l4-4.1l1.1-0.5l3.6-2.3l1.8-0.8l2.2-0.5l-0.3-1.3l0.4-1.4
	l-0.1-1.4l-3,0.3l0.1,0.8l-0.2,0.7l-2.1,0.9L16,32.8l-0.5-0.1l-0.8-0.2l-0.4,1.4L14.2,34l-0.8-0.7L13,33.5l-1,0.7L11.8,35l0.7,0.2
	l-2,2v-0.3l-0.9-0.1L7.2,36l0,0l-2.5-1.6l-0.4-0.1l-0.2-0.4L3.9,33L4,32.5l1.6-1.9L7,30.1l1.6-0.9l1.7-1.6l1.5-1.1l1.6-0.5l2.1-1
	l2.5-0.7l2.5-0.9l3.2-2.5l-1.8-2.4L19,20.7l-2,0.7l-2.5,0.7l-2,0.9l-0.4-0.3l-0.9-0.3l-0.7-0.5l-1.8,2.4l0.5,0.3l-0.7,0.5l-1.6,1.5
	l-0.4,0.2l-0.8-0.3L5.2,26l-0.6-0.4l-1.3-2.2L3,22.8l0.6-1.9l0.9-1L6,17.8l2.5-1.4l1.8-0.9l1.6-0.7l5.4-0.9l3.2-0.8l2.7-1.9
	l-1.7-2.5l-2.3,1.6l-2.5,0.6l-3.1,0.5l-2.4,0.4l-2.1,0.9l-0.8,0.4l-0.7,0.4l-0.3-1.1l0.2-0.5l0.3-1.8L9,9.3l3.9-2.1l2.7-1.7L19,4.2
	L24.1,3L28,3.4l3.2-0.1l4.2,1.3l0.8,0.2h2.1l1.3,0.8l0.5,0.8l0.8,0.9L41.5,9l1,1.7l0.6,1.1l0.5,1.6l0.2,1.2l0.2,1.5l0.2,1.2l0.4,4.3
	l0.8,1.4l1,3l0.5,1.1l0.3,1.8l0.4,4.3l0.2,1.5l-0.1,1.5l1.1,1.8l2.6-0.6l-0.6-2v-0.9L50,28.6l-0.3-2.3L49.1,25l-1-3l-0.6-1.2
	L47.2,17L47,15.8l-0.2-1.5l-0.3-1.5l-0.6-2l-1.7-3.1l-0.8-1.9l-0.9-1.1l-0.8-1.2l-1.3-0.9L39,1.8h-2.3l-5.1-1.6l-3.5,0.1L23.9,0
	l-5.7,1.3l-3.8,1.5l-3.4,2l-3.8,2l-1.5,1L4.5,9.4l-0.2,2.5l1,2.3l0.1,0.5L4,15.4l-1.7,2.5L1,19.3l-1,3.1l0.2,2l2,3.4l1,0.6l0.2,0.2
	l-1,1.2l-1,1.2l-0.5,1.6l0.4,1.8L2,36.6L3.4,37l0.7,0.5v0.6l4.3,1.3l-0.6,0.9l-0.2,1.5L9,43.6l1,0.9l1.9,0.6l2.9,1.4l1.3,0.1l1-0.2
	 M25.7,45.8L25.7,45.8h0.1l1,0.5l0.6,0.6l0.8,1l1.9,0.9l0.2,0.6l2,1l1.1,0.4l2.9,1.5l1.4,0.5l3.2-0.2l-0.4-3L38,49.7l-0.6-0.2
	l-2.8-1.4l-1.2-0.4l-0.8-0.4l-0.2-0.7l-2.5-1.2l-0.5-0.5l-1.1-1l-1.6-0.7l-1.6-0.6l-1.2-0.1l-2.1-0.6L21.1,41l-1.3-2.1l-0.9,0.6
	l-0.6,0.3l-0.8,0.6l-0.7-0.1l-0.5-0.2l-1,2.9l0.6,0.2l2.1,0.4l0.5-0.3l0.4-0.2l0.1,0.1l1.2,0.9"/>
</svg>
