<?xml version="1.0" encoding="utf-8"?>
<!-- Generator: Adobe Illustrator 28.3.0, SVG Export Plug-In . SVG Version: 6.00 Build 0)  -->
<svg version="1.1" id="_레이어_1" xmlns="http://www.w3.org/2000/svg" xmlns:xlink="http://www.w3.org/1999/xlink" x="0px"
	 y="0px" viewBox="0 0 225.7 225.7" style="enable-background:new 0 0 225.7 225.7;" xml:space="preserve">
<style type="text/css">
	.st0{fill:#2F318E;}
	.st1{fill:none;stroke:#2F318E;stroke-width:3;stroke-miterlimit:10;}
</style>
<path class="st0" d="M75,168.1l-3.4-1.3L70,166l-1-0.4l0.7-1l0.5-2.2l-0.5-2.8l-2.2-1.6l-2.4-1.1l-3.6,0.7l-1.8-0.4l0.6-0.8l0.6-1.8
	l-1.1-2.6l-0.9-0.8l-2.3-1.6l-1.5,0.1l-2.7-0.7l-1.7-0.6l-2,0.2l-0.7-0.2l-3.3,0.5l-3.3,0.4l-1.9,0.3l-2.3,0.7l-2.2,1.2l-1.3,0.8
	l-1.3,1l-1.5,1.1l-1.1,0.7l-1.2,0.9l-1,0.6l-2.8,1.8l-1.1,1.5l-0.9,0.9l-0.9,0.7l-0.9,0.9l-1,0.9l-0.2,0.2c-3.3,4.5-2.4,5.8-2,6.3
	c0.8,1.1,1.4,1.5,1.6,1.6l2.5,1.5l3-0.3l0.4,0.1l-1,0.9l-1.6,3.3l1.4,2.3l2.4,2.5l2.9-0.5l1.4,0l-2.4,1.9l0.7,4.7l4.1,3.1l1.1-0.7
	l1.4,2.7l1.9,2.4l3.6-0.2l2.1,0l3.9-0.4l2.6-0.5l1.7-0.1l3.2-0.2l3-1.7l-1.5-2.6l-2.4,1.3l-2.8,0.2l-1.8,0.1l-2.4,0.4l-3.6,0.4
	l-2.1,0l-2.1,0.1l-0.7-0.9l-0.2-0.3l2.1-1.4l-1.8-3.2l-2.1-0.9l-2.8,1.7l-1.5-1.1l-0.3-1.8l2.2-1.8l1-3.2l-2.8-1.1l-2.7-0.1
	l-1.7,0.3l-0.9-1l-0.5-0.8l0.6-1.3l2.5-2.3l-1.1-2.9l-3.1-0.6l-2.4,0.2l-1.5-0.9c-0.1-0.1-0.3-0.3-0.6-0.6c0.2-0.6,0.9-1.9,1.7-3
	l1-0.8l0.9-0.8l0.9-0.7l1.2-1.1l1-1.3l2.3-1.5l1-0.6l1.2-0.9l1.1-0.7l1.7-1.2l1.2-0.9l1.2-0.8l1.7-1l1.9-0.6l1.6-0.3l3.3-0.4
	l2.7-0.4l0.7,0.2l1.8-0.2l1,0.4l3.4,0.8l0.9,0l1.2,0.9l0.3,0.3l0.4,1l-0.1,0.3l-0.7,1l-0.4,1l-3,0.6h-1.7l-1.7-0.2l-2,0.8l-4.4,0.8
	l-1.7,1.1l-0.9,0.3l-2,0.9l-2.1,1.3l-1.2-1.3l-2.3,2l2.7,3.1l1.2-1l0.4,0.4l0.6-0.5l1.8-1l1.8-1l1.2-0.4l1.5-1l4-0.7l1.7-0.7
	l1.1,0.1l2.1,0l2.8-0.5l1.4,0.4l1.8-0.3l1.9,0.4l3.3-0.6l1.1,0.5l1.1,0.8l0.2,1l-0.3,1.1l-1,1.6l-1.2-0.1l-2-0.1l-2.8,0.4l-2.9,0.5
	l-3.1,0.8l-2.3,1.3l-7.8,1.4l-2.6,1.4l-0.3-1.5l-3,0.5l0.4,2.2l1.2,2.4l1.4,0.8l1.4,0.3l0.7,0.1l0.4-2.7l1.3-0.7l7.9-1.4l2.2-1.3
	l2.7-0.7l2.8-0.5l2.3-0.4l1.8,0.1l1.8,0.2l1.1,0.2l1.4,0.5l1.6,0.8l2,0.8l0.1,0.7l-2.6,1.3l-3.3,1.4l-1-0.2l-6.7,0l-2.5,0.4
	l-2.8,1.4l-2,0.8l-1.4,0.7l-2.1,0.7l-1-0.8l-1.8,2.4l0.3,0.3l-0.3,0.2l2,2.3l1.7-1.5l2.3-0.8l1.4-0.7l2-0.8l2.6-1.3l1.7-0.3h6.2
	l3.6,0.6l0.2,0.5l-1.1,1.1l-2.3,1.4l-5.7,1l-5.5,2.4l-5.2,3.2l1.6,2.6l5-3.1l5-2.2l5.9-1l2.9-1.8l3-2.8l-1.4-3.3l4.7-2.4L75,168.1
	L75,168.1z"/>
<g>
	<path class="st0" d="M156.7,63.6l-3.5,0l-2.3-0.4l-1.3-0.6l-1.6-0.3l-1.5-1l-2.1-0.9l-1.4-1l-1.5-1.5l-1.9-1.1l-1.3-2.3l-1.9-3
		l-0.4-1.3l-1.1-2l-0.4-1.9l-0.9-3.3l-0.1-2.4l0.8-1.6l0.3-1.2l0.7-1.8l2.1-2.6l1.4-0.9l3.1-0.1l1.8,0.7l1.6,0.8l1.5,0.9l1.1,0.8
		l1.6,1.2l1.4,1.9l2.5,1.6l1.1,1.3l1.8,2l1.3,2.6l0.5,1.2l0.8,1.5l2.8,6.4l0.4,2.4l-1.4,2.8l-1.4,2L156.7,63.6L156.7,63.6z
		 M153.6,60.6h2.5l1.2-0.5l0.9-1.2l0.9-1.7l-0.2-1.1l-1-2.2l-1.6-3.8l-0.8-1.5l-0.5-1.2l-1-2.1l-2.4-2.7l-2.6-1.7l-1.5-2l-1.1-0.8
		l-1-0.7l-1.4-0.8l-1.4-0.7l-1-0.4l-1.7,0l-0.2,0.2l-1.5,1.9l-0.5,1.2l-0.3,1.3l-0.5,1.1l0,1.5l0.8,2.8l0.4,1.6l1.1,2l0.4,1.2
		l1.7,2.7l0.9,1.7l1.6,1.1l1.5,1.6l0.9,0.6l2.1,0.9l1.2,0.8l1.5,0.3l1.3,0.5L153.6,60.6L153.6,60.6z"/>
	<path class="st0" d="M109.7,70.1l-2.6,0l-2.7-0.6l-2.8-0.8l-1.6-0.6l-1.7-1.8l-2.7-1.2l-1.7-1.7l-0.9-1.7l-1.2-1.4l-1.6-2.2
		l-1.4-2.8l-1.5-2.4l-0.1-3.2l0.2-2.7l1-2.2l1.6-1.6l2.1-1.2l3.2-0.1l1.8,0.3l1.2,1l1.7,1.2l2.6,2.2l0.8,1l1.7,2.1l2.5,1.6l1.6,1.9
		l0.8,1.9l1.5,2.2l2.6,6.2l-0.8,2.7l-1.3,1.4l-0.6,0.9L109.7,70.1L109.7,70.1z M107.6,67.1l0.9,0l0.7-0.7l0.6-0.8l0.9-1l0.3-1
		l-2.2-5l-1.5-2.2l-0.7-1.6l-1-1.2l-2.5-1.6l-2.7-3.3l-2.2-1.8l-1.7-1.2l-0.6-0.5L95,45L93,45.1l-1.1,0.6L91,46.6l-0.5,1.2l-0.1,2.1
		l0.1,2.2l1.1,1.9l1.4,2.7l1.3,1.9l1.4,1.7l0.8,1.5l1,1l2.7,1.2l1.7,1.7l0.9,0.3l2.6,0.8L107.6,67.1L107.6,67.1z"/>
	<polygon class="st0" points="120.9,96.3 119,96.3 117.2,95.6 115.3,94.2 113.8,92.7 112,93.1 111.3,88.6 111.3,86.5 111.8,83.7 
		112.7,82 113.3,81.1 113.6,78.6 116.6,78.9 116.2,82.1 115.3,83.5 114.6,84.7 114.2,86.9 114.3,88.4 114.5,89.4 114.6,89.4 
		116.2,90.7 117.4,92 118.7,93 119.5,93.3 120.8,93.3 	"/>
	<polygon class="st0" points="133.4,37.8 130.4,37.9 130.2,33 132.5,29.2 134.1,26.3 135.3,24.7 137.5,22.6 139.4,21.4 142.3,19.7 
		146,18.4 147.8,17.6 152.4,16.6 154.6,16.6 159.3,15.5 161.1,15.5 161.1,18.5 159.5,18.5 154.9,19.5 152.6,19.6 148.6,20.5 
		147.1,21.2 143.4,22.5 139.3,25 137.5,26.8 136.6,28 135.1,30.6 133.3,33.8 	"/>
</g>
<polygon class="st0" points="141.8,46.8 144.1,45 148.2,46 150.5,48.7 153.3,54 153.7,56.4 153.7,58.4 153.6,59.5 152.5,60.4 
	151.3,61.1 149.2,61.2 143.6,57 142.5,55.3 141.5,53.5 140.3,51.7 140,49.8 140.2,48.4 140.5,47.6 141.1,46.9 "/>
<polygon class="st0" points="108.7,67.6 106.5,69.6 102.4,69 99.9,66.6 96.6,61.5 96,59.2 95.7,57.2 95.8,56.1 96.7,55.1 97.9,54.3 
	99.9,54 105.9,57.6 107.2,59.2 108.4,61 109.7,62.6 110.2,64.4 110.2,65.9 109.9,66.7 109.4,67.4 "/>
<path class="st0" d="M170.8,151.5l-1.8-0.2l-1.9-1.2l-0.9-1.1l-0.7-0.8l0.2-0.3l4-4.1l1.1-0.5l3.6-2.3l1.8-0.8l2.2-0.5l-0.3-1.3
	l0.4-1.4l-0.1-1.4l-3,0.3l0.1,0.8l-0.2,0.7l-2.1,0.9l-2.5,1.6l-0.5-0.1l-0.8-0.2l-0.4,1.4l-0.1,0.1l-0.8-0.7l-0.3,0.4l-1,0.7
	l-0.2,0.7l0.7,0.2l-2,2l0-0.3l-0.9-0.1l-2.5-0.8v0l-2.5-1.6l-0.4-0.1l-0.1-0.4l-0.2-0.9l0.1-0.4l1.6-1.9l1.3-0.5l1.6-0.9l1.7-1.6
	l1.5-1.1l1.6-0.5l2.1-1l2.5-0.7l2.5-0.9l3.2-2.5l-1.8-2.4l-2.8,2.2l-2,0.7l-2.5,0.7l-2,0.9l-0.4-0.3l-0.9-0.3l-0.7-0.5l-1.8,2.4
	l0.5,0.3l-0.7,0.5l-1.6,1.5l-0.4,0.2l-0.9-0.3l-0.5-0.5l-0.6-0.4l-1.3-2.2l-0.1-0.7l0.6-1.9l0.9-1l1.5-2.2l2.5-1.4l1.8-0.9l1.6-0.7
	l5.4-0.9l3.2-0.8l2.7-1.9l-1.7-2.5l-2.3,1.6l-2.5,0.6l-3.1,0.5l-2.4,0.4l-2.1,0.9l-0.8,0.4l-0.7,0.4l-0.3-1.1l0.2-0.5l0.3-1.8
	l1.2-0.8l3.9-2.1l2.7-1.7l3.4-1.3l5.2-1.2l3.9,0.3l3.2-0.1l4.2,1.3l0.8,0.2l2.1,0l1.3,0.8l0.5,0.8l0.8,0.9l0.6,1.6l1,1.7l0.6,1.1
	l0.5,1.7l0.2,1.2l0.1,1.5l0.2,1.2l0.4,4.3l0.8,1.4l1,3l0.5,1.1l0.3,1.8l0.4,4.3l0.2,1.5l-0.1,1.5l1.1,1.8l2.6-0.6l-0.6-2l0-0.9
	l-0.6-6.1l-0.3-2.3l-0.6-1.3l-1-3.1l-0.6-1.2l-0.3-3.8l-0.2-1.2l-0.1-1.5l-0.3-1.5l-0.6-2l-1.6-3.1l-0.8-1.9l-0.9-1.1l-0.8-1.2
	l-1.3-0.9l-1.4-0.8l-2.4-0.1l-5.1-1.6l-3.5,0.1l-4.2-0.4l-5.7,1.3l-3.8,1.5l-3.4,2.1l-3.8,2l-1.5,1l-1.2,1.6l-0.2,2.5l1,2.3l0.1,0.5
	l-1.4,0.8l-1.7,2.5l-1.3,1.4l-1,3.1l0.2,2l2,3.4l1,0.6l0.2,0.2l-1,1.2l-1,1.2l-0.5,1.6l0.4,1.8l0.8,2.1l1.4,0.4l0.7,0.5l0,0.6
	l4.4,1.4l-0.6,0.9l-0.1,1.5l1.4,1.8l1,0.9l1.9,0.6l2.9,1.4l1.3,0.1l1-0.2 M180.2,152.8L180.2,152.8l0.1,0l1.1,0.5l0.6,0.6l0.8,1
	l1.9,0.9l0.2,0.6l2,1l1.1,0.4l2.9,1.5l1.4,0.5l3.2-0.2l-0.4-3l-2.5,0.1l-0.6-0.2l-2.8-1.4l-1.2-0.4l-0.8-0.4l-0.2-0.7l-2.5-1.2
	l-0.5-0.5l-1.1-1.1l-1.6-0.7l-1.6-0.6l-1.2-0.1l-2.1-0.6l-1.1-0.9l-1.3-2.1l-0.9,0.6l-0.6,0.3l-0.8,0.6l-0.7-0.1l-0.6-0.2l-0.9,2.9
	l0.6,0.2l2.1,0.4l0.5-0.3l0.4-0.2l0.1,0.1l1.2,0.9"/>
<path class="st1" d="M78.2,42l7.8-2.3l6.6-1.1l3.2-3.2c0,0,0.4-2,0-3c-0.4-1-1.7-3.8-1.7-3.8h-2.6"/>
<polyline class="st1" points="101.3,33 108.2,40.2 111.3,42.5 "/>
<line class="st1" x1="112.9" y1="37.1" x2="118" y2="41.5"/>
<polyline class="st1" points="133.6,103.1 144.4,99.7 151,99.7 156,100.4 "/>
<polyline class="st1" points="56.9,185.7 62.2,198.2 70.5,199.1 80.7,199.1 92.2,199.1 100.3,199.1 112.9,200.2 118.2,199 
	126.3,199.7 133.7,198.9 152.2,199.6 144.1,184.4 137.8,154.4 130.2,149 125.1,157.6 118.8,170 105.7,162.2 95.5,153.7 86.8,149.8 
	81,145.9 74.2,147.4 63.6,147.4 44.1,144.4 39.4,145 35.8,145.9 39.2,152.8 "/>
<polyline class="st1" points="81,145.9 96.9,145.3 116.1,147.5 126.6,148.3 130.2,148.3 "/>
<polyline class="st1" points="120.9,152.2 117.7,155.6 109.6,157.2 108,157.7 "/>
<polyline class="st1" points="106.7,151 114.4,156.2 116.9,159.8 117.5,160.8 117.5,161.9 "/>
<path class="st1" d="M95.8,136l-4.9-4.6l-6.6-1.4l-8.8-0.9h-5.4l-2-7.7c0,0-0.2-6.2-0.4-7.1s1.5-8.9,1.5-8.9l8.5-2.2l9-1.3l12.7,1.3
	l9.8,3.3l2.1,4.9l-1.5,8.3l-0.9,6l-4.9,1.7l-5.5,1.7l-2.4,0.9L95.8,136L95.8,136z"/>
<line class="st1" x1="93.7" y1="112.1" x2="83.2" y2="120.2"/>
<line class="st1" x1="85.4" y1="111.2" x2="92.6" y2="120.9"/>
<polyline class="st1" points="190,109.3 193.9,97.9 195,93.7 195.6,90.7 194.9,83.2 194.8,78.3 192.6,78.3 190.9,78.3 189.7,80.8 
	188.2,84.1 186.7,87 184.5,90.5 183.5,92.2 182.2,96.7 181.6,100.6 179.9,103.9 179.3,106.4 178.8,108 178.7,108.7 "/>
<polyline class="st1" points="172.6,149.1 170.6,156.4 169.2,163.6 173,165.9 175.9,165.9 176.7,163.3 178,158.3 178.8,154.4 
	179.5,152.3 180.1,151.6 "/>
<polyline class="st1" points="183.1,93 187.3,93.7 190.6,93.1 193.9,92 196.2,91.3 "/>
<polyline class="st1" points="187.9,84 191.1,84.5 192,84.4 195,83.7 "/>
</svg>
