<?xml version="1.0" encoding="utf-8"?>
<!-- Generator: Adobe Illustrator 28.3.0, SVG Export Plug-In . SVG Version: 6.00 Build 0)  -->
<svg version="1.1" id="_레이어_1" xmlns="http://www.w3.org/2000/svg" xmlns:xlink="http://www.w3.org/1999/xlink" x="0px"
	 y="0px" viewBox="0 0 581.5 421.5" style="enable-background:new 0 0 581.5 421.5;" xml:space="preserve">
<style type="text/css">
	.st0{fill:#2F318E;}
	.st1{enable-background:new    ;}
</style>
<g>
	<path class="st0" d="M293.8,336.1l-7.5-2.9l-3.6-1.7l-2.3-0.9l1.4-2.3l1.2-4.9l-1.1-6.1l-4.8-3.6l-5.4-2.4l-7.9,1.5l-3.9-0.8
		l1.2-1.8l1.2-4l-2.4-5.8l-1.9-1.8l-5.1-3.6l-3.3,0.1l-6-1.5l-3.6-1.3l-4.4,0.5l-1.6-0.4l-7.2,1.2l-7.2,0.8l-4.1,0.8l-5.1,1.5
		l-4.9,2.7l-3,1.8l-2.9,2.2l-3.3,2.3l-2.5,1.5l-2.7,1.9l-2.1,1.2l-6.2,4l-2.5,3.2l-2,2l-1.9,1.5l-2.1,2l-2.3,2l-0.5,0.5
		c-7.3,10-5.2,12.9-4.4,13.9c1.7,2.3,3.2,3.4,3.4,3.6l5.5,3.3l6.6-0.7l0.8,0.1l-2.1,1.9l-3.5,7.2l3.2,5.2l5.2,5.6l6.3-1.2l3,0.1
		l-5.2,4.1l1.5,10.4l9,6.8l2.4-1.5l3.2,5.9l4.3,5.3l7.9-0.5l4.6-0.1l8.6-0.9l5.8-1.1l3.7-0.2l7-0.5l6.6-3.7l-3.2-5.8l-5.3,3
		l-6.1,0.4l-4,0.3l-5.3,1l-7.9,0.8l-4.6,0.1l-4.7,0.3l-1.6-1.9l-0.4-0.7l4.5-3l-4-7.1l-4.7-2l-6.2,3.8l-3.3-2.4l-0.6-4l4.9-3.9
		l2.1-7.1l-6.2-2.4l-5.9-0.1l-3.8,0.6l-2.1-2.2l-1.1-1.8l1.4-2.8l5.5-5l-2.5-6.5l-6.8-1.3l-5.3,0.5l-3.3-1.9
		c-0.2-0.1-0.7-0.6-1.3-1.4c0.4-1.3,2-4.1,3.7-6.5l2.1-1.9l1.9-1.8l1.9-1.5l2.6-2.5l2.2-2.8l5-3.3l2.2-1.2l2.8-1.9l2.5-1.5l3.7-2.6
		l2.6-2l2.7-1.7l3.8-2.1l4.3-1.2l3.6-0.7l7.3-0.8l6-1l1.4,0.4l4-0.5l2.3,0.9l7.4,1.8l2.1-0.1l2.8,1.9l0.7,0.6l0.9,2.2l-0.2,0.7
		l-1.5,2.1l-0.8,2.2l-6.7,1.2l-3.8,0l-3.8-0.4l-4.3,1.8l-9.7,1.8l-3.7,2.3l-2.1,0.6l-4.4,2.1l-4.6,2.8l-2.6-2.9l-5,4.3l6,6.9
		l2.6-2.2l0.9,1l1.2-1.2l4-2.3l4-2.2l2.7-0.8l3.4-2.1l8.8-1.6l3.8-1.5l2.4,0.2l4.6,0l6.2-1.1l3,1l4-0.7l4.2,0.9l7.2-1.3l2.5,1
		l2.4,1.8l0.4,2.2l-0.6,2.4l-2.1,3.4l-2.6-0.3l-4.4-0.3l-6.3,0.9l-6.4,1.2l-6.8,1.8l-5,2.8l-17.2,3.2l-5.8,3.1l-0.6-3.3l-6.5,1.2
		l0.9,4.9l2.6,5.4l3,1.8l3.1,0.7l1.5,0.2l0.9-6l2.9-1.6l17.3-3.2l4.9-2.8l5.9-1.6l6.1-1.1l5.1-0.8l4,0.2l4.1,0.4l2.4,0.5l3.1,1.2
		l3.6,1.7l4.4,1.7l0.3,1.5l-5.8,2.9l-7.2,3.1l-2.2-0.4l-14.7,0l-5.6,1l-6.1,3l-4.5,1.7l-3.1,1.5l-4.6,1.6l-2.2-1.7l-4.1,5.2l0.8,0.6
		l-0.6,0.5l4.4,5l3.7-3.3l5-1.8l3.2-1.6l4.5-1.7l5.6-2.8l3.8-0.7h13.5l7.8,1.3l0.5,1l-2.5,2.4l-5.1,3.2l-12.6,2.1l-12,5.4l-11.5,7.1
		l3.5,5.6l10.9-6.8l11-4.9l13.1-2.2l6.5-4l6.6-6.2l-3.2-7.3l10.4-5.2L293.8,336.1L293.8,336.1z"/>
	<g>
		<path class="st0" d="M473.8,106l-7.6-0.1l-5-0.9l-2.8-1.2l-3.5-0.7l-3.4-2.3l-4.6-1.9l-3.1-2.2l-3.2-3.4l-4.1-2.5l-2.8-5l-4.1-6.7
			l-1-2.8l-2.5-4.4l-1-4.2l-2-7.2l-0.2-5.2l1.7-3.6l0.6-2.6l1.6-3.9l4.7-5.8l3-1.9l6.8-0.2l4,1.5l3.6,1.8l3.3,2l2.5,1.7l3.4,2.5
			l3.1,4.2l5.5,3.5l2.4,2.9l4,4.4l2.9,5.7l1.1,2.7l1.8,3.2l6.2,14.2l0.8,5.4l-3.2,6.2l-3.1,4.4L473.8,106L473.8,106z M467,99.4
			l5.5,0l2.6-1.1l1.9-2.7l1.9-3.7l-0.4-2.4l-2.1-4.8l-3.6-8.5l-1.8-3.3l-1.1-2.7l-2.3-4.5l-5.3-6l-5.7-3.7l-3.2-4.4l-2.5-1.9
			l-2.3-1.5l-3-1.8l-3.1-1.5l-2.2-0.8l-3.7,0.1l-0.5,0.3l-3.4,4.2l-1.1,2.7l-0.7,2.8l-1.2,2.5l0.1,3.2l1.8,6.1l0.8,3.5l2.4,4.3
			l1,2.7l3.7,5.8l2,3.6l3.6,2.4l3.3,3.4l2,1.4l4.6,1.9l2.6,1.8l3.2,0.7l2.8,1.2L467,99.4L467,99.4z"/>
		<path class="st0" d="M370.3,120.2l-5.8,0.1l-6-1.3l-6.2-1.8l-3.5-1.4l-3.7-3.9l-5.9-2.6l-3.8-3.8l-1.9-3.8l-2.7-3.1l-3.4-4.8
			l-3.1-6.1l-3.2-5.2l-0.2-7l0.4-5.9l2.2-4.8l3.5-3.5l4.6-2.6l7.1-0.2l4,0.6l2.6,2.1l3.8,2.6l5.8,4.9l1.7,2.2l3.8,4.5l5.5,3.6
			l3.5,4.2l1.7,4.1l3.4,4.9l5.8,13.5l-1.8,5.9l-2.9,3.2l-1.4,1.9L370.3,120.2L370.3,120.2z M365.5,113.8l2-0.1l1.6-1.5l1.2-1.7
			l2-2.2l0.6-2.2l-4.7-11.1l-3.4-4.9l-1.5-3.6l-2.2-2.7l-5.4-3.5l-6-7.4l-4.8-3.9l-3.8-2.6l-1.3-1.1l-1.9-0.3l-4.5,0.1l-2.4,1.4
			l-2,2l-1.2,2.6l-0.3,4.5l0.1,4.8l2.5,4.1l3,5.9l2.9,4.1l3.1,3.7l1.6,3.2l2.2,2.2l6,2.6l3.6,3.8l2,0.8l5.7,1.7L365.5,113.8
			L365.5,113.8z"/>
		<polygon class="st0" points="394.8,178 390.6,178.1 386.7,176.5 382.7,173.3 379.2,170 375.3,170.9 373.8,161 373.7,156.5 
			374.7,150.3 376.9,146.4 378.1,144.4 378.8,139 385.4,139.8 384.5,146.8 382.5,149.9 381,152.5 380.2,157.2 380.4,160.6 
			380.7,162.9 380.9,162.8 384.4,165.8 387.2,168.5 390,170.7 391.8,171.5 394.6,171.4 		"/>
		<polygon class="st0" points="422.4,49.2 415.8,49.4 415.5,38.6 420.4,30.2 424,23.8 426.6,20.4 431.5,15.6 435.7,13 441.9,9.3 
			450.1,6.4 454.1,4.6 464.3,2.5 469.2,2.4 479.4,0.1 483.3,0 483.5,6.6 480,6.7 469.7,9 464.8,9.1 455.8,11 452.5,12.6 444.5,15.4 
			435.4,21 431.4,25 429.3,27.7 426.2,33.4 422.1,40.3 		"/>
	</g>
	<polygon class="st0" points="440.9,69 446.1,65.1 455,67.3 460,73.2 466.1,84.9 467,90.1 467.2,94.5 466.8,97 464.5,99 
		461.7,100.5 457.3,100.7 444.9,91.5 442.4,87.8 440.2,83.7 437.6,79.8 437,75.7 437.3,72.5 438.1,70.9 439.3,69.3 	"/>
	<polygon class="st0" points="368,114.8 363.3,119.2 354.2,117.9 348.6,112.5 341.4,101.4 340,96.4 339.4,91.9 339.5,89.4 
		341.7,87.3 344.3,85.4 348.7,84.9 361.9,92.9 364.8,96.2 367.4,100.2 370.3,103.8 371.3,107.8 371.3,111 370.7,112.7 369.5,114.4 	
		"/>
	<path class="st0" d="M504.7,299.6l-3.9-0.5l-4.3-2.6l-2.1-2.5l-1.5-1.8l0.4-0.6l8.9-9l2.5-1.2l8-5.1l3.9-1.7l4.9-1.2l-0.7-2.9
		l0.9-3l-0.3-3.1l-6.6,0.6l0.2,1.8l-0.5,1.5l-4.7,2l-5.5,3.5l-1.2-0.2l-1.8-0.5l-1,3l-0.3,0.1l-1.8-1.6l-0.7,0.8l-2.1,1.6l-0.5,1.5
		l1.5,0.5l-4.3,4.4l0.1-0.8l-2-0.2l-5.5-1.7v-0.1l-5.5-3.6l-1-0.3l-0.3-0.9l-0.4-2l0.2-0.8l3.5-4.2l3-1.1l3.4-2l3.8-3.5l3.4-2.4
		l3.5-1.2l4.6-2.2l5.4-1.6l5.6-2.1l7-5.4l-4-5.2l-6.2,4.8l-4.4,1.6l-5.5,1.6l-4.4,2l-0.9-0.7l-2-0.6l-1.6-1.2l-3.9,5.3l1,0.7
		l-1.6,1.2l-3.6,3.3l-0.9,0.5l-1.9-0.6l-1.2-1.1l-1.4-1l-2.9-4.9l-0.1-1.6l1.3-4.1l2-2.1l3.3-4.8l5.5-3.1l3.9-2l3.5-1.5l11.9-2.1
		l7.1-1.7l6-4.2l-3.8-5.4l-5,3.5l-5.5,1.3l-6.9,1.1l-5.4,1l-4.7,1.9l-1.8,0.9l-1.6,0.9l-0.7-2.5l0.4-1.2l0.6-3.9l2.7-1.8l8.6-4.6
		l6-3.7l7.5-2.9l11.3-2.6l8.6,0.8l7.1-0.2l9.2,2.9l1.7,0.6l4.5,0.1l2.9,1.9l1.1,1.8l1.7,2.1l1.4,3.4l2.1,3.8l1.3,2.5l1.1,3.6
		l0.5,2.6l0.3,3.2l0.5,2.6l0.8,9.5l1.6,3l2.2,6.6l1,2.4l0.6,4l1,9.5l0.4,3.3l-0.1,3.4l2.3,4l5.7-1.3l-1.3-4.4l0.1-2l-1.4-13.4
		l-0.7-5l-1.2-2.8l-2.2-6.7l-1.4-2.6l-0.7-8.4l-0.5-2.7l-0.3-3.2l-0.7-3.2l-1.3-4.4l-3.6-6.8l-1.7-4.1l-1.9-2.4l-1.7-2.8l-2.8-1.9
		l-3.1-1.8l-5.2-0.1l-11.2-3.5l-7.8,0.2l-9.3-0.8l-12.6,2.9l-8.4,3.3l-7.5,4.6l-8.4,4.4l-3.3,2.2l-2.7,3.5l-0.3,5.4l2.2,5.1l0.2,1.1
		l-3.1,1.7l-3.7,5.5l-2.9,3l-2.1,6.8l0.4,4.4l4.4,7.5l2.2,1.4l0.4,0.4l-2.2,2.6l-2.2,2.7l-1.1,3.6l0.8,3.9l1.8,4.6l3.1,1l1.6,1
		l-0.1,1.4l9.6,3l-1.2,2l-0.3,3.4l3,4l2.1,2l4.2,1.3l6.3,3l2.9,0.2l2.3-0.5 M525.5,302.5L525.5,302.5l0.3,0.1l2.3,1.1l1.3,1.2
		l1.8,2.1l4.3,2l0.5,1.4l4.3,2.2l2.5,0.8l6.4,3.2l3.1,1l7.1-0.4l-0.8-6.6l-5.5,0.3l-1.3-0.4l-6.2-3.2l-2.6-0.9l-1.7-0.8l-0.5-1.5
		l-5.6-2.6l-1-1.2l-2.3-2.3l-3.4-1.6l-3.4-1.3l-2.6-0.2l-4.5-1.4l-2.5-1.9l-2.9-4.6l-2.1,1.3l-1.4,0.7l-1.8,1.3l-1.5-0.3l-1.2-0.4
		l-2,6.3l1.4,0.4l4.6,0.8l1.1-0.6l0.8-0.6l0.1,0.1l2.7,2"/>
	<path class="st0" d="M377.3,421.5l-1-0.5l0,0c0,0-2.2-0.7-9.2-1l-8.5-0.3l-24.4-2.1h-25.5l-10.1-0.8l-9.3-1.3l-7.6-0.8l-11.5-0.8
		l-9.3-0.9L250.4,400l-3.6-5.9l5.6-3.5l3.5,5.7l8.3,10.5l6.4,0.6l11.5,0.8l7.9,0.8l9.2,1.3l9.8,0.7h25.5l24.4,2.1l8.4,0.2
		c6,0.2,9.2,0.7,10.8,1.2l12.7-2.2h8.9l12.1-1l27.7-2.9l-2.2-4.2l-5.6-7.3l-7.2-13.7l-4.7-14l-3.4-12.1l-4.9-15.7l-3-10.4l-9.1-17.7
		l-7.4-10.7l-12.8-21.2l-11.8-20.5l-9.6-0.5l-5.9,0.2h-4.9l-6.6-0.2l-8.3-0.4l-7.5-1l-13,0.3l-10.5-0.7l-13,0.5l-9.4-1.4l-31.9,0.5
		L235,258l-11.4-0.7l-10.4-1l-9.3,0.8h-12l-7,2.7l2.4,4.2v16.5l1.7,6.3l3.2,10.9l2.5,4.3l3.9,8.3l-6,2.8l-3.8-8.1l-2.8-5l-3.4-11.4
		l-1.9-7.2v-15.6l-5.4-9.3l15.3-5.9h13.1l9.5-0.9l10.9,1.1l11.3,0.7l11.5,0.5l32.2-0.5l9.3,1.4l12.7-0.5l10.5,0.7l4.1-0.2l9.1-0.2
		l7.9,1.1l7.8,0.3l6.5,0.2h4.8l6.1-0.2l13.4,0.7l13.6,23.6l12.7,20.9l7.6,11.1l9.6,18.7l3.1,10.6l4.9,15.8l3.4,12l4.6,13.6l6.7,12.7
		l5.6,7.3l7,13.1l-37.5,3.9l-12.6,1h-8.7L377.3,421.5L377.3,421.5z"/>
	<path class="st0" d="M447.4,415.8l-1.9-6.3l14.7-4.3l4.5-2.4l17.4-3.4l13.5-5.8l9.8-3.9l16.8-7.1l12.8-3.5l11.4-6.3l5.9-5.9l5.2-5
		l-12.6,0c-6-0.7-12.7-1.5-13.6-1.5h-10.3c-0.2,0-0.8-0.1-1.7-0.2c-2.8-0.4-4.7-0.5-5.9-0.5c-1.9,2-6.2,1.8-10.3,1.5
		c-0.5,0-0.8,0-1,0h-10.6c-0.5,0-4.3,0.1-6.5,0.2c-1.1,0-1.8,0.1-1.9,0.1s-1.1,0-2.5-0.1c-3.2-0.1-8.5-0.2-9-0.2
		c-0.5,0-2.1-0.1-5.7-0.3c-1.4-0.1-2.6-0.2-2.8-0.2c-0.1,0-0.4,0-7.5-0.9l-25.5,0l-5.9-1.1h-7.5v-6.6l8.4,0l5.9,1.1l25.3,0
		c3.1,0.4,6.6,0.9,7.1,0.9c0,0,1.3,0.1,3,0.2c2.1,0.1,4.7,0.3,5.3,0.3c0.5,0,5.9,0.1,9.2,0.2l2.4,0.1l1.6-0.1
		c2.3-0.1,6.2-0.2,6.8-0.2h10.6c0.3,0,0.8,0,1.4,0.1c2.5,0.1,4.3,0.2,5.2,0.1c1.9-2.3,6.5-1.7,11.4-1c0.5,0.1,0.8,0.1,1,0.1h10.2
		c1.3,0,10.2,1.1,14.2,1.5h17l2.6,8.4l-8.2,7.9l-6.5,6.5l-13.3,7.3l-13,3.6l-16.2,6.9l-9.8,3.9l-14.4,6.1l-16.8,3.3l-4.6,2.4
		L447.4,415.8L447.4,415.8z M514.5,357.5C514.5,357.5,514.5,357.5,514.5,357.5C514.5,357.5,514.5,357.5,514.5,357.5z"/>
	<path class="st0" d="M441,292.7l-7.1-9.9l-7.6-16l-1.3-5l-3.6-9.6v-5.6l-1.8-7.4v-25.2l10.4-10.4h3.5l9.3-2.1
		c1.2-0.5,3.6-1.5,4.7-1.8c0.5-0.1,1.4-0.4,13.3-0.1l10-0.1l0.2,0c4.4,0.6,9.4,1.3,10.2,1.3c0.7,0,5.3-0.7,9.1-1.3l0.5,0h8.9
		l3.5-1.1l3.2,2.4l2.6,2.3l2.2,2.7v1.8h-4.1l-1.8,1.4l-1.2-1.5l-2.1-1.7l-1.3,0.4h-9.7c-3.3,0.5-8.6,1.4-9.9,1.4s-7.8-0.9-10.9-1.4
		l-9.6,0.1c-4.8-0.1-10.5-0.1-11.8-0.1c-0.6,0.2-2.4,0.9-3.8,1.5l-0.6,0.2l-10.6,2.3h-1.1l-6.5,6.5v22l1.8,7.4v4.8l3.4,8.9l1.3,4.9
		l7.2,14.8l4.2,5.8l9.2-1.5l24.8,0l11.6,1.8h2.2v6.6l-3,0l-11.6-1.8h-23.8L441,292.7L441,292.7z"/>
	<path class="st0" d="M459.5,223.7c-0.6,0-1.2,0-2-0.1l-11.9,0l-6.1-0.8h-8.6l-8.2-6.3l4-5.2l6.4,4.9l7,0l6.1,0.8l11.7,0
		c0.6,0.1,1.2,0.1,1.6,0.1c0.8-0.2,1.8-0.2,3.3-0.1c0.5,0,1.4,0.1,1.8,0.1c0.6-0.1,1.9-0.3,5.6,0h8l2-0.8l3.4,0.2l2-0.3l0.9-0.4
		l2.7,6l-1.8,0.8l-3.6,0.5l-2.5-0.1l-1.8,0.8h-9.8c-1.5-0.1-3.1-0.2-3.7-0.2c-0.9,0.2-1.9,0.2-3.6,0.1c-0.5,0-0.9-0.1-1.3-0.1
		C460.8,223.6,460.2,223.7,459.5,223.7L459.5,223.7z M466.4,223.4c0,0-0.1,0-0.2,0.1C466.3,223.4,466.3,223.4,466.4,223.4z
		 M464.8,217L464.8,217z"/>
	<path class="st0" d="M472.4,189.9l-0.4-0.3l-5.6-1.9l0.5-1.6l2.4-2.9l2.7-1.8l1.6-1.9l0.9-1.6l0-0.6l-0.8-0.9l-3-2.6
		c-1-1-1.6-1.7-2-2.4c-0.4-0.3-1.1-0.9-1.8-1.3l-4.7-2.9l0.1-4.4l1.5-6.7l4.9-4.5l6.9-4.3l3.5,5.6l-6.6,4.1l-2.6,2.5l-0.9,4.1l1.6,1
		c2,1.4,3.3,2.3,3.9,3.4c0.2,0.3,0.6,0.7,1,1.1l3.2,2.7l2.5,2.8l0.3,4.8l-2.3,3.9l-2.4,2.9l-2.8,1.8l-1,1.2l-0.1,0.4l-0.2-0.1
		L472.4,189.9L472.4,189.9z"/>
	<path class="st0" d="M359.2,139.7l-8.3-1.9l-6.2-1.8l-5.2-1.1l-5.6-3.2l-6.9-4.3l-4.8-4.7l-5.2-5.5l-1.2-1.6l-3.5-1.5l-0.8-1.8
		l-2.9-4.8l-3-3.5l-1.1-6.3l2-2.4l1.3-7.5l7.2-5.7l17.1-5.8l11.3-1.8l20.8,0l8.8,1.4l10.4,10.8v1.4l2.4,5.1l0.5,1.5l1.9,4.7l2.5,5.8
		v17.4l-0.2,0.5c-1.1,3.3-1.5,3.9-1.6,4.2c0,0.1-0.4,1.3-0.6,2.4l-0.2,0.7l-1.3,2.6l-4.8,2.6l-1.4,1.2l-7.9,1.4l-0.5,0.3l-4.7,0.4
		L359.2,139.7L359.2,139.7z M342,128.6l4.5,0.9l6.1,1.8l7,1.6l10.9-1.1l0.4-0.2l6.6-1.1l0.8-0.6l3.3-1.8l0.2-0.4
		c0.7-2.8,1.1-3.4,1.2-3.7c0.1-0.2,0.5-1.4,0.9-2.5v-15l-2-4.7l-2.5-6.5l-2.8-6.2l-7-7.3l-6.3-1h-19.7l-10.2,1.7l-15.2,5.2l-4.3,3.4
		l-1.1,6.7l-1.1,1.4l0.3,1.6l2.7,3.5l2.8,4.5l3.9,1.7l0.6,1.8l0.5,0.6l4.7,5l4.4,4.3L342,128.6L342,128.6z"/>
	<path class="st0" d="M386,97.4l-4.7-4.7c3.2-3.2,3.9-3.4,4.6-3.6c0.2-0.1,1.7-0.7,2.8-1.2l0.5-0.2l7-1.7h2.4l3.1-0.9h4v6.6h-3
		l-3.1,0.9h-2.9l-5.5,1.4c-1.6,0.7-2.5,1.1-3,1.2C387.8,95.7,386.8,96.6,386,97.4L386,97.4z M387.6,95.5L387.6,95.5L387.6,95.5z"/>
	<path class="st0" d="M388.4,106.1l-4.2-5.1l5.8-4.8l6.4-0.7c1-0.2,2.5-0.5,3.4-0.5c0.5,0,3.3-0.3,5.6-0.5l0.3,0h1.7v6.6h-1.6
		c-2,0.2-5.3,0.5-6.1,0.5c-0.2,0-1.3,0.2-2.1,0.4l-0.4,0.1l-4.6,0.5C392.7,102.6,388.4,106.1,388.4,106.1z"/>
	<path class="st0" d="M445.6,126.1l-3.4-0.1l-5.8-1.2l-4.5-0.6l-6.6-3.6l-6.5-4.6l-1.1-1.7l-5.9-6.6l-2.4-3.6l-2.6-4.9l-2.5-4.2
		l-2.3-5.2l-2.5-4.7l-2.8-4l-4.5-14.4h6.4c0.6-0.6,1.2-1.1,1.5-1.3c0.3-0.4,0.9-1,2.5-1.9l4.3-3c2.1-0.9,4.6-2.1,5.1-2.4
		c1-0.6,2-0.9,2.5-1c4.5-1.5,9.5-3.2,10.5-3.6c0.4-0.2,1.4-0.7,4.1-1.2c6.9-1.4,7.4-1.4,7.7-1.4c0.7,0,4.9-0.6,5.7-0.8
		c1.4-0.4,4.1-0.9,4.5-1c1.9-0.3,7.2-1.2,8.7-1.6c2.2-0.5,4.6-0.2,5.6,0l4.3-0.1l10.5,2.8l9.2,11.9l1.1,3.7l2.3,4.6
		c2,5.6,2.1,6.3,2.1,6.5c0.1,0.7,0.9,4.6,0.9,4.6c0.9,4.8,0.7,5.7,0.6,6.1c0,0.4,0,3,0,5.1v0.3l-1.2,7.9l-1.3,4.1l-1.5,2.7l-3.2,4.9
		l-2.2,2.7l-2.4,2l-4.5,2.9l-4,0.4l-2.4,0.5c-2.9,0.2-4,0.3-4.6,0.4c-0.4,0.1-1.2,0.4-2,0.7l-8.8,3L445.6,126.1L445.6,126.1z
		 M443.2,119.5h2.1l8.2-0.7l1.2-0.4l6.2-2.3c2.9-1.1,3.4-1.1,3.9-1.1c0.5,0,3.3-0.3,4.2-0.3l2.3-0.5l2.7-0.3l3-1.9l1.6-1.4l1.5-1.9
		l3-4.5l1.1-2l0.8-2.8l1-6.7c-0.1-4,0-5.3,0-5.8c0-0.6-0.3-2.4-0.6-4.1c0,0-0.7-3.9-0.9-4.6c-0.1-0.4-1-3.1-1.8-5.3l-2.4-4.8
		l-0.8-2.7l-7.1-9.1l-7.4-2l-4.2,0.1l-0.4-0.1c-0.7-0.2-2.1-0.3-3-0.1c-2.1,0.5-8.5,1.5-9.2,1.7c-1,0.2-2.9,0.5-3.7,0.8
		c-1.5,0.4-6.1,1-7.4,1.1c-0.6,0.1-3.9,0.7-6.6,1.3c-0.9,0.2-2,0.5-2.4,0.6c-0.5,0.3-2.1,0.9-11.7,4.1l-0.5,0.1c0,0-0.1,0.1-0.2,0.1
		c-0.6,0.4-2.6,1.4-5.8,2.7l-3.9,2.7c0,0-0.5,0.2-0.8,0.4c-0.4,0.4-1.1,1.1-3.1,2.9l-0.8,0.7l1.6,5l2.5,3.7l2.7,5.2l2.3,5.2l2.2,3.8
		l2.6,4.9l2,2.9l6,6.7l0.5,0.8l5.3,3.7l5,2.7l3.6,0.5L443.2,119.5L443.2,119.5z M486,86.7c0,0,0,0.1,0,0.1
		C485.9,86.8,486,86.7,486,86.7z M428.4,59.5C428.4,59.5,428.3,59.5,428.4,59.5C428.3,59.5,428.4,59.5,428.4,59.5z"/>
	<path class="st0" d="M445.8,222.1h-7v-6.6h5.5l7-3.4l7.3,0.5l4.3-0.5l4.1,0.5l5.7-0.5l0.5,0.1c0,0,0.1,0,0.3,0c0.1,0,0.3,0,0.5,0
		c1.1-0.2,4.9-0.5,5.7-0.5l0.4,0l3,0.5c0.8,0,2.8,0,3.2,0c0.4-0.1,2.8-0.5,2.8-0.5l1.1-0.1h2.2v6.6l-2.3,0.1
		c-2.8,0.5-3.2,0.5-3.4,0.5c-0.1,0-0.5,0-4,0l-0.5-0.1l-2.5-0.4c-1.8,0.1-4.2,0.3-4.8,0.4c-1,0.2-1.9,0.1-2.5,0.1l-5.6,0.5l-4-0.5
		l-4.1,0.5l-6.2-0.4L445.8,222.1L445.8,222.1z"/>
	<path class="st0" d="M297.3,372.1l-6-1l-6.5-2.4l-0.5-0.5c0,0-1-1-1.6-1.8c-0.5-0.6-2.4-2.7-2.4-2.7l4.9-4.4c0,0,2.1,2.3,2.6,3
		c0.2,0.2,0.4,0.5,0.6,0.7l4.8,1.7l4.5,0.6c2,0,4.4-0.2,5-0.3c0.5-0.1,1.8-0.4,6.5-0.8l9.2-1.2l5.7-2.7l3.7-6.1l-1.5-11.6l-3-6.8
		l-17-3.8l3.5-19l-15.1-1.2l-12,2.2l-7.3,4.4l-3.4-5.7l8.3-5l14-2.5l23.3,1.8l-3.7,20l14,3.1l4.7,10.7l1.9,14.8l-6,9.9l-8.4,4
		l-10.3,1.3c-2.2,0.2-4.9,0.5-5.5,0.6c-0.3,0.1-1.1,0.4-6.9,0.5L297.3,372.1L297.3,372.1z"/>
	<path class="st0" d="M444.1,408l-1.3-6.5l6.7-1.4l3.4-1.2l5-2.1l5.7-2.2c1.8-0.8,5.2-2.2,5.8-2.5c1-0.5,7.4-3.4,8.1-3.7l4-1.7
		l6.2-2.3l8.9-4.4l8.3-2c2.5-1.9,2.8-2,3-2.1c0.5-0.3,5.1-3,5.1-3l0.2-0.1l2.9-1.4l5-2.1l-6.3-0.3l-4.8-0.4l-7.6,0.5l-6,0.5
		c-2.1,0.1-4.5,0.2-5,0.3c-0.7,0.1-2.4,0.3-8.1,1l-0.3,0l-10.4-0.9c-1.4,0-8.2,0.2-8.2,0.2l-6.7,0.2l-5.7-0.3h-6.2l-3.9-0.1
		c0,0-5.4,0.2-5.7,0.2c-0.4,0-3.6,0.1-3.6,0.1h-0.3l-3.7-0.6l-3.8,0.1l-0.1-6.6l4.3-0.1l3.7,0.6c0.9,0,3.2-0.1,3.5-0.1
		c0.5,0,5.7-0.2,5.7-0.2l4,0.1h6.4l5.6,0.3l6.4-0.2c0,0,7.5-0.2,8.5-0.2h0.3l9.9,0.9c3.2-0.4,6.6-0.8,7.3-0.9
		c0.5-0.1,1.6-0.2,5.8-0.4l6-0.5l8.1-0.5l5.2,0.4l18.5,0.9v5.7l-3.5,3.3l-3.8,1.9l-7.6,3.2l-2.6,1.3c-4.9,2.9-5.3,3-5.4,3.1
		c-0.4,0.2-2.5,1.9-2.5,1.9l-0.6,0.4l-9.3,2.2l-8.3,4.2l-6.2,2.3l-3.8,1.6c-2.6,1.2-7.1,3.2-7.8,3.5c-1,0.5-5.4,2.4-6.3,2.7
		l-5.7,2.2l-5.1,2.1l-4.2,1.4L444.1,408L444.1,408z"/>
	<polygon class="st0" points="427.2,378.5 423.6,373 430.6,368.4 434,367.3 436.2,364.2 441.6,368 438.1,373 433.5,374.4 	"/>
	<path class="st0" d="M431.6,390l-2.9-6l8.3-4c3-1.7,4.1-2.4,4.6-2.6c0.5-0.3,2-1.5,3.4-2.5l1.1-1.3l1.8-2.5l1.2-2.3l2-2.7l1-0.9
		l4.5,4.9l-0.7,0.7l-1.2,1.7l-1.1,2.2l-2.1,3l-2,2.2c-3.6,2.7-4.3,3.2-4.8,3.4c-0.6,0.3-2.6,1.5-4.3,2.5L440,386L431.6,390
		L431.6,390z"/>
	<path class="st0" d="M438.3,399.8l-2.8-6l9-4.2l10.8-5.4c0.8-0.5,3.4-2.4,3.7-2.5l0.6-0.4c1.6-1.2,2.4-1.7,2.9-2
		c0.6-0.6,2.5-2.5,4-4.1l0.4-0.4c0,0,1.9-1.4,2.3-1.7c0.2-0.2,1.5-1.4,2.6-2.6c1.1-2.6,1.5-3.1,2.3-3.7c0.2-0.2,3.5-2.2,3.5-2.2
		l3.5,5.6c0,0-1.7,1.1-2.7,1.7c-0.2,0.5-0.5,1.1-0.7,1.7l-0.2,0.6l-0.5,0.5c-3.3,3.2-3.6,3.5-3.8,3.7c-0.3,0.2-1.6,1.2-2.1,1.6
		c-3.9,4-4.6,4.7-5.3,5c-0.5,0.4-1.7,1.2-2.4,1.7c-0.4,0.3-0.7,0.5-0.8,0.5c-0.3,0.2-3.8,2.6-3.8,2.6l-0.4,0.2l-11.1,5.5
		L438.3,399.8L438.3,399.8z"/>
	<path class="st0" d="M452.4,381.2l-9.9-1.7l-16.2,1.2l-0.5-6.6l17-1.3l10,1.7l9.5-0.4l10.2-1.3c0.5,0,5.3-0.1,7,0
		c1.1,0.1,5.6,0,8.5,0l3.9-0.4l8.8-0.4h5.9c0.6-0.1,3-0.3,3.5-0.4c0.2,0,0.5-0.1,3.8-0.1l3.3-0.4l0.8,6.6l-3.8,0.4H514
		c-1.1,0-2.4,0-2.8,0c-0.4,0.1-1.4,0.2-4.1,0.4h-0.3l-5.9,0l-8.5,0.4l-4.1,0.5c-0.8,0-7.4,0.1-9,0c-1.1-0.1-4.8,0-6.4,0l-10.1,1.3
		L452.4,381.2L452.4,381.2z"/>
	<polygon class="st0" points="482.6,392.5 472.4,392.5 468,391.9 462,391.8 455.9,391.4 429.7,387.9 430.6,381.4 456.6,384.8 
		462.4,385.2 468.7,385.3 473,385.9 481.5,385.9 485.2,384.7 489.7,383.7 491,390.2 486.8,391.1 	"/>
</g>
<g class="st1">
	<path class="st0" d="M2.3,162.7l5.5-6c3,3.1,6.3,4.6,10.1,4.6c4.2,0,6.8-1.9,6.8-5c0-2.5-1.7-3.8-6.8-5.2l-2-0.5
		c-8.1-2.1-12.2-6.1-12.1-12c0-7.3,6.3-12.7,14.9-12.7c5.4,0,10.5,2.3,14.4,6.2l-5.4,6.1c-2.7-2.8-5.7-4.2-9-4.2
		c-3.7,0-6.3,1.9-6.3,4.5c0,2.1,1.5,3.2,5.7,4.3l2,0.5c9.1,2.5,13.3,6.4,13.3,12.8c0,7.8-6.4,13.2-15.4,13.2
		C11.9,169.4,6.4,167.1,2.3,162.7z"/>
	<path class="st0" d="M35.2,153.7c0-9.2,6.7-15.7,15.7-15.7c9,0,15.2,6.5,15.2,15.7c0,0.9-0.1,1.8-0.2,2.7H43.5
		c0.7,3.9,3.8,6.4,7.9,6.4c3.1,0,5.3-1.4,6.4-3.8l7.2,2.7c-2.4,4.7-7.1,7.7-13.6,7.7C41.8,169.4,35.2,162.7,35.2,153.7z M57.7,150.1
		c-0.4-3.1-3-5.4-6.8-5.4c-3.6,0-6.4,2.1-7.2,5.4H57.7z"/>
	<path class="st0" d="M67.8,153.7c0-9,6.7-15.7,15.7-15.7c8.9,0,15.7,6.8,15.7,15.7c0,9-6.8,15.7-15.7,15.7
		C74.5,169.4,67.7,162.6,67.8,153.7z M91.3,153.7c0-4.8-3.3-8.2-7.8-8.2c-4.6,0-7.8,3.4-7.8,8.2c0,4.8,3.2,8.2,7.8,8.2
		C88,161.9,91.3,158.5,91.3,153.7z"/>
</g>
<g class="st1">
	<path class="st0" d="M102.8,138.7h8.2v4.3h0.2c1.5-3.2,4.4-5.1,7.8-5.1c1,0,1.9,0.2,2.9,0.5v7.8c-1.2-0.3-2.5-0.5-3.5-0.5
		c-4.8,0-7.4,3.3-7.4,9.2v13.7h-8.2V138.7z"/>
</g>
<g class="st1">
	<path class="st0" d="M124.2,153.7c0-9,6.7-15.7,15.7-15.7c8.9,0,15.7,6.8,15.7,15.7c0,9-6.8,15.7-15.7,15.7
		C131,169.4,124.2,162.6,124.2,153.7z M147.8,153.7c0-4.8-3.3-8.2-7.8-8.2c-4.6,0-7.8,3.4-7.8,8.2c0,4.8,3.2,8.2,7.8,8.2
		C144.5,161.9,147.7,158.5,147.8,153.7z"/>
	<path class="st0" d="M177.5,156.6h-18.4v-7.2h18.4V156.6z"/>
	<path class="st0" d="M182.4,138.7h8.2v4.4h0.2c1.5-3.2,4.6-5.2,8.6-5.2c4.3,0,7.4,2.3,9,6.4h0.2c1.3-3.9,4.8-6.4,9.3-6.4
		c6.4,0,10.3,4.9,10.3,13v17.7h-8.2v-16.3c0-4.3-1.9-6.8-4.9-6.8s-5.6,2.4-5.6,8v15.2h-8.2v-16.3c0-4.3-1.9-6.8-4.9-6.8
		s-5.6,2.4-5.6,8v15.2h-8.2V138.7z"/>
	<path class="st0" d="M254.3,168.6v-4.1H254c-1.9,3.3-4.9,4.9-8.8,4.9c-8.2,0-14-6.8-13.9-15.7c0-9,5.8-15.7,13.9-15.7
		c3.9,0,6.9,1.6,8.8,4.9h0.2v-4h8.2v29.8H254.3z M254.5,153.7c0-4.8-3.2-8.2-7.5-8.2c-4.4,0-7.5,3.4-7.5,8.2c0,4.8,3.1,8.2,7.5,8.2
		C251.3,161.9,254.5,158.5,254.5,153.7z"/>
	<path class="st0" d="M267.1,126.7h8.2v41.9h-8.2V126.7z"/>
	<path class="st0" d="M279,175l5.3-4.9c2.6,3.2,5.3,4.6,8.7,4.6c5.3,0,8.4-3.3,8.4-9.1v-1.9h-0.2c-1.9,3.2-4.9,4.7-8.8,4.7
		c-8.2,0-14-6.6-13.9-15.3c0-8.7,5.8-15.3,13.9-15.3c3.9,0,6.9,1.5,8.8,4.7h0.2v-3.9h8.2v26.8c0,10.2-6.2,16.3-16.2,16.3
		C287.3,181.9,283,179.6,279,175z M301.7,153.2c0-4.7-3.2-8-7.5-8c-4.4,0-7.5,3.3-7.5,8c0,4.7,3.1,8,7.5,8
		C298.5,161.2,301.7,157.9,301.7,153.2z"/>
	<path class="st0" d="M314.3,138.7h8.2v4.4h0.2c1.5-3.2,4.6-5.2,8.6-5.2c4.3,0,7.4,2.3,9,6.4h0.2c1.3-3.9,4.8-6.4,9.3-6.4
		c6.4,0,10.3,4.9,10.3,13v17.7h-8.2v-16.3c0-4.3-1.9-6.8-4.9-6.8c-3.1,0-5.6,2.4-5.6,8v15.2H333v-16.3c0-4.3-1.9-6.8-4.9-6.8
		c-3.1,0-5.6,2.4-5.6,8v15.2h-8.2V138.7z"/>
</g>
<g class="st1">
	<path class="st0" d="M2.3,215.2l5.5-6c3,3.1,6.3,4.6,10.1,4.6c4.2,0,6.8-1.9,6.8-5c0-2.5-1.7-3.8-6.8-5.2l-2-0.5
		c-8.1-2.1-12.2-6.1-12.1-12c0-7.3,6.3-12.7,14.9-12.7c5.4,0,10.5,2.3,14.4,6.2l-5.4,6.1c-2.7-2.8-5.7-4.2-9-4.2
		c-3.7,0-6.3,1.9-6.3,4.5c0,2.1,1.5,3.2,5.7,4.3l2,0.5c9.1,2.5,13.3,6.4,13.3,12.8c0,7.8-6.4,13.2-15.4,13.2
		C11.9,221.9,6.4,219.6,2.3,215.2z"/>
</g>
<g class="st1">
	<path class="st0" d="M34.6,191.2h5v-7.4h8.2v7.4h6.9v6.4h-6.9V210c0,2.9,1.1,4.1,3.9,4.1c0.9,0,1.9-0.1,3.1-0.5v7.5
		c-1.4,0.5-2.9,0.8-4.7,0.8c-6.7,0-10.4-4.1-10.4-11.5v-12.8h-5V191.2z"/>
	<path class="st0" d="M86.4,221.1h-8.2v-4.4H78c-1.6,3.2-4.9,5.2-9.2,5.2c-6.8,0-10.7-4.9-10.7-13v-17.7h8.2v16.3
		c0,4.3,2,6.8,5.6,6.8c3.2,0,5.9-2.1,6.3-6.9v-16.2h8.2V221.1z"/>
	<path class="st0" d="M112.6,221.1V217h-0.2c-1.9,3.3-4.9,4.9-8.8,4.9c-8.2,0-14-6.8-13.9-15.7c0-9,5.8-15.7,13.9-15.7
		c3.9,0,6.9,1.6,8.8,4.9h0.2v-16.1h8.2v41.9H112.6z M112.9,206.1c0-4.8-3.2-8.2-7.5-8.2c-4.4,0-7.5,3.4-7.5,8.2
		c0,4.8,3.1,8.2,7.5,8.2C109.7,214.4,112.8,211,112.9,206.1z"/>
	<path class="st0" d="M124.7,182c-0.1-2.7,2.1-4.8,4.9-4.8c2.7,0,4.9,2.1,4.9,4.8c-0.1,2.7-2.2,4.8-4.9,4.8
		C126.8,186.8,124.6,184.8,124.7,182z M125.5,191.2h8.2v29.8h-8.2V191.2z"/>
	<path class="st0" d="M136.8,206.1c0-9,6.7-15.7,15.7-15.7c8.9,0,15.7,6.8,15.7,15.7c0,9-6.8,15.7-15.7,15.7
		C143.5,221.9,136.8,215.1,136.8,206.1z M160.3,206.1c0-4.8-3.3-8.2-7.8-8.2c-4.6,0-7.8,3.4-7.8,8.2c0,4.8,3.2,8.2,7.8,8.2
		C157.1,214.4,160.3,211,160.3,206.1z"/>
</g>
</svg>
