<?xml version="1.0" encoding="UTF-8"?>
<svg id="_레이어_1" data-name="레이어 1" xmlns="http://www.w3.org/2000/svg" viewBox="0 0 225.73 225.73">
  <defs>
    <style>
      .cls-1 {
        fill: none;
        stroke: #2f318e;
        stroke-miterlimit: 10;
        stroke-width: 3px;
      }

      .cls-2 {
        fill: #2f318e;
      }
    </style>
  </defs>
  <g>
    <path class="cls-2" d="m24.37,85.39c-1.88,0-3.33-.92-3.36-2.51h1.95c.05.68.53,1.12,1.37,1.12s1.36-.42,1.36-1.03c0-1.82-4.67-.72-4.66-3.78,0-1.52,1.32-2.44,3.19-2.44s3.13.88,3.24,2.4h-2c-.04-.55-.52-.99-1.3-1-.71-.02-1.25.3-1.25.99,0,1.69,4.64.75,4.64,3.72,0,1.33-1.14,2.52-3.2,2.52Z"/>
    <path class="cls-2" d="m31.76,85.41c-2.09,0-3.61-1.35-3.61-3.45s1.48-3.45,3.61-3.45,3.54,1.32,3.54,3.31c0,.22-.01.43-.05.65h-5.25c.09.99.82,1.54,1.73,1.54.78,0,1.21-.36,1.44-.81h1.96c-.39,1.23-1.58,2.21-3.36,2.21Zm-1.75-4.08h3.41c-.03-.88-.78-1.44-1.71-1.44-.87,0-1.56.52-1.7,1.44Z"/>
    <path class="cls-2" d="m39.29,85.41c-2.08,0-3.64-1.35-3.64-3.45s1.62-3.45,3.7-3.45,3.7,1.34,3.7,3.45-1.66,3.45-3.75,3.45Zm0-1.47c.96,0,1.88-.65,1.88-1.98s-.89-1.98-1.85-1.98-1.83.64-1.83,1.98.83,1.98,1.8,1.98Z"/>
    <path class="cls-2" d="m45.67,85.3h-1.82v-6.69h1.82v1.04c.45-.69,1.21-1.13,2.21-1.13v1.77h-.48c-1.08,0-1.72.39-1.72,1.68v3.33Z"/>
    <path class="cls-2" d="m51.76,85.41c-2.08,0-3.64-1.35-3.64-3.45s1.62-3.45,3.7-3.45,3.7,1.34,3.7,3.45-1.66,3.45-3.75,3.45Zm0-1.47c.96,0,1.88-.65,1.88-1.98s-.89-1.98-1.85-1.98-1.83.64-1.83,1.98.83,1.98,1.8,1.98Z"/>
    <path class="cls-2" d="m56.35,80.28h5.5v1.42h-5.5v-1.42Z"/>
    <path class="cls-2" d="m63.37,76.88h2.06l2.88,6.26,2.88-6.26h2.05v8.42h-1.82v-5.48l-2.43,5.48h-1.37l-2.44-5.48v5.48h-1.82v-8.42Z"/>
    <path class="cls-2" d="m77.32,78.51c1.15,0,1.95.51,2.37,1.06v-.95h1.83v6.69h-1.83v-.98c-.43.58-1.25,1.09-2.39,1.09-1.82,0-3.27-1.39-3.27-3.48s1.45-3.43,3.28-3.43Zm.47,1.48c-.97,0-1.89.68-1.89,1.94s.92,1.99,1.89,1.99,1.91-.7,1.91-1.97-.91-1.97-1.91-1.97Z"/>
    <path class="cls-2" d="m82.78,76.37h1.82v8.93h-1.82v-8.93Z"/>
    <path class="cls-2" d="m88.68,78.51c1.13,0,1.95.48,2.37,1.06v-.95h1.83v6.73c0,1.81-1.19,3.25-3.55,3.25-2.02,0-3.44-.94-3.62-2.47h1.8c.18.6.86,1,1.76,1,1,0,1.78-.53,1.78-1.77v-1.04c-.43.58-1.25,1.1-2.37,1.1-1.83,0-3.28-1.39-3.28-3.48s1.45-3.43,3.28-3.43Zm.47,1.48c-.97,0-1.89.68-1.89,1.94s.92,1.99,1.89,1.99,1.91-.7,1.91-1.97-.91-1.97-1.91-1.97Z"/>
    <path class="cls-2" d="m104.19,81.61c0-1.06-.63-1.62-1.59-1.62s-1.61.55-1.61,1.62v3.69h-1.82v-3.69c0-1.06-.64-1.62-1.6-1.62s-1.62.55-1.62,1.62v3.69h-1.82v-6.69h1.82v.81c.45-.56,1.22-.91,2.11-.91,1.12,0,2.04.45,2.53,1.28.47-.76,1.41-1.28,2.46-1.28,1.72,0,2.94,1.01,2.94,2.86v3.92h-1.82v-3.69Z"/>
    <path class="cls-2" d="m24.37,96.13c-1.88,0-3.33-.92-3.36-2.51h1.95c.05.68.53,1.12,1.37,1.12s1.36-.42,1.36-1.03c0-1.82-4.67-.72-4.66-3.78,0-1.52,1.32-2.44,3.19-2.44s3.13.88,3.24,2.4h-2c-.04-.55-.52-.99-1.3-1-.71-.02-1.25.3-1.25.99,0,1.69,4.64.75,4.64,3.72,0,1.33-1.14,2.52-3.2,2.52Z"/>
    <path class="cls-2" d="m28.9,90.75h-.86v-1.39h.86v-1.65h1.83v1.65h1.61v1.39h-1.61v3.24c0,.45.19.64.77.64h.84v1.42h-1.14c-1.37,0-2.29-.54-2.29-2.08v-3.22Z"/>
    <path class="cls-2" d="m39.91,96.04h-1.83v-.84c-.45.57-1.25.93-2.14.93-1.67,0-2.88-1.01-2.88-2.85v-3.92h1.82v3.68c0,1.07.64,1.65,1.6,1.65s1.61-.58,1.61-1.65v-3.68h1.83v6.69Z"/>
    <path class="cls-2" d="m44.01,89.25c.95,0,1.85.41,2.35,1.04v-3.17h1.84v8.93h-1.84v-.99c-.43.62-1.23,1.1-2.36,1.1-1.83,0-3.28-1.39-3.28-3.48s1.45-3.43,3.29-3.43Zm.45,1.48c-.97,0-1.89.68-1.89,1.94s.92,1.99,1.89,1.99,1.91-.7,1.91-1.97-.91-1.97-1.91-1.97Z"/>
    <path class="cls-2" d="m49.26,87.57c0-.56.47-.99,1.12-.99s1.12.43,1.12.99-.48.99-1.12.99-1.12-.43-1.12-.99Zm.19,1.79h1.82v6.69h-1.82v-6.69Z"/>
    <path class="cls-2" d="m55.73,96.15c-2.08,0-3.64-1.35-3.64-3.45s1.62-3.45,3.7-3.45,3.7,1.34,3.7,3.45-1.66,3.45-3.75,3.45Zm0-1.47c.96,0,1.88-.65,1.88-1.98s-.89-1.98-1.85-1.98-1.83.64-1.83,1.98.83,1.98,1.8,1.98Z"/>
  </g>
  <path class="cls-2" d="m75.01,168.11l-3.39-1.32-1.65-.78-1.03-.4.65-1.04.53-2.21-.51-2.77-2.18-1.63-2.45-1.07-3.56.66-1.78-.36.57-.82.56-1.8-1.08-2.61-.88-.81-2.33-1.62-1.51.06-2.73-.67-1.65-.6-1.98.24-.71-.18-3.26.54-3.28.37-1.87.34-2.33.67-2.24,1.22-1.35.84-1.3,1-1.48,1.05-1.14.67-1.21.86-.97.55-2.81,1.83-1.13,1.47-.92.91-.86.7-.94.91-1.04.9-.23.25c-3.31,4.54-2.37,5.84-2.02,6.32.76,1.05,1.44,1.54,1.57,1.63l2.49,1.49,2.97-.31.36.07-.96.87-1.6,3.27,1.44,2.34,2.35,2.54,2.87-.53,1.36.03-2.35,1.88.7,4.73,4.1,3.07,1.07-.66,1.44,2.68,1.94,2.42,3.61-.23,2.11-.04,3.91-.41,2.61-.48,1.67-.08,3.16-.22,3-1.67-1.46-2.62-2.42,1.34-2.75.19-1.84.12-2.42.45-3.6.38-2.11.04-2.14.13-.71-.88-.18-.33,2.06-1.38-1.84-3.22-2.14-.89-2.83,1.74-1.48-1.11-.27-1.8,2.22-1.77.96-3.24-2.81-1.11-2.7-.06-1.72.29-.94-1-.49-.8.62-1.26,2.51-2.27-1.12-2.95-3.1-.59-2.42.25-1.48-.88c-.08-.07-.31-.26-.6-.61.19-.6.91-1.88,1.68-2.96l.97-.84.85-.82.87-.7,1.16-1.13,1.01-1.29,2.28-1.5.99-.56,1.25-.88,1.14-.67,1.69-1.19,1.16-.9,1.22-.76,1.72-.97,1.94-.57,1.64-.3,3.31-.37,2.72-.45.65.16,1.81-.22,1.05.38,3.38.84.94-.04,1.25.86.32.29.41.99-.1.33-.67.98-.38,1.02-3.04.56h-1.74s-1.74-.17-1.74-.17l-1.95.8-4.4.81-1.66,1.06-.94.27-2.02.95-2.09,1.27-1.16-1.34-2.27,1.97,2.71,3.12,1.16-1.01.42.44.56-.54,1.8-1.03,1.83-.98,1.24-.35,1.54-.98,3.98-.73,1.71-.67,1.07.1,2.07.02,2.8-.49,1.38.45,1.8-.33,1.89.39,3.26-.6,1.14.47,1.08.81.18.99-.27,1.11-.96,1.55-1.2-.12-2.01-.12-2.85.39-2.9.53-3.06.83-2.28,1.26-7.81,1.44-2.64,1.41-.28-1.52-2.95.54.41,2.2,1.2,2.43,1.37.81,1.43.31.7.11.41-2.71,1.34-.72,7.88-1.45,2.21-1.27,2.69-.74,2.79-.51,2.34-.35,1.8.1,1.84.17,1.09.23,1.4.53,1.64.78,1.98.78.13.69-2.63,1.32-3.27,1.42-.99-.17-6.66-.02-2.54.44-2.75,1.37-2.03.79-1.38.7-2.08.72-1.01-.79-1.85,2.36.35.28-.28.25,1.98,2.26,1.69-1.48,2.29-.8,1.44-.72,2.03-.78,2.57-1.27,1.72-.32h6.15s3.55.6,3.55.6l.2.47-1.13,1.07-2.31,1.44-5.74.97-5.45,2.43-5.23,3.23,1.58,2.55,4.97-3.08,5-2.24,5.95-1.01,2.94-1.83,3.01-2.81-1.44-3.32,4.72-2.37-.84-4.55Z"/>
  <g>
    <path class="cls-2" d="m156.74,63.6l-3.47-.03-2.26-.42-1.28-.56-1.6-.33-1.54-1.04-2.11-.88-1.42-1.01-1.46-1.54-1.85-1.14-1.26-2.26-1.87-3.02-.45-1.26-1.11-2-.44-1.92-.91-3.26-.07-2.38.75-1.62.28-1.19.73-1.77,2.12-2.62,1.36-.86,3.11-.09,1.8.68,1.62.82,1.5.91,1.15.78,1.56,1.16,1.41,1.93,2.51,1.61,1.1,1.3,1.8,1.98,1.3,2.58.49,1.21.81,1.45,2.8,6.44.36,2.43-1.45,2.82-1.41,2.02-2.56,1.09Zm-3.1-3.01h2.49s1.2-.51,1.2-.51l.86-1.23.86-1.69-.16-1.08-.97-2.18-1.65-3.85-.83-1.49-.5-1.24-1.04-2.06-2.41-2.72-2.6-1.67-1.47-2.01-1.15-.85-1.03-.7-1.38-.84-1.39-.71-1.02-.38-1.7.05-.25.16-1.53,1.89-.51,1.24-.32,1.29-.52,1.13.04,1.48.82,2.79.37,1.59,1.07,1.96.44,1.22,1.68,2.66.92,1.65,1.65,1.08,1.48,1.56.91.62,2.1.88,1.18.8,1.47.34,1.26.55,1.6.27Z"/>
    <path class="cls-2" d="m109.73,70.06l-2.61.04-2.72-.57-2.82-.84-1.58-.62-1.68-1.78-2.68-1.16-1.71-1.74-.87-1.71-1.23-1.42-1.55-2.2-1.4-2.75-1.46-2.39-.09-3.18.18-2.67.99-2.17,1.57-1.59,2.1-1.2,3.22-.07,1.82.29,1.18.97,1.71,1.17,2.61,2.21.76.99,1.7,2.06,2.48,1.61,1.57,1.92.79,1.86,1.54,2.22,2.63,6.15-.8,2.7-1.34,1.43-.64.87-1.65,1.58Zm-2.17-2.94l.93-.03.71-.68.56-.77.92-.99.29-.98-2.15-5.03-1.53-2.21-.68-1.62-1-1.23-2.47-1.61-2.72-3.35-2.17-1.79-1.73-1.18-.6-.5-.88-.14-2.05.06-1.09.62-.9.91-.54,1.18-.14,2.06.06,2.17,1.13,1.86,1.37,2.7,1.33,1.86,1.42,1.69.75,1.46.98,1,2.7,1.17,1.65,1.74.89.35,2.57.76,2.37.5Z"/>
    <polygon class="cls-2" points="120.86 96.29 118.97 96.35 117.17 95.63 115.35 94.17 113.79 92.68 112.01 93.1 111.31 88.61 111.27 86.52 111.75 83.73 112.71 81.97 113.3 81.06 113.61 78.57 116.59 78.94 116.19 82.12 115.26 83.55 114.62 84.74 114.25 86.86 114.3 88.42 114.47 89.45 114.56 89.42 116.15 90.74 117.4 91.97 118.69 93.01 119.51 93.33 120.77 93.3 120.86 96.29"/>
    <polygon class="cls-2" points="133.39 37.81 130.4 37.9 130.25 32.98 132.51 29.17 134.1 26.29 135.31 24.74 137.54 22.56 139.42 21.38 142.26 19.7 145.98 18.37 147.79 17.57 152.42 16.62 154.64 16.56 159.3 15.52 161.05 15.46 161.14 18.46 159.53 18.51 154.87 19.55 152.64 19.62 148.58 20.47 147.05 21.17 143.41 22.47 139.28 25.01 137.5 26.8 136.55 28.03 135.11 30.65 133.27 33.76 133.39 37.81"/>
  </g>
  <polygon class="cls-2" points="141.8 46.82 144.14 45.02 148.19 46.03 150.48 48.69 153.27 54.02 153.67 56.37 153.73 58.39 153.58 59.52 152.52 60.42 151.27 61.13 149.24 61.19 143.6 57.01 142.46 55.35 141.47 53.47 140.29 51.7 140.01 49.84 140.16 48.41 140.51 47.65 141.09 46.95 141.8 46.82"/>
  <polygon class="cls-2" points="108.7 67.61 106.54 69.62 102.42 69.01 99.88 66.58 96.6 61.54 95.97 59.23 95.72 57.23 95.76 56.09 96.73 55.09 97.91 54.27 99.92 54.01 105.94 57.64 107.23 59.18 108.4 60.96 109.74 62.6 110.19 64.44 110.19 65.87 109.91 66.66 109.4 67.41 108.7 67.61"/>
  <path class="cls-2" d="m170.76,151.54l-1.77-.24-1.94-1.19-.95-1.13-.69-.83.17-.29,4.03-4.09,1.12-.54,3.62-2.32,1.75-.77,2.21-.54-.32-1.3.42-1.35-.13-1.42-2.99.27.07.83-.21.67-2.13.92-2.51,1.61-.54-.09-.8-.25-.43,1.38-.13.06-.82-.73-.32.36-.98.74-.21.67.69.21-1.96,1.99.04-.34-.89-.09-2.48-.77v-.03s-2.5-1.62-2.5-1.62l-.45-.14-.15-.39-.18-.9.11-.36,1.61-1.93,1.34-.49,1.56-.92,1.74-1.57,1.52-1.08,1.61-.54,2.1-.98,2.46-.73,2.54-.93,3.2-2.46-1.83-2.38-2.84,2.18-2.01.74-2.48.74-1.99.92-.41-.34-.9-.28-.73-.54-1.77,2.42.46.34-.74.53-1.62,1.48-.39.24-.85-.26-.54-.48-.64-.44-1.32-2.24-.06-.72.58-1.87.91-.96,1.51-2.19,2.52-1.39,1.79-.91,1.61-.68,5.42-.94,3.24-.77,2.74-1.92-1.72-2.46-2.27,1.59-2.52.6-3.15.52-2.44.45-2.12.86-.8.41-.71.39-.32-1.14.16-.53.29-1.77,1.21-.8,3.92-2.09,2.71-1.67,3.38-1.32,5.16-1.17,3.91.34,3.21-.09,4.16,1.29.77.25,2.07.04,1.33.84.5.79.75.94.64,1.56.97,1.73.59,1.12.5,1.65.24,1.17.15,1.46.24,1.2.37,4.33.75,1.37.98,3.01.47,1.09.27,1.82.43,4.33.17,1.48-.06,1.54,1.06,1.82,2.57-.57-.59-2,.04-.9-.63-6.06-.33-2.29-.56-1.28-.99-3.05-.62-1.2-.33-3.8-.25-1.23-.15-1.46-.3-1.47-.59-1.98-1.65-3.07-.77-1.88-.87-1.07-.79-1.25-1.27-.86-1.42-.83-2.35-.05-5.08-1.57-3.54.09-4.21-.37-5.73,1.3-3.83,1.48-3.41,2.08-3.8,2.02-1.48.98-1.22,1.58-.16,2.46.98,2.29.09.51-1.42.78-1.69,2.49-1.31,1.38-.96,3.09.17,2.01,2,3.39.98.65.18.16-1.02,1.19-.99,1.24-.51,1.62.35,1.78.8,2.11,1.43.44.72.47-.03.63,4.35,1.35-.56.89-.15,1.54,1.38,1.82.98.92,1.9.59,2.85,1.37,1.31.1,1.03-.24m8.54-.62v-.02s.14.05.14.05l1.05.49.58.57.83.96,1.94.92.21.64,1.96.99,1.13.37,2.89,1.47,1.43.46,3.22-.18-.37-2.98-2.49.14-.58-.18-2.83-1.44-1.17-.39-.75-.38-.23-.68-2.53-1.2-.46-.53-1.06-1.05-1.56-.74-1.56-.59-1.2-.07-2.06-.64-1.13-.85-1.32-2.07-.94.6-.63.33-.8.58-.69-.12-.55-.17-.89,2.86.64.2,2.1.38.48-.3.36-.25.07.07,1.21.92"/>
  <path class="cls-1" d="m30.42,157.07l-1.77-3.77-1.18-2-.82-2.82-.71-2.35-.82-3.06v-7.3l-1.77-3.06,5.06-1.96h5.73l4.24-.38,4.79.46,5.18.31,5.26.24,9.81-.16,4.79-.08,4.24.63,5.83-.24,4.76.31,1.96-.08,4-.08,3.53.47,3.61.16,2.98.08h2.2l2.75-.08,5.22.27,5.77,10,5.77,9.53,3.41,4.94,4.24,8.24,1.41,4.83,2.24,7.18,1.53,5.41,2.13,6.36,3.17,6,2.47,3.18,2.12,3.99-14.83,1.53-5.56.47h-4.09l-5.88,1.06s-.94-.47-4.83-.59l-3.88-.12-11.06-.94h-11.53l-4.59-.35-4.12-.59-3.53-.35-5.3-.35-3.54-.35-4.24-5.34-1.65-2.68"/>
  <path class="cls-1" d="m144.35,202.85l6.83-2,2-1.06,7.83-1.52,6.29-2.71,4.43-1.77,7.46-3.18,6-1.65,5.53-3.06,2.82-2.82,3.06-2.94-.59-1.88h-6.71s-5.77-.71-6.36-.71h-4.71c-.35,0-4.35-.7-4.47,0s-3.53.35-4.12.35h-4.83c-.35,0-3.75.12-3.82.12s-4.89-.12-5.24-.12-3.67-.24-3.84-.24-3.34-.43-3.34-.43h-11.42l-2.82-.51h-3.53"/>
  <path class="cls-1" d="m164.92,146.78h-1.12l-5.39-.84h-11.04l-4.84.84-2.52-3.49-3.37-6.97-.63-2.36-1.57-4.16v-2.47l-.82-3.15v-10.8l3.85-3.82h1.12l4.5-1.01s1.58-.67,2.03-.79,5.62,0,5.62,0l4.5-.05s4.27.61,4.84.61,4.39-.61,4.39-.61h4.28l1.08-.34.84.62.93.77.65.81v.28"/>
  <path class="cls-1" d="m134.42,112.57l3.33,2.54h3.49l2.87.39h5.29s1.12.11,1.29,0,1.88.11,2.24,0,2.15.05,2.15.05h3.99l.85-.36,1.34.08,1.29-.17.62-.28"/>
  <path class="cls-1" d="m158.25,83.63l-3.11,1.95-1.65,1.54-.56,2.59v.86l1.47.9s1.2.82,1.2.94.79.94.79.94l1.35,1.12.79.9.08,1.24-.68,1.2-.94,1.16-1.24.82-.79.94-.15.45"/>
  <path class="cls-1" d="m86.73,67.73l.11.11,2.14,2.26,2.17,2.13,2.85,1.72,2.33,1.35,2.17.45,2.77.82,3.53.83,3.52-.38,1.86-.15.32-.15,3.23-.53.42-.38,1.91-1.05.37-.75s.3-1.2.45-1.46.6-1.61.6-1.61v-7.36l-1.05-2.41-.9-2.24-.22-.67-1.15-2.48v-.38l-3.96-4.12-3.48-.57h-9.18l-4.88.79-4.57,1.58-2.7.9-2.62,2.06-.55,3.21-.7.87.31,1.8,1.21,1.43.11.22,1.27,2.08.17.39,1.66.73.14.45.37.46Z"/>
  <path class="cls-1" d="m115.82,58.64s1.18-1.18,1.41-1.24,1.52-.62,1.52-.62l1.8-.45,1.01-.25h1.29l1.41-.42h1.58"/>
  <path class="cls-1" d="m117,62.48l2.31-1.88,2.53-.27s.96-.23,1.29-.23,2.7-.23,2.7-.23h.79"/>
  <path class="cls-1" d="m121.81,47.33l1.38,4.39,1.18,1.69,1.18,2.25,1.07,2.42,1.07,1.8,1.18,2.25,1.01,1.48,2.64,2.91.39.62,2.7,1.91,2.59,1.41,1.81.23,2.69.56h1.18l3.96-.34.71-.23,2.87-1.05s1.07-.41,1.24-.41,2.14-.17,2.14-.17l.96-.22,1.57-.17,1.73-1.12.92-.79.79-1.01,1.4-2.12.62-1.12.45-1.54.51-3.26s-.06-2.25,0-2.59-.28-2.25-.28-2.25c0,0-.34-1.79-.39-2.1s-.9-2.74-.9-2.74l-1.02-2.02-.44-1.52-3.71-4.78-4.06-1.07-1.93.05s-1.15-.27-2.05-.05-4.05.73-4.05.73c0,0-1.29.23-1.86.39s-2.8.45-3.03.45-3.2.6-3.2.6c0,0-1.2.25-1.48.42s-5.09,1.74-5.09,1.74c0,0-.37.06-.71.28s-2.53,1.18-2.53,1.18l-1.74,1.24s-.62.34-.73.51-1.29,1.18-1.29,1.18h-1.43Z"/>
  <path class="cls-1" d="m165.26,113.07h-1.01l-.26.04s-1.26.21-1.42.22-1.69,0-1.69,0l-1.31-.22s-1.99.15-2.48.22-.86,0-.86,0l-2.55.23-1.84-.23-1.91.23-3.08-.23-3.15,1.5h-2.85"/>
  <path class="cls-1" d="m65.88,158.87l3.54-2.14,5.91-1.07,8.72.67-1.65,8.87,7.05,1.58,1.74,3.96.79,5.98-.96,1.61-1.24,2.03-3.21,1.52-4.44.56s-2.36.22-2.7.34-2.76.17-2.76.17l-2.31-.34-2.64-.96s-.39-.39-.62-.67-1.12-1.29-1.12-1.29"/>
  <path class="cls-1" d="m142.95,199.28l3.15-.64,1.65-.56,2.36-.97,2.55-.98s2.33-.97,2.77-1.2,3.64-1.65,3.64-1.65l1.8-.75,2.84-1.05,3.76-1.91,4.09-.97s1.24-.94,1.39-1.01,2.4-1.39,2.4-1.39l1.31-.64,3.38-1.43,1.54-.75.94-.9v-.53l-7.05-.34-2.25-.19-3.56.22-2.78.22s-2.29.11-2.4.15-3.6.45-3.6.45l-4.65-.41c-.49,0-3.82.11-3.82.11l-2.96.11-2.51-.15h-2.93l-1.72-.04s-2.48.08-2.62.08-1.69.04-1.69.04l-1.69-.26-1.84.04"/>
  <polyline class="cls-1" points="134.77 186.11 137.77 184.13 139.61 183.57 140.88 181.73"/>
  <path class="cls-1" d="m147.86,182.52l-.45.41-.71.99-.45.92-.9,1.26-.64.76s-1.76,1.31-1.88,1.35-2.1,1.2-2.1,1.2l-3.82,1.83"/>
  <path class="cls-1" d="m139.97,195.69l4.1-1.92,5.02-2.52s1.61-1.12,1.73-1.19,1.5-1.09,1.61-1.12,2.06-2.05,2.06-2.05c0,0,.88-.65,1.05-.78s1.58-1.53,1.58-1.53c0,0,.49-1.2.6-1.27s1.53-.97,1.53-.97"/>
  <path class="cls-1" d="m135.03,186.88l7.54-.58,4.54.79,4.54-.21,4.54-.58s2.35-.04,3.07,0,4.02,0,4.02,0l1.76-.2,3.98-.18h2.7s1.65-.15,1.8-.19,1.54,0,1.54,0l1.61-.19"/>
  <polyline class="cls-1" points="136.91 190.17 148.72 191.7 151.5 191.93 154.2 191.93 156.3 192.23 158.21 192.23 160.5 192.23 162.22 191.63 164.26 191.2"/>
</svg>