<?xml version="1.0" encoding="utf-8"?>
<!-- Generator: Adobe Illustrator 27.2.0, SVG Export Plug-In . SVG Version: 6.00 Build 0)  -->
<svg version="1.1" id="_레이어_1" xmlns="http://www.w3.org/2000/svg" xmlns:xlink="http://www.w3.org/1999/xlink" x="0px"
	 y="0px" viewBox="0 0 58.7 47" style="enable-background:new 0 0 58.7 47;" xml:space="preserve">
<style type="text/css">
	.st0{fill:#2F318E;}
</style>
<path class="st0" d="M57.9,19.8l-3.4-1.3l-1.7-0.8l-1-0.4l0.7-1L53,14l-0.5-2.8l-2.2-1.6l-2.5-1.1l-3.6,0.7l-1.8-0.4L43,8l0.6-1.8
	l-1.1-2.6l-0.9-0.8l-2.3-1.6l-1.5,0.1l-2.7-0.7L33.4,0l-2,0.2L30.7,0l-3.3,0.5L24.2,1l-1.9,0.3L20,2l-2.2,1.2L16.4,4l-1.3,1
	l-1.5,1.1l-1.1,0.7l-1.2,0.9l-1,0.5L7.5,10l-1.1,1.5l-0.9,0.9l-0.9,0.7L3.7,14l-1,0.9l-0.2,0.2c-3.3,4.5-2.4,5.8-2,6.3
	c0.8,1,1.4,1.5,1.6,1.6l2.5,1.5l3-0.3L8,24.3l-1,0.9l-1.6,3.3l1.4,2.3L9,33.4l2.9-0.5h1.4l-2.4,1.9l0.7,4.7l4.1,3.1l1.1-0.7l1.4,2.7
	l1.9,2.4l3.6-0.2h2.1l3.9-0.4l2.6-0.5l1.7-0.1l3.2-0.2l3-1.7l-1.5-2.6l-2.4,1.3l-2.8,0.2l-1.8,0.1l-2.4,0.5l-3.6,0.4h-2.1l-2.1,0.1
	L20.8,43l-0.2-0.3l2.1-1.4l-1.8-3.2l-2.1-0.9L16,38.9l-1.5-1.1L14.1,36l2.2-1.8l1-3.2l-2.8-1.1l-2.7-0.1L10,30.1l-0.9-1l-0.5-0.8
	L9.2,27l2.5-2.3l-1.1-3l-3.1-0.6l-2.4,0.2l-1.5-0.9c-0.1,0.1-0.3,0-0.6-0.4c0.2-0.6,0.9-1.9,1.7-3l1-0.8l0.8-0.8l0.9-0.7l1.2-1.1
	l1-1.3l2.3-1.5l1-0.6l1.2-0.9l1.1-0.7l1.7-1.2l1.2-0.9l1.2-0.8l1.7-1l1.9-0.6L24.6,4l3.3-0.4l2.7-0.5l0.6,0.2L33,3.1l1,0.4l3.4,0.8
	h0.9l1.2,0.9L40,5.4l0.4,1l-0.1,0.3l-0.7,1l-0.4,1l-3,0.6h-1.7l-1.7-0.2l-2,0.8l-4.4,0.8l-1.7,1.1l-0.9,0.3l-2,0.9l-2.1,1.3L18.5,13
	l-2.3,2l2.8,3l1.2-1l0.4,0.4l0.6-0.5l1.8-1l1.8-1l1.2-0.4l1.5-1l4-0.7l1.7-0.7l1.1,0.1h2.1l2.8-0.5l1.4,0.4l1.8-0.3l1.9,0.4l3.3-0.6
	l1.1,0.5l1.1,0.8l0.2,1L49.7,15l-1,1.6l-1.2-0.1l-2-0.1l-2.8,0.4l-2.9,0.5l-3.1,0.8l-2.3,1.3l-7.8,1.4L24,22.2l-0.3-1.5l-3,0.5
	l0.4,2.2l1.2,2.4l1.4,0.8l1.4,0.3l0.7,0.1l0.4-2.7l1.3-0.7l7.9-1.5l2.2-1.3l2.7-0.7l2.8-0.5l2.3-0.4l1.8,0.1l1.8,0.2l1.1,0.2
	l1.4,0.5l1.6,0.8l2,0.8l0.1,0.7L52.7,24l-3.3,1.4l-1-0.2h-6.7l-2.5,0.4L36.5,27l-2,0.8l-1.4,0.7L31,29.3l-1-0.8l-1.9,2.4l0.4,0.3
	l-0.3,0.2l2,2.3l1.7-1.5l2.3-0.8l1.4-0.7l2-0.8l2.6-1.3l1.7-0.3h6.2l3.5,0.6l0.2,0.5l-1.1,1.1l-2.3,1.4l-5.7,1l-5.5,2.4L32,38.5
	l1.6,2.5l5-3.1l5-2.2l6-1l2.9-1.8l3-2.8L54,26.7l4.7-2.4L57.9,19.8L57.9,19.8z"/>
</svg>
