<?xml version="1.0" encoding="utf-8"?>
<!-- Generator: Adobe Illustrator 27.2.0, SVG Export Plug-In . SVG Version: 6.00 Build 0)  -->
<svg version="1.1" id="_레이어_1" xmlns="http://www.w3.org/2000/svg" xmlns:xlink="http://www.w3.org/1999/xlink" x="0px"
	 y="0px" viewBox="0 0 40 40" style="enable-background:new 0 0 40 40;" xml:space="preserve">
<style type="text/css">
	.st0{fill:#2F318E;}
</style>
<g>
	<path class="st0" d="M20.1,26.3L20.1,26.3c-0.6-0.3-1.2-0.2-1.7,0.3l-0.8,0.9c-0.5,0.5-1,1-1.4,1.4c-1.4,1.3-3.6,1.3-4.9,0
		c-1.4-1.4-1.4-3.6-0.1-5c1.6-1.6,3.1-3.1,4.7-4.7c1.2-1.2,3-1.3,4.4-0.4c0.1,0.1,0.3,0.2,0.4,0.3c0.1,0.1,0.2,0.2,0.3,0.2
		c0.5,0.4,1.3,0.3,1.8-0.1c0.5-0.5,0.5-1.2,0.1-1.8c-0.4-0.5-0.9-0.8-1.4-1.1c-1-0.6-2.1-0.9-3.2-0.9c-1.6,0-3.1,0.6-4.3,1.7
		c-1.6,1.6-3.2,3.2-4.7,4.7c-1.2,1.2-1.8,2.7-1.8,4.4l0,0.1c0,0.1,0,0.2,0,0.3c0.2,1.9,1,3.5,2.5,4.6c1.3,1,2.8,1.4,4.5,1.2
		c1.3-0.2,2.4-0.6,3.3-1.5c1-0.9,1.9-1.8,2.7-2.6c0.3-0.3,0.4-0.7,0.4-1.1C20.7,26.9,20.5,26.5,20.1,26.3z"/>
	<path class="st0" d="M31.1,9.6c-1.2-1.4-2.8-2.1-4.8-2.2l-0.2,0c-0.2,0-0.4,0-0.6,0.1c-1.3,0.2-2.3,0.7-3.1,1.5
		c-0.8,0.8-1.7,1.6-2.7,2.6c-0.3,0.3-0.4,0.7-0.4,1.2c0.1,0.4,0.3,0.8,0.7,1c0.6,0.3,1.2,0.2,1.7-0.3c0.3-0.3,0.7-0.7,1-1
		c0.4-0.4,0.8-0.9,1.3-1.3c1.4-1.4,3.6-1.3,5,0c1.4,1.4,1.3,3.6,0,4.9c-1.5,1.5-3.1,3.1-4.6,4.6C23,22,21,22.1,19.6,21.1
		c-0.1-0.1-0.2-0.1-0.3-0.2c-0.1-0.1-0.2-0.2-0.3-0.2c-0.2-0.2-0.5-0.3-0.8-0.3c-0.4,0-0.7,0.1-1,0.4c-0.5,0.5-0.5,1.3-0.1,1.8
		c0.2,0.3,0.6,0.6,1,0.9c2.4,1.7,5.9,1.5,8-0.6c1.6-1.5,3.1-3.1,4.6-4.6c0.2-0.2,0.4-0.5,0.6-0.7C33.1,15.1,33,11.8,31.1,9.6z"/>
</g>
</svg>
