<?xml version="1.0" encoding="UTF-8"?>
<svg id="_레이어_1" data-name="레이어 1" xmlns="http://www.w3.org/2000/svg" viewBox="0 0 415.06 421.49">
  <defs>
    <style>
      .cls-1 {
        fill: #2f318e;
        stroke-width: 0px;
      }
    </style>
  </defs>
  <path class="cls-1" d="M127.42,336.11l-7.46-2.91-3.62-1.72-2.27-.87,1.43-2.28,1.17-4.87-1.12-6.1-4.79-3.58-5.4-2.35-7.85,1.45-3.92-.8,1.25-1.81,1.24-3.95-2.37-5.75-1.94-1.79-5.13-3.57-3.33.13-6.01-1.47-3.63-1.33-4.36.53-1.56-.39-7.17,1.19-7.23.81-4.11.75-5.12,1.48-4.92,2.68-2.96,1.84-2.86,2.21-3.26,2.31-2.51,1.49-2.67,1.89-2.14,1.21-6.18,4.03-2.49,3.24-2.02,2-1.9,1.53-2.07,2-2.28,1.99-.5.55c-7.28,10-5.22,12.85-4.44,13.92,1.68,2.31,3.17,3.4,3.45,3.59l5.49,3.27,6.55-.68.79.15-2.12,1.92-3.53,7.19,3.17,5.16,5.18,5.59,6.32-1.16,2.99.06-5.16,4.13,1.54,10.41,9.03,6.75,2.36-1.45,3.18,5.9,4.27,5.33,7.94-.5,4.65-.08,8.61-.89,5.75-1.07,3.68-.18,6.96-.49,6.61-3.67-3.21-5.77-5.32,2.96-6.05.42-4.04.27-5.32.98-7.92.83-4.65.08-4.71.3-1.57-1.93-.4-.74,4.53-3.04-4.04-7.1-4.71-1.96-6.23,3.82-3.26-2.44-.59-3.96,4.89-3.91,2.11-7.13-6.18-2.43-5.94-.12-3.78.63-2.07-2.2-1.09-1.77,1.36-2.78,5.53-4.99-2.46-6.5-6.83-1.29-5.33.55-3.26-1.94c-.18-.14-.68-.58-1.31-1.35.43-1.33,2.01-4.13,3.71-6.52l2.13-1.85,1.87-1.81,1.91-1.54,2.55-2.49,2.22-2.83,5.01-3.29,2.18-1.24,2.75-1.94,2.51-1.48,3.72-2.63,2.56-1.99,2.69-1.67,3.78-2.13,4.27-1.25,3.6-.66,7.28-.82,5.99-.99,1.42.36,4-.49,2.31.85,7.45,1.84,2.06-.08,2.76,1.9.7.64.9,2.19-.23.72-1.48,2.15-.83,2.24-6.68,1.23-3.82-.02-3.83-.35-4.29,1.76-9.68,1.78-3.66,2.32-2.08.59-4.45,2.09-4.61,2.79-2.56-2.94-4.99,4.33,5.96,6.87,2.56-2.23.93.98,1.24-1.19,3.96-2.26,4.03-2.16,2.72-.78,3.39-2.15,8.77-1.62,3.76-1.47,2.35.22,4.57.03,6.17-1.08,3.03,1,3.96-.73,4.17.85,7.18-1.32,2.5,1.04,2.39,1.78.4,2.17-.59,2.44-2.12,3.4-2.63-.26-4.42-.26-6.27.87-6.39,1.18-6.75,1.84-5.03,2.77-17.2,3.17-5.81,3.11-.62-3.34-6.5,1.2.89,4.85,2.65,5.35,3.01,1.78,3.15.67,1.53.23.91-5.96,2.94-1.58,17.34-3.2,4.87-2.8,5.93-1.63,6.14-1.13,5.15-.77,3.96.23,4.06.38,2.39.51,3.08,1.17,3.61,1.72,4.36,1.71.28,1.51-5.8,2.91-7.2,3.12-2.17-.37-14.67-.04-5.59.98-6.06,3.02-4.48,1.73-3.05,1.54-4.57,1.59-2.22-1.74-4.08,5.2.78.61-.62.55,4.35,4.97,3.72-3.26,5.04-1.76,3.18-1.59,4.46-1.72,5.65-2.8,3.79-.7h13.53s7.82,1.32,7.82,1.32l.45,1.04-2.49,2.36-5.09,3.16-12.65,2.14-11.99,5.35-11.52,7.12,3.48,5.61,10.94-6.79,11.02-4.92,13.1-2.22,6.48-4.02,6.62-6.18-3.17-7.31,10.4-5.21-1.84-10.01Z"/>
  <g>
    <path class="cls-1" d="M307.37,105.98l-7.64-.07-4.99-.93-2.82-1.24-3.52-.72-3.39-2.29-4.65-1.94-3.14-2.23-3.21-3.39-4.07-2.51-2.78-4.98-4.13-6.66-.99-2.77-2.45-4.4-.96-4.24-2.01-7.18-.16-5.24,1.66-3.58.62-2.63,1.6-3.9,4.66-5.76,2.99-1.89,6.84-.2,3.96,1.51,3.56,1.81,3.29,2,2.53,1.71,3.44,2.55,3.1,4.25,5.52,3.55,2.42,2.87,3.96,4.37,2.86,5.69,1.08,2.66,1.78,3.2,6.17,14.18.79,5.36-3.2,6.2-3.11,4.44-5.63,2.4ZM300.55,99.36l5.48.02,2.64-1.13,1.9-2.7,1.9-3.72-.35-2.37-2.14-4.8-3.63-8.48-1.82-3.28-1.11-2.73-2.29-4.53-5.3-5.99-5.72-3.68-3.24-4.43-2.53-1.87-2.27-1.54-3.04-1.84-3.07-1.55-2.24-.84-3.74.11-.55.35-3.37,4.16-1.12,2.74-.7,2.85-1.16,2.49.1,3.25,1.81,6.14.8,3.51,2.35,4.31.96,2.68,3.7,5.85,2.03,3.63,3.64,2.37,3.27,3.44,2.01,1.37,4.63,1.93,2.6,1.76,3.24.74,2.76,1.21,3.53.59Z"/>
    <path class="cls-1" d="M203.88,120.22l-5.76.08-5.99-1.27-6.2-1.84-3.48-1.37-3.71-3.92-5.89-2.56-3.77-3.84-1.93-3.76-2.71-3.13-3.42-4.85-3.08-6.06-3.21-5.25-.19-7,.39-5.89,2.17-4.77,3.46-3.5,4.62-2.64,7.1-.15,4.01.64,2.6,2.14,3.76,2.57,5.75,4.86,1.68,2.18,3.75,4.53,5.45,3.55,3.46,4.23,1.73,4.09,3.38,4.89,5.78,13.54-1.75,5.94-2.94,3.15-1.41,1.91-3.63,3.48ZM199.09,113.76l2.05-.06,1.56-1.5,1.23-1.7,2.03-2.18.64-2.17-4.73-11.07-3.37-4.86-1.5-3.56-2.2-2.7-5.43-3.54-6-7.38-4.78-3.95-3.8-2.6-1.33-1.1-1.93-.31-4.52.13-2.41,1.37-1.99,2.01-1.18,2.6-.3,4.53.14,4.77,2.49,4.09,3.02,5.95,2.93,4.09,3.13,3.73,1.65,3.22,2.16,2.2,5.95,2.58,3.63,3.84,1.97.78,5.66,1.67,5.22,1.09Z"/>
    <polygon class="cls-1" points="228.37 177.98 224.22 178.1 220.24 176.51 216.24 173.29 212.81 170.02 208.89 170.94 207.34 161.05 207.26 156.46 208.31 150.31 210.44 146.43 211.73 144.44 212.41 138.96 218.97 139.77 218.1 146.77 216.05 149.92 214.63 152.53 213.83 157.21 213.93 160.64 214.29 162.9 214.49 162.85 218 165.76 220.75 168.46 223.6 170.74 225.39 171.46 228.17 171.37 228.37 177.98"/>
    <polygon class="cls-1" points="255.97 49.21 249.37 49.4 249.05 38.57 254.02 30.18 257.54 23.83 260.19 20.43 265.11 15.63 269.24 13.03 275.49 9.33 283.69 6.4 287.68 4.64 297.87 2.55 302.74 2.4 313.01 .12 316.87 0 317.07 6.6 313.53 6.71 303.26 9 298.36 9.14 289.41 11.03 286.05 12.57 278.03 15.43 268.94 21.03 265.01 24.96 262.92 27.66 259.76 33.44 255.71 40.29 255.97 49.21"/>
  </g>
  <polygon class="cls-1" points="274.47 69.04 279.64 65.09 288.55 67.3 293.6 73.16 299.73 84.89 300.63 90.07 300.76 94.53 300.42 97.01 298.08 98.98 295.32 100.55 290.87 100.69 278.45 91.47 275.94 87.83 273.75 83.68 271.16 79.8 270.54 75.68 270.86 72.54 271.64 70.86 272.91 69.34 274.47 69.04"/>
  <polygon class="cls-1" points="201.61 114.81 196.84 119.24 187.76 117.89 182.18 112.54 174.96 101.44 173.57 96.38 173.01 91.95 173.11 89.44 175.25 87.26 177.85 85.43 182.27 84.88 195.51 92.86 198.35 96.25 200.93 100.17 203.88 103.79 204.89 107.83 204.87 110.99 204.26 112.73 203.13 114.37 201.61 114.81"/>
  <path class="cls-1" d="M338.24,299.62l-3.89-.54-4.28-2.61-2.09-2.48-1.52-1.83.38-.64,8.87-9.01,2.46-1.2,7.97-5.12,3.86-1.71,4.86-1.19-.7-2.86.92-2.97-.28-3.13-6.58.59.16,1.83-.46,1.47-4.7,2.02-5.52,3.54-1.19-.2-1.77-.55-.95,3.05-.29.14-1.81-1.6-.7.8-2.15,1.62-.46,1.47,1.52.47-4.32,4.39.08-.75-1.96-.21-5.46-1.7v-.07s-5.5-3.58-5.5-3.58l-.98-.31-.33-.85-.39-1.98.25-.8,3.55-4.25,2.96-1.07,3.44-2.03,3.83-3.45,3.35-2.38,3.54-1.18,4.62-2.17,5.42-1.62,5.58-2.05,7.05-5.43-4.03-5.23-6.25,4.81-4.43,1.63-5.47,1.63-4.37,2.04-.91-.74-1.97-.61-1.62-1.18-3.9,5.33,1.01.74-1.63,1.16-3.57,3.26-.86.53-1.86-.58-1.2-1.06-1.41-.98-2.91-4.93-.13-1.59,1.28-4.11,2.01-2.11,3.33-4.82,5.55-3.06,3.94-2.01,3.54-1.5,11.94-2.07,7.13-1.7,6.03-4.24-3.8-5.41-5,3.51-5.55,1.33-6.94,1.14-5.36.99-4.67,1.89-1.75.89-1.56.86-.71-2.51.36-1.16.64-3.9,2.66-1.76,8.63-4.6,5.96-3.68,7.45-2.91,11.35-2.59,8.61.76,7.07-.19,9.17,2.85,1.7.56,4.55.09,2.92,1.85,1.1,1.75,1.65,2.07,1.4,3.43,2.14,3.81,1.29,2.46,1.09,3.63.53,2.57.32,3.23.54,2.65.82,9.54,1.64,3.02,2.17,6.63,1.03,2.41.58,4.01.95,9.52.37,3.27-.14,3.4,2.32,4.01,5.66-1.26-1.3-4.41.08-1.99-1.39-13.35-.73-5.04-1.22-2.81-2.19-6.71-1.37-2.64-.72-8.37-.54-2.71-.32-3.22-.65-3.23-1.3-4.35-3.63-6.75-1.69-4.14-1.91-2.36-1.73-2.75-2.8-1.9-3.12-1.84-5.17-.1-11.19-3.46-7.79.21-9.26-.81-12.61,2.87-8.42,3.26-7.5,4.57-8.36,4.45-3.27,2.16-2.68,3.49-.34,5.43,2.17,5.05.19,1.11-3.12,1.72-3.73,5.48-2.89,3.03-2.12,6.81.37,4.42,4.41,7.47,2.16,1.43.39.35-2.25,2.61-2.17,2.73-1.11,3.57.77,3.91,1.77,4.65,3.14.98,1.58,1.03-.06,1.38,9.59,2.98-1.23,1.97-.33,3.39,3.03,4,2.15,2.01,4.19,1.3,6.28,3.01,2.89.23,2.26-.53M359.06,302.52v-.04s.3.11.3.11l2.31,1.09,1.28,1.25,1.83,2.11,4.28,2.02.47,1.4,4.32,2.18,2.49.82,6.37,3.24,3.14,1.02,7.1-.41-.81-6.57-5.48.31-1.28-.4-6.23-3.18-2.58-.86-1.65-.83-.5-1.49-5.58-2.64-1.01-1.16-2.34-2.31-3.44-1.63-3.43-1.29-2.63-.16-4.53-1.41-2.48-1.87-2.91-4.56-2.06,1.32-1.38.74-1.76,1.27-1.51-.26-1.2-.37-1.96,6.31,1.41.44,4.63.83,1.06-.65.8-.56.15.15,2.66,2.03"/>
  <path class="cls-1" d="M210.92,421.49l-.98-.49s0,0,0,0c-.04,0-2.21-.74-9.25-.95l-8.55-.26-24.4-2.07h-25.51s-10.11-.79-10.11-.79l-9.28-1.32-7.64-.76-11.55-.77-9.29-.92-10.43-13.17-3.63-5.89,5.63-3.46,3.52,5.72,8.34,10.51,6.4.64,11.55.77,7.88.79,9.21,1.31,9.76.74h25.55s24.36,2.09,24.36,2.09l8.37.25c6.04.18,9.19.74,10.78,1.2l12.71-2.23h8.87l12.1-1.03,27.72-2.86-2.23-4.21-5.58-7.27-7.18-13.71-4.69-13.99-3.42-12.07-4.9-15.72-3.04-10.38-9.08-17.67-7.39-10.71-12.81-21.16-11.84-20.53-9.56-.5-5.91.17h-4.93s-6.65-.17-6.65-.17l-8.3-.37-7.52-1-12.99.34-10.48-.69-12.98.52-9.37-1.39-31.86.51-11.77-.52-11.45-.69-10.35-1-9.32.83h-11.99l-6.97,2.7,2.4,4.17v16.51l1.7,6.32,3.24,10.94,2.53,4.32,3.89,8.29-5.98,2.8-3.82-8.15-2.84-5.02-3.36-11.38-1.95-7.25v-15.62l-5.37-9.31,15.31-5.93h13.08l9.49-.86,10.85,1.05,11.28.68,11.52.52,32.2-.53,9.29,1.38,12.71-.51,10.48.69,4.15-.17,9.13-.18,7.88,1.05,7.8.34,6.51.17h4.75s6.09-.18,6.09-.18l13.41.71,13.59,23.58,12.66,20.93,7.63,11.08,9.56,18.72,3.11,10.62,4.91,15.75,3.4,12,4.56,13.59,6.71,12.73,5.57,7.26,6.96,13.13-37.53,3.87-12.58,1.05h-8.71l-13.75,2.47Z"/>
  <path class="cls-1" d="M281.02,415.77l-1.86-6.34,14.71-4.31,4.54-2.41,17.38-3.38,13.52-5.83,9.83-3.92,16.77-7.11,12.84-3.52,11.43-6.32,5.89-5.89,5.19-4.99-12.58-.02c-5.98-.73-12.71-1.51-13.62-1.53h-10.34c-.21,0-.85-.06-1.74-.18-2.81-.36-4.74-.53-5.86-.51-1.94,1.99-6.17,1.76-10.3,1.52-.46-.03-.83-.05-1.02-.05h-10.62c-.53,0-4.27.13-6.54.2-1.06.03-1.82.06-1.87.06s-1.07-.02-2.5-.06c-3.2-.08-8.51-.2-9.05-.2-.49,0-2.08-.1-5.69-.34-1.39-.09-2.57-.17-2.84-.18-.15-.02-.43.01-7.5-.94l-25.5-.05-5.93-1.08h-7.48v-6.61l8.36.05,5.93,1.08,25.28.03c3.12.42,6.64.88,7.12.92-.03.02,1.3.08,3,.19,2.13.14,4.73.32,5.27.32.54,0,5.94.13,9.19.2l2.39.06,1.61-.06c2.34-.08,6.21-.2,6.76-.2h10.62c.27,0,.76.02,1.4.06,2.5.14,4.26.17,5.22.07,1.89-2.26,6.53-1.66,11.41-1.03.48.06.85.11,1.03.13h10.22c1.33,0,10.21,1.06,14.2,1.55h17l2.63,8.41-8.21,7.89-6.5,6.5-13.31,7.26-13,3.57-16.22,6.91-9.82,3.92-14.44,6.15-16.77,3.26-4.59,2.35-15.03,4.41ZM348.13,357.45s0,.02,0,.03c0,0,0-.02,0-.03Z"/>
  <path class="cls-1" d="M274.63,292.74l-7.07-9.85-7.64-15.95-1.34-5.04-3.62-9.58v-5.63l-1.8-7.36v-25.16l10.43-10.35h3.47l9.26-2.08c1.24-.53,3.64-1.52,4.67-1.78.47-.11,1.42-.35,13.26-.1l10.05-.11.25.04c4.37.63,9.39,1.29,10.21,1.31.74-.03,5.32-.7,9.11-1.31l.52-.04h8.9l3.49-1.11,3.2,2.36,2.65,2.28,2.16,2.68v1.78h-4.07l-1.8,1.45-1.22-1.52-2.12-1.72-1.26.4h-9.66c-3.27.52-8.65,1.35-9.92,1.35s-7.84-.91-10.87-1.35l-9.65.11c-4.84-.11-10.49-.15-11.75-.06-.63.2-2.42.92-3.83,1.53l-.58.19-10.63,2.31h-1.12l-6.54,6.5v21.98l1.8,7.36v4.84l3.36,8.92,1.31,4.9,7.16,14.81,4.18,5.77,9.19-1.55,24.82.04,11.6,1.82h2.22v6.61l-2.99-.04-11.6-1.82h-23.76l-12.4,2.16Z"/>
  <path class="cls-1" d="M293.08,223.69c-.56,0-1.22-.04-2.03-.11l-11.93-.03-6.09-.84h-8.57l-8.22-6.28,4.01-5.25,6.44,4.92,7.01.03,6.09.84,11.74.02c.57.06,1.25.09,1.62.09.84-.25,1.81-.2,3.33-.11.54.03,1.41.07,1.78.07.6-.14,1.88-.29,5.59.04h7.98l1.97-.83,3.42.21,2.04-.27.91-.41,2.73,6.01-1.81.83-3.65.47-2.51-.15-1.77.75h-9.76c-1.48-.14-3.15-.22-3.71-.19-.87.21-1.88.17-3.6.07-.48-.03-.94-.06-1.28-.06-.45.12-1,.19-1.75.19ZM299.98,223.42c-.05.02-.11.03-.16.05.06-.02.11-.03.16-.05ZM298.38,217.04h0Z"/>
  <path class="cls-1" d="M305.97,189.87l-.35-.29-5.64-1.89.53-1.59,2.44-2.91,2.7-1.8,1.57-1.95.87-1.55-.04-.63-.82-.94-3.05-2.57c-.95-.99-1.61-1.72-2.03-2.36-.4-.32-1.14-.86-1.83-1.33l-4.66-2.85.08-4.45,1.46-6.71,4.89-4.47,6.85-4.29,3.51,5.6-6.59,4.13-2.65,2.46-.89,4.07,1.6.98c2.04,1.4,3.31,2.28,3.87,3.39.23.27.63.72,1.03,1.14l3.2,2.72,2.47,2.83.29,4.82-2.27,3.95-2.38,2.95-2.75,1.83-1.03,1.22-.13.4-.16-.05-.12.14Z"/>
  <path class="cls-1" d="M192.83,139.73l-8.31-1.94-6.16-1.83-5.18-1.07-5.58-3.24-6.93-4.29-4.79-4.69-5.23-5.52-1.24-1.64-3.47-1.53-.79-1.85-2.87-4.77-2.98-3.54-1.09-6.32,1.95-2.41,1.29-7.48,7.23-5.67,17.08-5.78,11.26-1.78,20.75.04,8.75,1.42,10.41,10.84v1.42l2.37,5.13.5,1.49,1.91,4.74,2.55,5.84v17.42l-.17.51c-1.09,3.28-1.47,3.93-1.59,4.15-.05.14-.39,1.33-.65,2.38l-.24.66-1.27,2.58-4.78,2.64-1.37,1.22-7.85,1.36-.55.26-4.7.38-8.23.88ZM175.57,128.63l4.54.95,6.11,1.82,7.02,1.64,10.92-1.12.43-.2,6.62-1.08.81-.61,3.29-1.81.2-.41c.71-2.78,1.09-3.45,1.24-3.7.11-.24.53-1.39.89-2.46v-14.97l-2.04-4.67-2.52-6.51-2.77-6.18-7.04-7.33-6.31-1.03h-19.68l-10.19,1.65-15.24,5.2-4.33,3.4-1.15,6.66-1.15,1.42.28,1.61,2.7,3.5,2.76,4.54,3.86,1.7.57,1.83.47.56,4.72,4.98,4.43,4.33,10.55,6.27Z"/>
  <path class="cls-1" d="M219.6,97.39l-4.67-4.67c3.24-3.24,3.92-3.41,4.63-3.59.22-.08,1.68-.69,2.83-1.19l.52-.17,6.99-1.65h2.37l3.1-.93h3.95v6.61h-2.98l-3.1.93h-2.92l-5.54,1.38c-1.61.7-2.48,1.05-2.97,1.22-.45.37-1.39,1.25-2.2,2.06ZM221.18,95.53h0,0Z"/>
  <path class="cls-1" d="M221.95,106.08l-4.17-5.12,5.84-4.76,6.35-.69c.95-.22,2.49-.54,3.4-.54.46-.01,3.29-.26,5.63-.48l.31-.02h1.73v6.61h-1.58c-2.02.19-5.34.5-6.1.5-.23.02-1.26.21-2.09.41l-.4.07-4.6.5-4.32,3.52Z"/>
  <path class="cls-1" d="M279.21,126.1l-3.41-.07-5.8-1.21-4.46-.56-6.58-3.6-6.47-4.59-1.06-1.67-5.91-6.55-2.43-3.58-2.6-4.95-2.45-4.16-2.31-5.23-2.45-4.67-2.77-3.96-4.53-14.44h6.42c.64-.56,1.24-1.1,1.48-1.35.28-.38.87-.99,2.45-1.87l4.28-2.95c2.08-.91,4.63-2.07,5.12-2.36.95-.63,1.95-.92,2.51-1.04,4.53-1.49,9.55-3.18,10.51-3.57.42-.23,1.41-.66,4.11-1.22,6.86-1.38,7.35-1.38,7.7-1.38.67-.04,4.91-.61,5.73-.85,1.38-.41,4.15-.9,4.46-.96,1.94-.31,7.17-1.18,8.68-1.56,2.19-.55,4.58-.21,5.63,0l4.32-.11,10.48,2.76,9.25,11.91,1.06,3.65,2.28,4.57c1.95,5.59,2.08,6.3,2.12,6.54.12.69.86,4.6.86,4.6.85,4.81.71,5.66.63,6.12-.03.41,0,2.99.05,5.07v.3s-1.25,7.9-1.25,7.9l-1.27,4.06-1.5,2.69-3.24,4.89-2.19,2.71-2.37,1.99-4.47,2.91-4.04.43-2.39.52c-2.87.25-4.04.34-4.56.37-.38.12-1.23.41-1.97.7l-8.77,3.02-8.87.76ZM276.81,119.5h2.12l8.22-.7,1.2-.38,6.18-2.27c2.88-1.1,3.38-1.1,3.86-1.1.45-.02,3.33-.27,4.19-.34l2.28-.51,2.67-.29,2.95-1.93,1.6-1.37,1.45-1.87,2.95-4.47,1.13-2.03.83-2.82,1.03-6.68c-.1-4-.03-5.3.02-5.78-.03-.57-.29-2.41-.58-4.08,0,0-.74-3.94-.86-4.63-.11-.41-1-3.06-1.78-5.32l-2.38-4.82-.79-2.74-7.1-9.14-7.41-1.95-4.2.1-.42-.1c-.74-.17-2.15-.32-2.95-.12-2.06.51-8.47,1.55-9.19,1.67-.98.17-2.9.54-3.66.77-1.46.43-6.08,1.03-7.38,1.12-.6.08-3.89.71-6.63,1.26-.91.19-2.01.47-2.37.6-.5.26-2.14.92-11.71,4.06l-.54.13s-.15.06-.22.1c-.64.42-2.58,1.35-5.77,2.74l-3.89,2.74s-.45.23-.75.45c-.35.4-1.12,1.14-3.14,2.87l-.83.72,1.56,4.96,2.53,3.66,2.7,5.15,2.27,5.15,2.25,3.79,2.59,4.93,1.99,2.9,6.01,6.69.52.81,5.26,3.72,4.98,2.71,3.63.46,5.6,1.17ZM319.53,86.71s-.02.09-.02.14c0-.06.02-.11.02-.14ZM261.95,59.49s-.03.02-.05.03c.02-.01.04-.02.05-.03Z"/>
  <path class="cls-1" d="M279.4,222.09h-7.02v-6.61h5.53l7.05-3.36,7.33.54,4.29-.5,4.09.5,5.74-.51.46.09s.07.01.28.01c.13,0,.3,0,.48-.03,1.14-.18,4.94-.47,5.7-.53l.41-.03,3.03.52c.75,0,2.8.02,3.24,0,.38-.05,2.77-.46,2.77-.46l1.13-.13h2.23v6.61l-2.34.05c-2.84.48-3.21.51-3.35.52-.14,0-.52.03-3.99,0l-.53-.05-2.49-.43c-1.76.14-4.18.34-4.79.44-1.03.16-1.92.12-2.48.06l-5.59.49-4-.49-4.13.49-6.21-.45-6.82,3.25Z"/>
  <path class="cls-1" d="M130.9,372.08l-6-.95-6.52-2.36-.51-.52s-1.02-1.02-1.6-1.75c-.48-.6-2.37-2.72-2.37-2.72l4.94-4.39s2.07,2.34,2.59,2.98c.18.22.41.48.62.7l4.79,1.74,4.47.65c2-.05,4.37-.16,5.02-.26.49-.13,1.8-.39,6.48-.84l9.16-1.16,5.69-2.7,3.71-6.15-1.52-11.57-2.97-6.76-17-3.8,3.54-19.04-15.11-1.17-11.99,2.17-7.28,4.39-3.41-5.66,8.32-5.02,14.02-2.54,23.29,1.8-3.71,20,14.04,3.14,4.69,10.68,1.94,14.77-5.95,9.87-8.43,3.99-10.31,1.31c-2.25.22-4.92.52-5.47.64-.26.09-1.06.36-6.88.5h-.28Z"/>
  <path class="cls-1" d="M277.66,407.97l-1.31-6.48,6.72-1.36,3.43-1.17,5.01-2.07,5.7-2.18c1.84-.77,5.16-2.19,5.81-2.51,1.03-.51,7.41-3.37,8.14-3.69l4.04-1.69,6.19-2.29,8.85-4.39,8.33-1.99c2.46-1.86,2.78-2.01,3.03-2.14.48-.26,5.08-2.95,5.08-2.95l.22-.12,2.89-1.4,4.96-2.1-6.32-.3-4.83-.4-7.6.48-6.05.49c-2.08.1-4.46.24-5,.29-.67.12-2.41.34-8.09,1.01l-.34.04-10.42-.92c-1.43.02-8.17.25-8.18.25l-6.67.25-5.69-.34h-6.24s-3.87-.08-3.87-.08c0,0-5.38.17-5.71.17-.37,0-3.63.08-3.64.08h-.29s-3.72-.57-3.72-.57l-3.76.08-.13-6.61,4.33-.09,3.71.57c.85-.02,3.23-.08,3.5-.08.46,0,5.68-.16,5.68-.16l3.97.08h6.37l5.57.32,6.36-.24s7.46-.25,8.55-.25h.29s9.9.89,9.9.89c3.17-.38,6.6-.8,7.27-.9.5-.11,1.57-.19,5.83-.4l6-.49,8.15-.51,5.2.43,18.55.89v5.71l-3.45,3.32-3.85,1.88-7.59,3.21-2.61,1.28c-4.94,2.88-5.26,3.04-5.36,3.09-.37.25-2.55,1.91-2.55,1.91l-.56.42-9.29,2.21-8.29,4.18-6.24,2.31-3.84,1.6c-2.61,1.17-7.13,3.2-7.81,3.54-1.04.52-5.44,2.37-6.31,2.73l-5.71,2.19-5.12,2.12-4.24,1.42-6.93,1.4Z"/>
  <polygon class="cls-1" points="260.81 378.49 257.19 372.97 264.19 368.36 267.6 367.31 269.75 364.21 275.18 367.97 271.72 372.96 267.03 374.4 260.81 378.49"/>
  <path class="cls-1" d="M265.14,390.03l-2.85-5.96,8.3-3.97c2.97-1.74,4.09-2.37,4.6-2.63.47-.31,2.03-1.45,3.41-2.48l1.07-1.28,1.75-2.45,1.16-2.27,2.02-2.68.99-.91,4.46,4.87-.74.68-1.2,1.67-1.15,2.25-2.14,2.99-1.96,2.21c-3.57,2.66-4.32,3.16-4.79,3.36-.56.3-2.58,1.47-4.27,2.46l-.24.13-8.42,4.03Z"/>
  <path class="cls-1" d="M271.85,399.82l-2.8-5.98,9.03-4.23,10.77-5.4c.75-.52,3.44-2.39,3.66-2.53l.57-.41c1.63-1.17,2.43-1.74,2.92-2.04.62-.58,2.49-2.47,4.03-4.07l.42-.37s1.93-1.42,2.3-1.69c.19-.17,1.46-1.41,2.65-2.59,1.07-2.57,1.5-3.15,2.28-3.68.25-.17,3.46-2.19,3.46-2.19l3.51,5.59s-1.69,1.06-2.66,1.68c-.2.45-.49,1.1-.74,1.71l-.25.62-.48.48c-3.27,3.24-3.65,3.53-3.83,3.67-.29.22-1.58,1.17-2.11,1.56-3.87,4-4.62,4.71-5.27,5-.53.35-1.67,1.17-2.39,1.69-.4.28-.69.49-.76.54-.32.22-3.76,2.6-3.76,2.6l-.4.24-11.06,5.55-9.11,4.27Z"/>
  <path class="cls-1" d="M285.96,381.21l-9.94-1.72-16.2,1.24-.5-6.59,17.02-1.3,10.04,1.74,9.5-.44,10.23-1.28c.54,0,5.34-.08,6.98,0,1.06.06,5.58.03,8.47,0l3.94-.44,8.75-.39h5.94c.62-.06,2.97-.27,3.51-.36.2-.05.55-.15,3.84-.06l3.32-.39.76,6.56-3.78.44h-.24c-1.06-.03-2.4-.05-2.84-.03-.43.07-1.41.18-4.12.43h-.3s-5.94.01-5.94.01l-8.49.38-4.1.45c-.75,0-7.42.08-9.05,0-1.15-.06-4.82-.02-6.36,0l-10.07,1.27-10.35.48Z"/>
  <polygon class="cls-1" points="316.21 392.51 305.93 392.48 301.54 391.85 295.57 391.84 289.45 391.35 263.29 387.94 264.14 381.39 290.15 384.78 295.97 385.25 302.24 385.28 306.63 385.91 315.09 385.91 318.76 384.66 323.25 383.71 324.62 390.17 320.33 391.08 316.21 392.51"/>
</svg>