<?xml version="1.0" encoding="UTF-8"?>
<svg id="_레이어_1" data-name="레이어 1" xmlns="http://www.w3.org/2000/svg" viewBox="0 0 415.06 395.91">
  <defs>
    <style>
      .cls-1 {
        fill: #2f318e;
        stroke-width: 0px;
      }
    </style>
  </defs>
  <path class="cls-1" d="M127.42,336.11l-7.46-2.91-3.62-1.72-2.27-.87,1.43-2.28,1.17-4.87-1.12-6.1-4.79-3.58-5.4-2.35-7.85,1.45-3.92-.8,1.25-1.81,1.24-3.95-2.37-5.75-1.94-1.79-5.13-3.57-3.33.13-6.01-1.47-3.63-1.33-4.36.53-1.56-.39-7.17,1.19-7.23.81-4.11.75-5.12,1.48-4.92,2.68-2.96,1.84-2.86,2.21-3.26,2.31-2.51,1.49-2.67,1.89-2.14,1.21-6.18,4.03-2.49,3.24-2.02,2-1.9,1.53-2.07,2-2.28,1.99-.5.55c-7.28,10-5.22,12.85-4.44,13.92,1.68,2.31,3.17,3.4,3.45,3.59l5.49,3.27,6.55-.68.79.15-2.12,1.92-3.53,7.19,3.17,5.16,5.18,5.59,6.32-1.16,2.99.06-5.16,4.13,1.54,10.41,9.03,6.75,2.36-1.45,3.18,5.9,4.27,5.33,7.94-.5,4.65-.08,8.61-.89,5.75-1.07,3.68-.18,6.96-.49,6.61-3.67-3.21-5.77-5.32,2.96-6.05.42-4.04.27-5.32.98-7.92.83-4.65.08-4.71.3-1.57-1.93-.4-.74,4.53-3.04-4.04-7.1-4.71-1.96-6.23,3.82-3.26-2.44-.59-3.96,4.89-3.91,2.11-7.13-6.18-2.43-5.94-.12-3.78.63-2.07-2.2-1.09-1.77,1.36-2.78,5.53-4.99-2.46-6.5-6.83-1.29-5.33.55-3.26-1.94c-.18-.14-.68-.58-1.31-1.35.43-1.33,2.01-4.13,3.71-6.52l2.13-1.85,1.87-1.81,1.91-1.54,2.55-2.49,2.22-2.83,5.01-3.29,2.18-1.24,2.75-1.94,2.51-1.48,3.72-2.63,2.56-1.99,2.69-1.67,3.78-2.13,4.27-1.25,3.6-.66,7.28-.82,5.99-.99,1.42.36,4-.49,2.31.85,7.45,1.84,2.06-.08,2.76,1.9.7.64.9,2.19-.23.72-1.48,2.15-.83,2.24-6.68,1.23-3.82-.02-3.83-.35-4.29,1.76-9.68,1.78-3.66,2.32-2.08.59-4.45,2.09-4.61,2.79-2.56-2.94-4.99,4.33,5.96,6.87,2.56-2.23.93.98,1.24-1.19,3.96-2.26,4.03-2.16,2.72-.78,3.39-2.15,8.77-1.62,3.76-1.47,2.35.22,4.57.03,6.17-1.08,3.03,1,3.96-.73,4.17.85,7.18-1.32,2.5,1.04,2.39,1.78.4,2.17-.59,2.44-2.12,3.4-2.63-.26-4.42-.26-6.27.87-6.39,1.18-6.75,1.84-5.03,2.77-17.2,3.17-5.81,3.11-.62-3.34-6.5,1.2.89,4.85,2.65,5.35,3.01,1.78,3.15.67,1.53.23.91-5.96,2.94-1.58,17.34-3.2,4.87-2.8,5.93-1.63,6.14-1.13,5.15-.77,3.96.23,4.06.38,2.39.51,3.08,1.17,3.61,1.72,4.36,1.71.28,1.51-5.8,2.91-7.2,3.12-2.17-.37-14.67-.04-5.59.98-6.06,3.02-4.48,1.73-3.05,1.54-4.57,1.59-2.22-1.74-4.08,5.2.78.61-.62.55,4.35,4.97,3.72-3.26,5.04-1.76,3.18-1.59,4.46-1.72,5.65-2.8,3.79-.7h13.53s7.82,1.32,7.82,1.32l.45,1.04-2.49,2.36-5.09,3.16-12.65,2.14-11.99,5.35-11.52,7.12,3.48,5.61,10.94-6.79,11.02-4.92,13.1-2.22,6.48-4.02,6.62-6.18-3.17-7.31,10.4-5.21-1.84-10.01Z"/>
  <g>
    <path class="cls-1" d="M307.37,105.98l-7.64-.07-4.99-.93-2.82-1.24-3.52-.72-3.39-2.29-4.65-1.94-3.14-2.23-3.21-3.39-4.07-2.51-2.78-4.98-4.13-6.66-.99-2.77-2.45-4.4-.96-4.24-2.01-7.18-.16-5.24,1.66-3.58.62-2.63,1.6-3.9,4.66-5.76,2.99-1.89,6.84-.2,3.96,1.51,3.56,1.81,3.29,2,2.53,1.71,3.44,2.55,3.1,4.25,5.52,3.55,2.42,2.87,3.96,4.37,2.86,5.69,1.08,2.66,1.78,3.2,6.17,14.18.79,5.36-3.2,6.2-3.11,4.44-5.63,2.4ZM300.55,99.36l5.48.02,2.64-1.13,1.9-2.7,1.9-3.72-.35-2.37-2.14-4.8-3.63-8.48-1.82-3.28-1.11-2.73-2.29-4.53-5.3-5.99-5.72-3.68-3.24-4.43-2.53-1.87-2.27-1.54-3.04-1.84-3.07-1.55-2.24-.84-3.74.11-.55.35-3.37,4.16-1.12,2.74-.7,2.85-1.16,2.49.1,3.25,1.81,6.14.8,3.51,2.35,4.31.96,2.68,3.7,5.85,2.03,3.63,3.64,2.37,3.27,3.44,2.01,1.37,4.63,1.93,2.6,1.76,3.24.74,2.76,1.21,3.53.59Z"/>
    <path class="cls-1" d="M203.88,120.22l-5.76.08-5.99-1.27-6.2-1.84-3.48-1.37-3.71-3.92-5.89-2.56-3.77-3.84-1.93-3.76-2.71-3.13-3.42-4.85-3.08-6.06-3.21-5.25-.19-7,.39-5.89,2.17-4.77,3.46-3.5,4.62-2.64,7.1-.15,4.01.64,2.6,2.14,3.76,2.57,5.75,4.86,1.68,2.18,3.75,4.53,5.45,3.55,3.46,4.23,1.73,4.09,3.38,4.89,5.78,13.54-1.75,5.94-2.94,3.15-1.41,1.91-3.63,3.48ZM199.09,113.76l2.05-.06,1.56-1.5,1.23-1.7,2.03-2.18.64-2.17-4.73-11.07-3.37-4.86-1.5-3.56-2.2-2.7-5.43-3.54-6-7.38-4.78-3.95-3.8-2.6-1.33-1.1-1.93-.31-4.52.13-2.41,1.37-1.99,2.01-1.18,2.6-.3,4.53.14,4.77,2.49,4.09,3.02,5.95,2.93,4.09,3.13,3.73,1.65,3.22,2.16,2.2,5.95,2.58,3.63,3.84,1.97.78,5.66,1.67,5.22,1.09Z"/>
    <polygon class="cls-1" points="228.37 177.98 224.22 178.1 220.24 176.51 216.24 173.29 212.81 170.02 208.89 170.94 207.34 161.05 207.26 156.46 208.31 150.31 210.44 146.43 211.73 144.44 212.41 138.96 218.97 139.77 218.1 146.77 216.05 149.92 214.63 152.53 213.83 157.21 213.93 160.64 214.29 162.9 214.49 162.85 218 165.76 220.75 168.46 223.6 170.74 225.39 171.46 228.17 171.37 228.37 177.98"/>
    <polygon class="cls-1" points="255.97 49.21 249.37 49.4 249.05 38.57 254.02 30.18 257.54 23.83 260.19 20.43 265.11 15.63 269.24 13.03 275.49 9.33 283.69 6.4 287.68 4.64 297.87 2.55 302.74 2.4 313.01 .12 316.87 0 317.07 6.6 313.53 6.71 303.26 9 298.36 9.14 289.41 11.03 286.05 12.57 278.03 15.43 268.94 21.03 265.01 24.96 262.92 27.66 259.76 33.44 255.71 40.29 255.97 49.21"/>
  </g>
  <polygon class="cls-1" points="274.47 69.04 279.64 65.09 288.55 67.3 293.6 73.16 299.73 84.89 300.63 90.07 300.76 94.53 300.42 97.01 298.08 98.98 295.32 100.55 290.87 100.69 278.45 91.47 275.94 87.83 273.75 83.68 271.16 79.8 270.54 75.68 270.86 72.54 271.64 70.86 272.91 69.34 274.47 69.04"/>
  <polygon class="cls-1" points="201.61 114.81 196.84 119.24 187.76 117.89 182.18 112.54 174.96 101.44 173.57 96.38 173.01 91.95 173.11 89.44 175.25 87.26 177.85 85.43 182.27 84.88 195.51 92.86 198.35 96.25 200.93 100.17 203.88 103.79 204.89 107.83 204.87 110.99 204.26 112.73 203.13 114.37 201.61 114.81"/>
  <path class="cls-1" d="M338.24,299.62l-3.89-.54-4.28-2.61-2.09-2.48-1.52-1.83.38-.64,8.87-9.01,2.46-1.2,7.97-5.12,3.86-1.71,4.86-1.19-.7-2.86.92-2.97-.28-3.13-6.58.59.16,1.83-.46,1.47-4.7,2.02-5.52,3.54-1.19-.2-1.77-.55-.95,3.05-.29.14-1.81-1.6-.7.8-2.15,1.62-.46,1.47,1.52.47-4.32,4.39.08-.75-1.96-.21-5.46-1.7v-.07s-5.5-3.58-5.5-3.58l-.98-.31-.33-.85-.39-1.98.25-.8,3.55-4.25,2.96-1.07,3.44-2.03,3.83-3.45,3.35-2.38,3.54-1.18,4.62-2.17,5.42-1.62,5.58-2.05,7.05-5.43-4.03-5.23-6.25,4.81-4.43,1.63-5.47,1.63-4.37,2.04-.91-.74-1.97-.61-1.62-1.18-3.9,5.33,1.01.74-1.63,1.16-3.57,3.26-.86.53-1.86-.58-1.2-1.06-1.41-.98-2.91-4.93-.13-1.59,1.28-4.11,2.01-2.11,3.33-4.82,5.55-3.06,3.94-2.01,3.54-1.5,11.94-2.07,7.13-1.7,6.03-4.24-3.8-5.41-5,3.51-5.55,1.33-6.94,1.14-5.36.99-4.67,1.89-1.75.89-1.56.86-.71-2.51.36-1.16.64-3.9,2.66-1.76,8.63-4.6,5.96-3.68,7.45-2.91,11.35-2.59,8.61.76,7.07-.19,9.17,2.85,1.7.56,4.55.09,2.92,1.85,1.1,1.75,1.65,2.07,1.4,3.43,2.14,3.81,1.29,2.46,1.09,3.63.53,2.57.32,3.23.54,2.65.82,9.54,1.64,3.02,2.17,6.63,1.03,2.41.58,4.01.95,9.52.37,3.27-.14,3.4,2.32,4.01,5.66-1.26-1.3-4.41.08-1.99-1.39-13.35-.73-5.04-1.22-2.81-2.19-6.71-1.37-2.64-.72-8.37-.54-2.71-.32-3.22-.65-3.23-1.3-4.35-3.63-6.75-1.69-4.14-1.91-2.36-1.73-2.75-2.8-1.9-3.12-1.84-5.17-.1-11.19-3.46-7.79.21-9.26-.81-12.61,2.87-8.42,3.26-7.5,4.57-8.36,4.45-3.27,2.16-2.68,3.49-.34,5.43,2.17,5.05.19,1.11-3.12,1.72-3.73,5.48-2.89,3.03-2.12,6.81.37,4.42,4.41,7.47,2.16,1.43.39.35-2.25,2.61-2.17,2.73-1.11,3.57.77,3.91,1.77,4.65,3.14.98,1.58,1.03-.06,1.38,9.59,2.98-1.23,1.97-.33,3.39,3.03,4,2.15,2.01,4.19,1.3,6.28,3.01,2.89.23,2.26-.53M359.06,302.52v-.04s.3.11.3.11l2.31,1.09,1.28,1.25,1.83,2.11,4.28,2.02.47,1.4,4.32,2.18,2.49.82,6.37,3.24,3.14,1.02,7.1-.41-.81-6.57-5.48.31-1.28-.4-6.23-3.18-2.58-.86-1.65-.83-.5-1.49-5.58-2.64-1.01-1.16-2.34-2.31-3.44-1.63-3.43-1.29-2.63-.16-4.53-1.41-2.48-1.87-2.91-4.56-2.06,1.32-1.38.74-1.76,1.27-1.51-.26-1.2-.37-1.96,6.31,1.41.44,4.63.83,1.06-.65.8-.56.15.15,2.66,2.03"/>
</svg>